<?xml version="1.0" encoding="UTF-8" standalone="no"?>
<!DOCTYPE svg PUBLIC "-//W3C//DTD SVG 1.1//EN"
 "http://www.w3.org/Graphics/SVG/1.1/DTD/svg11.dtd">
<!-- Generated by graphviz version 2.40.1 (20161225.0304)
 -->
<!-- Title: tree Pages: 1 -->
<svg width="434pt" height="166pt"
 viewBox="0.00 0.00 434.23 165.74" xmlns="http://www.w3.org/2000/svg" xmlns:xlink="http://www.w3.org/1999/xlink">
<g id="graph0" class="graph" transform="scale(1 1) rotate(0) translate(4 161.7401)">
<title>tree</title>
<polygon fill="#ffffff" stroke="transparent" points="-4,4 -4,-161.7401 430.229,-161.7401 430.229,4 -4,4"/>
<!-- x_3=?
Height(1)
id(3) -->
<g id="node1" class="node">
<title>x_3=?
Height(1)
id(3)</title>
<polygon fill="none" stroke="#000000" points="262.2965,-157.7401 176.2965,-157.7401 176.2965,-104.7401 262.2965,-104.7401 262.2965,-157.7401"/>
<text text-anchor="middle" x="219.2965" y="-142.5401" font-family="Times,serif" font-size="14.00" fill="#000000">x_3=?</text>
<text text-anchor="middle" x="219.2965" y="-127.5401" font-family="Times,serif" font-size="14.00" fill="#000000">Height(1)</text>
<text text-anchor="middle" x="219.2965" y="-112.5401" font-family="Times,serif" font-size="14.00" fill="#000000">id(3)</text>
</g>
<!-- republican.
id(0) -->
<g id="node2" class="node">
<title>republican.
id(0)</title>
<ellipse fill="none" stroke="#000000" cx="69.2965" cy="-26.8701" rx="69.0935" ry="26.7407"/>
<text text-anchor="middle" x="69.2965" y="-30.6701" font-family="Times,serif" font-size="14.00" fill="#000000">republican.</text>
<text text-anchor="middle" x="69.2965" y="-15.6701" font-family="Times,serif" font-size="14.00" fill="#000000">id(0)</text>
</g>
<!-- x_3=?
Height(1)
id(3)&#45;&gt;republican.
id(0) -->
<g id="edge1" class="edge">
<title>x_3=?
Height(1)
id(3)&#45;&gt;republican.
id(0)</title>
<path fill="none" stroke="#000000" d="M181.057,-104.6331C159.8312,-89.8642 133.3865,-71.4639 111.5501,-56.2702"/>
<polygon fill="#000000" stroke="#000000" points="113.3284,-53.2436 103.1208,-50.4051 109.3303,-58.9895 113.3284,-53.2436"/>
<text text-anchor="middle" x="157.7965" y="-75.5401" font-family="Times,serif" font-size="14.00" fill="#000000">y</text>
</g>
<!-- democrat.
id(1) -->
<g id="node3" class="node">
<title>democrat.
id(1)</title>
<ellipse fill="none" stroke="#000000" cx="219.2965" cy="-26.8701" rx="62.8651" ry="26.7407"/>
<text text-anchor="middle" x="219.2965" y="-30.6701" font-family="Times,serif" font-size="14.00" fill="#000000">democrat.</text>
<text text-anchor="middle" x="219.2965" y="-15.6701" font-family="Times,serif" font-size="14.00" fill="#000000">id(1)</text>
</g>
<!-- x_3=?
Height(1)
id(3)&#45;&gt;democrat.
id(1) -->
<g id="edge2" class="edge">
<title>x_3=?
Height(1)
id(3)&#45;&gt;democrat.
id(1)</title>
<path fill="none" stroke="#000000" d="M219.2965,-104.6331C219.2965,-92.338 219.2965,-77.5262 219.2965,-64.1429"/>
<polygon fill="#000000" stroke="#000000" points="222.7966,-63.7914 219.2965,-53.7914 215.7966,-63.7914 222.7966,-63.7914"/>
<text text-anchor="middle" x="224.2965" y="-75.5401" font-family="Times,serif" font-size="14.00" fill="#000000">n</text>
</g>
<!-- democrat.
id(2) -->
<g id="node4" class="node">
<title>democrat.
id(2)</title>
<ellipse fill="none" stroke="#000000" cx="363.2965" cy="-26.8701" rx="62.8651" ry="26.7407"/>
<text text-anchor="middle" x="363.2965" y="-30.6701" font-family="Times,serif" font-size="14.00" fill="#000000">democrat.</text>
<text text-anchor="middle" x="363.2965" y="-15.6701" font-family="Times,serif" font-size="14.00" fill="#000000">id(2)</text>
</g>
<!-- x_3=?
Height(1)
id(3)&#45;&gt;democrat.
id(2) -->
<g id="edge3" class="edge">
<title>x_3=?
Height(1)
id(3)&#45;&gt;democrat.
id(2)</title>
<path fill="none" stroke="#000000" d="M256.0063,-104.6331C276.4567,-89.8108 301.9534,-71.331 322.9598,-56.1058"/>
<polygon fill="#000000" stroke="#000000" points="325.0226,-58.9333 331.0655,-50.2308 320.9146,-53.2655 325.0226,-58.9333"/>
<text text-anchor="middle" x="305.2965" y="-75.5401" font-family="Times,serif" font-size="14.00" fill="#000000">u</text>
</g>
</g>
</svg>
