<?xml version="1.0" encoding="UTF-8" standalone="no"?>
<!DOCTYPE svg PUBLIC "-//W3C//DTD SVG 1.1//EN"
 "http://www.w3.org/Graphics/SVG/1.1/DTD/svg11.dtd">
<!-- Generated by graphviz version 2.40.1 (20161225.0304)
 -->
<!-- Title: tree Pages: 1 -->
<svg width="1337pt" height="255pt"
 viewBox="0.00 0.00 1336.59 254.74" xmlns="http://www.w3.org/2000/svg" xmlns:xlink="http://www.w3.org/1999/xlink">
<g id="graph0" class="graph" transform="scale(1 1) rotate(0) translate(4 250.7401)">
<title>tree</title>
<polygon fill="#ffffff" stroke="transparent" points="-4,4 -4,-250.7401 1332.5929,-250.7401 1332.5929,4 -4,4"/>
<!-- x_3=?
Height(2)
id(12) -->
<g id="node1" class="node">
<title>x_3=?
Height(2)
id(12)</title>
<polygon fill="none" stroke="#000000" points="720.2965,-246.7401 634.2965,-246.7401 634.2965,-193.7401 720.2965,-193.7401 720.2965,-246.7401"/>
<text text-anchor="middle" x="677.2965" y="-231.5401" font-family="Times,serif" font-size="14.00" fill="#000000">x_3=?</text>
<text text-anchor="middle" x="677.2965" y="-216.5401" font-family="Times,serif" font-size="14.00" fill="#000000">Height(2)</text>
<text text-anchor="middle" x="677.2965" y="-201.5401" font-family="Times,serif" font-size="14.00" fill="#000000">id(12)</text>
</g>
<!-- x_10=?
id(3) -->
<g id="node2" class="node">
<title>x_10=?
id(3)</title>
<polygon fill="none" stroke="#000000" points="340.2965,-142.7401 270.2965,-142.7401 270.2965,-104.7401 340.2965,-104.7401 340.2965,-142.7401"/>
<text text-anchor="middle" x="305.2965" y="-127.5401" font-family="Times,serif" font-size="14.00" fill="#000000">x_10=?</text>
<text text-anchor="middle" x="305.2965" y="-112.5401" font-family="Times,serif" font-size="14.00" fill="#000000">id(3)</text>
</g>
<!-- x_3=?
Height(2)
id(12)&#45;&gt;x_10=?
id(3) -->
<g id="edge1" class="edge">
<title>x_3=?
Height(2)
id(12)&#45;&gt;x_10=?
id(3)</title>
<path fill="none" stroke="#000000" d="M634.2599,-209.0761C563.2956,-190.6673 422.4177,-154.1224 350.2294,-135.3961"/>
<polygon fill="#000000" stroke="#000000" points="351.0721,-131.9989 340.5136,-132.8757 349.3143,-138.7747 351.0721,-131.9989"/>
<text text-anchor="middle" x="507.7965" y="-164.5401" font-family="Times,serif" font-size="14.00" fill="#000000">y</text>
</g>
<!-- x_11=?
id(7) -->
<g id="node6" class="node">
<title>x_11=?
id(7)</title>
<polygon fill="none" stroke="#000000" points="712.2965,-142.7401 642.2965,-142.7401 642.2965,-104.7401 712.2965,-104.7401 712.2965,-142.7401"/>
<text text-anchor="middle" x="677.2965" y="-127.5401" font-family="Times,serif" font-size="14.00" fill="#000000">x_11=?</text>
<text text-anchor="middle" x="677.2965" y="-112.5401" font-family="Times,serif" font-size="14.00" fill="#000000">id(7)</text>
</g>
<!-- x_3=?
Height(2)
id(12)&#45;&gt;x_11=?
id(7) -->
<g id="edge2" class="edge">
<title>x_3=?
Height(2)
id(12)&#45;&gt;x_11=?
id(7)</title>
<path fill="none" stroke="#000000" d="M677.2965,-193.6156C677.2965,-181.0633 677.2965,-166.049 677.2965,-153.1607"/>
<polygon fill="#000000" stroke="#000000" points="680.7966,-152.9352 677.2965,-142.9352 673.7966,-152.9353 680.7966,-152.9352"/>
<text text-anchor="middle" x="682.2965" y="-164.5401" font-family="Times,serif" font-size="14.00" fill="#000000">n</text>
</g>
<!-- x_8=?
id(11) -->
<g id="node10" class="node">
<title>x_8=?
id(11)</title>
<polygon fill="none" stroke="#000000" points="1067.7965,-142.7401 1006.7965,-142.7401 1006.7965,-104.7401 1067.7965,-104.7401 1067.7965,-142.7401"/>
<text text-anchor="middle" x="1037.2965" y="-127.5401" font-family="Times,serif" font-size="14.00" fill="#000000">x_8=?</text>
<text text-anchor="middle" x="1037.2965" y="-112.5401" font-family="Times,serif" font-size="14.00" fill="#000000">id(11)</text>
</g>
<!-- x_3=?
Height(2)
id(12)&#45;&gt;x_8=?
id(11) -->
<g id="edge3" class="edge">
<title>x_3=?
Height(2)
id(12)&#45;&gt;x_8=?
id(11)</title>
<path fill="none" stroke="#000000" d="M720.3633,-208.6958C790.4833,-189.8997 928.3564,-152.9421 996.7878,-134.5987"/>
<polygon fill="#000000" stroke="#000000" points="998.0062,-137.8957 1006.759,-131.9259 996.1937,-131.1344 998.0062,-137.8957"/>
<text text-anchor="middle" x="895.2965" y="-164.5401" font-family="Times,serif" font-size="14.00" fill="#000000">u</text>
</g>
<!-- republican.
id(0) -->
<g id="node3" class="node">
<title>republican.
id(0)</title>
<ellipse fill="none" stroke="#000000" cx="69.2965" cy="-26.8701" rx="69.0935" ry="26.7407"/>
<text text-anchor="middle" x="69.2965" y="-30.6701" font-family="Times,serif" font-size="14.00" fill="#000000">republican.</text>
<text text-anchor="middle" x="69.2965" y="-15.6701" font-family="Times,serif" font-size="14.00" fill="#000000">id(0)</text>
</g>
<!-- x_10=?
id(3)&#45;&gt;republican.
id(0) -->
<g id="edge4" class="edge">
<title>x_10=?
id(3)&#45;&gt;republican.
id(0)</title>
<path fill="none" stroke="#000000" d="M270.2197,-109.3423C232.3388,-93.7935 171.4037,-68.7816 126.5589,-50.3744"/>
<polygon fill="#000000" stroke="#000000" points="127.8279,-47.1119 117.2479,-46.5525 125.1698,-53.5876 127.8279,-47.1119"/>
<text text-anchor="middle" x="213.7965" y="-75.5401" font-family="Times,serif" font-size="14.00" fill="#000000">y</text>
</g>
<!-- republican.
id(1) -->
<g id="node4" class="node">
<title>republican.
id(1)</title>
<ellipse fill="none" stroke="#000000" cx="226.2965" cy="-26.8701" rx="69.0935" ry="26.7407"/>
<text text-anchor="middle" x="226.2965" y="-30.6701" font-family="Times,serif" font-size="14.00" fill="#000000">republican.</text>
<text text-anchor="middle" x="226.2965" y="-15.6701" font-family="Times,serif" font-size="14.00" fill="#000000">id(1)</text>
</g>
<!-- x_10=?
id(3)&#45;&gt;republican.
id(1) -->
<g id="edge5" class="edge">
<title>x_10=?
id(3)&#45;&gt;republican.
id(1)</title>
<path fill="none" stroke="#000000" d="M289.6886,-104.6017C279.4446,-92.0405 265.7665,-75.2683 253.7383,-60.5193"/>
<polygon fill="#000000" stroke="#000000" points="256.2904,-58.1108 247.258,-52.5731 250.8657,-62.5348 256.2904,-58.1108"/>
<text text-anchor="middle" x="278.2965" y="-75.5401" font-family="Times,serif" font-size="14.00" fill="#000000">n</text>
</g>
<!-- republican.
id(2) -->
<g id="node5" class="node">
<title>republican.
id(2)</title>
<ellipse fill="none" stroke="#000000" cx="383.2965" cy="-26.8701" rx="69.0935" ry="26.7407"/>
<text text-anchor="middle" x="383.2965" y="-30.6701" font-family="Times,serif" font-size="14.00" fill="#000000">republican.</text>
<text text-anchor="middle" x="383.2965" y="-15.6701" font-family="Times,serif" font-size="14.00" fill="#000000">id(2)</text>
</g>
<!-- x_10=?
id(3)&#45;&gt;republican.
id(2) -->
<g id="edge6" class="edge">
<title>x_10=?
id(3)&#45;&gt;republican.
id(2)</title>
<path fill="none" stroke="#000000" d="M320.7068,-104.6017C330.8211,-92.0405 344.3261,-75.2683 356.202,-60.5193"/>
<polygon fill="#000000" stroke="#000000" points="359.0547,-62.5571 362.6003,-52.5731 353.6025,-58.167 359.0547,-62.5571"/>
<text text-anchor="middle" x="352.2965" y="-75.5401" font-family="Times,serif" font-size="14.00" fill="#000000">u</text>
</g>
<!-- democrat.
id(4) -->
<g id="node7" class="node">
<title>democrat.
id(4)</title>
<ellipse fill="none" stroke="#000000" cx="533.2965" cy="-26.8701" rx="62.8651" ry="26.7407"/>
<text text-anchor="middle" x="533.2965" y="-30.6701" font-family="Times,serif" font-size="14.00" fill="#000000">democrat.</text>
<text text-anchor="middle" x="533.2965" y="-15.6701" font-family="Times,serif" font-size="14.00" fill="#000000">id(4)</text>
</g>
<!-- x_11=?
id(7)&#45;&gt;democrat.
id(4) -->
<g id="edge7" class="edge">
<title>x_11=?
id(7)&#45;&gt;democrat.
id(4)</title>
<path fill="none" stroke="#000000" d="M648.8467,-104.6017C627.9687,-90.5569 599.2651,-71.2477 575.6897,-55.3884"/>
<polygon fill="#000000" stroke="#000000" points="577.5109,-52.3953 567.26,-49.7177 573.6038,-58.2034 577.5109,-52.3953"/>
<text text-anchor="middle" x="622.7965" y="-75.5401" font-family="Times,serif" font-size="14.00" fill="#000000">y</text>
</g>
<!-- democrat.
id(5) -->
<g id="node8" class="node">
<title>democrat.
id(5)</title>
<ellipse fill="none" stroke="#000000" cx="677.2965" cy="-26.8701" rx="62.8651" ry="26.7407"/>
<text text-anchor="middle" x="677.2965" y="-30.6701" font-family="Times,serif" font-size="14.00" fill="#000000">democrat.</text>
<text text-anchor="middle" x="677.2965" y="-15.6701" font-family="Times,serif" font-size="14.00" fill="#000000">id(5)</text>
</g>
<!-- x_11=?
id(7)&#45;&gt;democrat.
id(5) -->
<g id="edge8" class="edge">
<title>x_11=?
id(7)&#45;&gt;democrat.
id(5)</title>
<path fill="none" stroke="#000000" d="M677.2965,-104.6017C677.2965,-93.0898 677.2965,-78.0412 677.2965,-64.2544"/>
<polygon fill="#000000" stroke="#000000" points="680.7966,-64.0369 677.2965,-54.037 673.7966,-64.037 680.7966,-64.0369"/>
<text text-anchor="middle" x="682.2965" y="-75.5401" font-family="Times,serif" font-size="14.00" fill="#000000">n</text>
</g>
<!-- democrat.
id(6) -->
<g id="node9" class="node">
<title>democrat.
id(6)</title>
<ellipse fill="none" stroke="#000000" cx="821.2965" cy="-26.8701" rx="62.8651" ry="26.7407"/>
<text text-anchor="middle" x="821.2965" y="-30.6701" font-family="Times,serif" font-size="14.00" fill="#000000">democrat.</text>
<text text-anchor="middle" x="821.2965" y="-15.6701" font-family="Times,serif" font-size="14.00" fill="#000000">id(6)</text>
</g>
<!-- x_11=?
id(7)&#45;&gt;democrat.
id(6) -->
<g id="edge9" class="edge">
<title>x_11=?
id(7)&#45;&gt;democrat.
id(6)</title>
<path fill="none" stroke="#000000" d="M705.7462,-104.6017C726.6242,-90.5569 755.3278,-71.2477 778.9032,-55.3884"/>
<polygon fill="#000000" stroke="#000000" points="780.9892,-58.2034 787.3329,-49.7177 777.082,-52.3953 780.9892,-58.2034"/>
<text text-anchor="middle" x="759.2965" y="-75.5401" font-family="Times,serif" font-size="14.00" fill="#000000">u</text>
</g>
<!-- democrat.
id(8) -->
<g id="node11" class="node">
<title>democrat.
id(8)</title>
<ellipse fill="none" stroke="#000000" cx="965.2965" cy="-26.8701" rx="62.8651" ry="26.7407"/>
<text text-anchor="middle" x="965.2965" y="-30.6701" font-family="Times,serif" font-size="14.00" fill="#000000">democrat.</text>
<text text-anchor="middle" x="965.2965" y="-15.6701" font-family="Times,serif" font-size="14.00" fill="#000000">id(8)</text>
</g>
<!-- x_8=?
id(11)&#45;&gt;democrat.
id(8) -->
<g id="edge10" class="edge">
<title>x_8=?
id(11)&#45;&gt;democrat.
id(8)</title>
<path fill="none" stroke="#000000" d="M1023.0716,-104.6017C1013.8217,-92.1568 1001.4997,-75.5785 990.6116,-60.9295"/>
<polygon fill="#000000" stroke="#000000" points="993.1751,-58.5112 984.4006,-52.5731 987.557,-62.6869 993.1751,-58.5112"/>
<text text-anchor="middle" x="1012.7965" y="-75.5401" font-family="Times,serif" font-size="14.00" fill="#000000">y</text>
</g>
<!-- democrat.
id(9) -->
<g id="node12" class="node">
<title>democrat.
id(9)</title>
<ellipse fill="none" stroke="#000000" cx="1109.2965" cy="-26.8701" rx="62.8651" ry="26.7407"/>
<text text-anchor="middle" x="1109.2965" y="-30.6701" font-family="Times,serif" font-size="14.00" fill="#000000">democrat.</text>
<text text-anchor="middle" x="1109.2965" y="-15.6701" font-family="Times,serif" font-size="14.00" fill="#000000">id(9)</text>
</g>
<!-- x_8=?
id(11)&#45;&gt;democrat.
id(9) -->
<g id="edge11" class="edge">
<title>x_8=?
id(11)&#45;&gt;democrat.
id(9)</title>
<path fill="none" stroke="#000000" d="M1051.5213,-104.6017C1060.7712,-92.1568 1073.0932,-75.5785 1083.9813,-60.9295"/>
<polygon fill="#000000" stroke="#000000" points="1087.036,-62.6869 1090.1923,-52.5731 1081.4178,-58.5112 1087.036,-62.6869"/>
<text text-anchor="middle" x="1081.2965" y="-75.5401" font-family="Times,serif" font-size="14.00" fill="#000000">n</text>
</g>
<!-- republican.
id(10) -->
<g id="node13" class="node">
<title>republican.
id(10)</title>
<ellipse fill="none" stroke="#000000" cx="1259.2965" cy="-26.8701" rx="69.0935" ry="26.7407"/>
<text text-anchor="middle" x="1259.2965" y="-30.6701" font-family="Times,serif" font-size="14.00" fill="#000000">republican.</text>
<text text-anchor="middle" x="1259.2965" y="-15.6701" font-family="Times,serif" font-size="14.00" fill="#000000">id(10)</text>
</g>
<!-- x_8=?
id(11)&#45;&gt;republican.
id(10) -->
<g id="edge12" class="edge">
<title>x_8=?
id(11)&#45;&gt;republican.
id(10)</title>
<path fill="none" stroke="#000000" d="M1068.1646,-110.2707C1103.2392,-94.9659 1161.1705,-69.6875 1204.077,-50.9651"/>
<polygon fill="#000000" stroke="#000000" points="1205.4986,-54.1636 1213.2642,-46.9563 1202.699,-47.7478 1205.4986,-54.1636"/>
<text text-anchor="middle" x="1160.2965" y="-75.5401" font-family="Times,serif" font-size="14.00" fill="#000000">u</text>
</g>
</g>
</svg>
