<?xml version="1.0" encoding="UTF-8" standalone="no"?>
<!DOCTYPE svg PUBLIC "-//W3C//DTD SVG 1.1//EN"
 "http://www.w3.org/Graphics/SVG/1.1/DTD/svg11.dtd">
<!-- Generated by graphviz version 2.40.1 (20161225.0304)
 -->
<!-- Title: tree Pages: 1 -->
<svg width="1878pt" height="359pt"
 viewBox="0.00 0.00 1878.23 359.48" xmlns="http://www.w3.org/2000/svg" xmlns:xlink="http://www.w3.org/1999/xlink">
<g id="graph0" class="graph" transform="scale(1 1) rotate(0) translate(4 355.4802)">
<title>tree</title>
<polygon fill="#ffffff" stroke="transparent" points="-4,4 -4,-355.4802 1874.229,-355.4802 1874.229,4 -4,4"/>
<!-- x_3=?
Height(3)
id(24) -->
<g id="node1" class="node">
<title>x_3=?
Height(3)
id(24)</title>
<polygon fill="none" stroke="#000000" points="1107.9325,-351.4802 1021.9325,-351.4802 1021.9325,-298.4802 1107.9325,-298.4802 1107.9325,-351.4802"/>
<text text-anchor="middle" x="1064.9325" y="-336.2802" font-family="Times,serif" font-size="14.00" fill="#000000">x_3=?</text>
<text text-anchor="middle" x="1064.9325" y="-321.2802" font-family="Times,serif" font-size="14.00" fill="#000000">Height(3)</text>
<text text-anchor="middle" x="1064.9325" y="-306.2802" font-family="Times,serif" font-size="14.00" fill="#000000">id(24)</text>
</g>
<!-- x_10=?
id(9) -->
<g id="node2" class="node">
<title>x_10=?
id(9)</title>
<polygon fill="none" stroke="#000000" points="789.9325,-247.4802 719.9325,-247.4802 719.9325,-209.4802 789.9325,-209.4802 789.9325,-247.4802"/>
<text text-anchor="middle" x="754.9325" y="-232.2802" font-family="Times,serif" font-size="14.00" fill="#000000">x_10=?</text>
<text text-anchor="middle" x="754.9325" y="-217.2802" font-family="Times,serif" font-size="14.00" fill="#000000">id(9)</text>
</g>
<!-- x_3=?
Height(3)
id(24)&#45;&gt;x_10=?
id(9) -->
<g id="edge1" class="edge">
<title>x_3=?
Height(3)
id(24)&#45;&gt;x_10=?
id(9)</title>
<path fill="none" stroke="#000000" d="M1021.8283,-311.5623C963.3246,-293.3507 859.2812,-260.963 799.8522,-242.4633"/>
<polygon fill="#000000" stroke="#000000" points="800.5919,-239.028 790.0035,-239.3975 798.5113,-245.7116 800.5919,-239.028"/>
<text text-anchor="middle" x="924.4325" y="-269.2802" font-family="Times,serif" font-size="14.00" fill="#000000">y</text>
</g>
<!-- x_11=?
id(16) -->
<g id="node12" class="node">
<title>x_11=?
id(16)</title>
<polygon fill="none" stroke="#000000" points="1099.9325,-247.4802 1029.9325,-247.4802 1029.9325,-209.4802 1099.9325,-209.4802 1099.9325,-247.4802"/>
<text text-anchor="middle" x="1064.9325" y="-232.2802" font-family="Times,serif" font-size="14.00" fill="#000000">x_11=?</text>
<text text-anchor="middle" x="1064.9325" y="-217.2802" font-family="Times,serif" font-size="14.00" fill="#000000">id(16)</text>
</g>
<!-- x_3=?
Height(3)
id(24)&#45;&gt;x_11=?
id(16) -->
<g id="edge2" class="edge">
<title>x_3=?
Height(3)
id(24)&#45;&gt;x_11=?
id(16)</title>
<path fill="none" stroke="#000000" d="M1064.9325,-298.3557C1064.9325,-285.8034 1064.9325,-270.7892 1064.9325,-257.9008"/>
<polygon fill="#000000" stroke="#000000" points="1068.4326,-257.6753 1064.9325,-247.6753 1061.4326,-257.6754 1068.4326,-257.6753"/>
<text text-anchor="middle" x="1069.9325" y="-269.2802" font-family="Times,serif" font-size="14.00" fill="#000000">n</text>
</g>
<!-- x_8=?
id(23) -->
<g id="node19" class="node">
<title>x_8=?
id(23)</title>
<polygon fill="none" stroke="#000000" points="1653.4325,-247.4802 1592.4325,-247.4802 1592.4325,-209.4802 1653.4325,-209.4802 1653.4325,-247.4802"/>
<text text-anchor="middle" x="1622.9325" y="-232.2802" font-family="Times,serif" font-size="14.00" fill="#000000">x_8=?</text>
<text text-anchor="middle" x="1622.9325" y="-217.2802" font-family="Times,serif" font-size="14.00" fill="#000000">id(23)</text>
</g>
<!-- x_3=?
Height(3)
id(24)&#45;&gt;x_8=?
id(23) -->
<g id="edge3" class="edge">
<title>x_3=?
Height(3)
id(24)&#45;&gt;x_8=?
id(23)</title>
<path fill="none" stroke="#000000" d="M1108.2535,-317.4883C1213.2196,-299.3356 1480.0204,-253.1953 1582.233,-235.5188"/>
<polygon fill="#000000" stroke="#000000" points="1582.9111,-238.9535 1592.1684,-233.8005 1581.7182,-232.0559 1582.9111,-238.9535"/>
<text text-anchor="middle" x="1398.9325" y="-269.2802" font-family="Times,serif" font-size="14.00" fill="#000000">u</text>
</g>
<!-- x_14=?
id(3) -->
<g id="node3" class="node">
<title>x_14=?
id(3)</title>
<polygon fill="none" stroke="#000000" points="326.9325,-150.6102 256.9325,-150.6102 256.9325,-112.6102 326.9325,-112.6102 326.9325,-150.6102"/>
<text text-anchor="middle" x="291.9325" y="-135.4102" font-family="Times,serif" font-size="14.00" fill="#000000">x_14=?</text>
<text text-anchor="middle" x="291.9325" y="-120.4102" font-family="Times,serif" font-size="14.00" fill="#000000">id(3)</text>
</g>
<!-- x_10=?
id(9)&#45;&gt;x_14=?
id(3) -->
<g id="edge4" class="edge">
<title>x_10=?
id(9)&#45;&gt;x_14=?
id(3)</title>
<path fill="none" stroke="#000000" d="M719.7522,-221.1197C636.7626,-203.7564 428.8666,-160.2599 336.9005,-141.0185"/>
<polygon fill="#000000" stroke="#000000" points="337.5641,-137.5816 327.0592,-138.9595 336.1305,-144.4333 337.5641,-137.5816"/>
<text text-anchor="middle" x="569.4325" y="-180.2802" font-family="Times,serif" font-size="14.00" fill="#000000">y</text>
</g>
<!-- x_14=?
id(7) -->
<g id="node7" class="node">
<title>x_14=?
id(7)</title>
<polygon fill="none" stroke="#000000" points="683.9325,-150.6102 613.9325,-150.6102 613.9325,-112.6102 683.9325,-112.6102 683.9325,-150.6102"/>
<text text-anchor="middle" x="648.9325" y="-135.4102" font-family="Times,serif" font-size="14.00" fill="#000000">x_14=?</text>
<text text-anchor="middle" x="648.9325" y="-120.4102" font-family="Times,serif" font-size="14.00" fill="#000000">id(7)</text>
</g>
<!-- x_10=?
id(9)&#45;&gt;x_14=?
id(7) -->
<g id="edge5" class="edge">
<title>x_10=?
id(9)&#45;&gt;x_14=?
id(7)</title>
<path fill="none" stroke="#000000" d="M733.9903,-209.3418C717.8751,-194.6147 695.4261,-174.0992 677.6371,-157.8424"/>
<polygon fill="#000000" stroke="#000000" points="679.5741,-154.8712 669.8312,-150.7088 674.8519,-160.0385 679.5741,-154.8712"/>
<text text-anchor="middle" x="716.9325" y="-180.2802" font-family="Times,serif" font-size="14.00" fill="#000000">n</text>
</g>
<!-- republican.
id(8) -->
<g id="node11" class="node">
<title>republican.
id(8)</title>
<ellipse fill="none" stroke="#000000" cx="770.9325" cy="-131.6102" rx="69.0935" ry="26.7407"/>
<text text-anchor="middle" x="770.9325" y="-135.4102" font-family="Times,serif" font-size="14.00" fill="#000000">republican.</text>
<text text-anchor="middle" x="770.9325" y="-120.4102" font-family="Times,serif" font-size="14.00" fill="#000000">id(8)</text>
</g>
<!-- x_10=?
id(9)&#45;&gt;republican.
id(8) -->
<g id="edge6" class="edge">
<title>x_10=?
id(9)&#45;&gt;republican.
id(8)</title>
<path fill="none" stroke="#000000" d="M758.0936,-209.3418C759.995,-197.8299 762.4806,-182.7813 764.7577,-168.9945"/>
<polygon fill="#000000" stroke="#000000" points="768.2689,-169.2138 766.4454,-158.7771 761.3624,-168.073 768.2689,-169.2138"/>
<text text-anchor="middle" x="768.9325" y="-180.2802" font-family="Times,serif" font-size="14.00" fill="#000000">u</text>
</g>
<!-- democrat.
id(0) -->
<g id="node4" class="node">
<title>democrat.
id(0)</title>
<ellipse fill="none" stroke="#000000" cx="62.9325" cy="-26.8701" rx="62.8651" ry="26.7407"/>
<text text-anchor="middle" x="62.9325" y="-30.6701" font-family="Times,serif" font-size="14.00" fill="#000000">democrat.</text>
<text text-anchor="middle" x="62.9325" y="-15.6701" font-family="Times,serif" font-size="14.00" fill="#000000">id(0)</text>
</g>
<!-- x_14=?
id(3)&#45;&gt;democrat.
id(0) -->
<g id="edge7" class="edge">
<title>x_14=?
id(3)&#45;&gt;democrat.
id(0)</title>
<path fill="none" stroke="#000000" d="M256.6531,-115.4741C218.8992,-98.2062 158.6066,-70.6295 115.3103,-50.8266"/>
<polygon fill="#000000" stroke="#000000" points="116.6195,-47.5768 106.0697,-46.6002 113.7079,-53.9425 116.6195,-47.5768"/>
<text text-anchor="middle" x="196.4325" y="-75.5401" font-family="Times,serif" font-size="14.00" fill="#000000">y</text>
</g>
<!-- republican.
id(1) -->
<g id="node5" class="node">
<title>republican.
id(1)</title>
<ellipse fill="none" stroke="#000000" cx="212.9325" cy="-26.8701" rx="69.0935" ry="26.7407"/>
<text text-anchor="middle" x="212.9325" y="-30.6701" font-family="Times,serif" font-size="14.00" fill="#000000">republican.</text>
<text text-anchor="middle" x="212.9325" y="-15.6701" font-family="Times,serif" font-size="14.00" fill="#000000">id(1)</text>
</g>
<!-- x_14=?
id(3)&#45;&gt;republican.
id(1) -->
<g id="edge8" class="edge">
<title>x_14=?
id(3)&#45;&gt;republican.
id(1)</title>
<path fill="none" stroke="#000000" d="M277.4427,-112.3992C266.5711,-97.9854 251.4056,-77.8787 238.5103,-60.7817"/>
<polygon fill="#000000" stroke="#000000" points="241.2069,-58.5446 232.3909,-52.6685 235.6183,-62.7598 241.2069,-58.5446"/>
<text text-anchor="middle" x="262.9325" y="-75.5401" font-family="Times,serif" font-size="14.00" fill="#000000">n</text>
</g>
<!-- republican.
id(2) -->
<g id="node6" class="node">
<title>republican.
id(2)</title>
<ellipse fill="none" stroke="#000000" cx="369.9325" cy="-26.8701" rx="69.0935" ry="26.7407"/>
<text text-anchor="middle" x="369.9325" y="-30.6701" font-family="Times,serif" font-size="14.00" fill="#000000">republican.</text>
<text text-anchor="middle" x="369.9325" y="-15.6701" font-family="Times,serif" font-size="14.00" fill="#000000">id(2)</text>
</g>
<!-- x_14=?
id(3)&#45;&gt;republican.
id(2) -->
<g id="edge9" class="edge">
<title>x_14=?
id(3)&#45;&gt;republican.
id(2)</title>
<path fill="none" stroke="#000000" d="M306.2389,-112.3992C316.8973,-98.0869 331.7357,-78.1616 344.4092,-61.1433"/>
<polygon fill="#000000" stroke="#000000" points="347.2634,-63.1706 350.429,-53.0597 341.6491,-58.9896 347.2634,-63.1706"/>
<text text-anchor="middle" x="340.9325" y="-75.5401" font-family="Times,serif" font-size="14.00" fill="#000000">u</text>
</g>
<!-- republican.
id(4) -->
<g id="node8" class="node">
<title>republican.
id(4)</title>
<ellipse fill="none" stroke="#000000" cx="526.9325" cy="-26.8701" rx="69.0935" ry="26.7407"/>
<text text-anchor="middle" x="526.9325" y="-30.6701" font-family="Times,serif" font-size="14.00" fill="#000000">republican.</text>
<text text-anchor="middle" x="526.9325" y="-15.6701" font-family="Times,serif" font-size="14.00" fill="#000000">id(4)</text>
</g>
<!-- x_14=?
id(7)&#45;&gt;republican.
id(4) -->
<g id="edge10" class="edge">
<title>x_14=?
id(7)&#45;&gt;republican.
id(4)</title>
<path fill="none" stroke="#000000" d="M626.5558,-112.3992C608.8666,-97.2126 583.8162,-75.7062 563.2609,-58.0589"/>
<polygon fill="#000000" stroke="#000000" points="565.4949,-55.364 555.6276,-51.5056 560.9351,-60.6751 565.4949,-55.364"/>
<text text-anchor="middle" x="600.4325" y="-75.5401" font-family="Times,serif" font-size="14.00" fill="#000000">y</text>
</g>
<!-- republican.
id(5) -->
<g id="node9" class="node">
<title>republican.
id(5)</title>
<ellipse fill="none" stroke="#000000" cx="683.9325" cy="-26.8701" rx="69.0935" ry="26.7407"/>
<text text-anchor="middle" x="683.9325" y="-30.6701" font-family="Times,serif" font-size="14.00" fill="#000000">republican.</text>
<text text-anchor="middle" x="683.9325" y="-15.6701" font-family="Times,serif" font-size="14.00" fill="#000000">id(5)</text>
</g>
<!-- x_14=?
id(7)&#45;&gt;republican.
id(5) -->
<g id="edge11" class="edge">
<title>x_14=?
id(7)&#45;&gt;republican.
id(5)</title>
<path fill="none" stroke="#000000" d="M655.352,-112.3992C659.8954,-98.803 666.1313,-80.1413 671.6192,-63.7185"/>
<polygon fill="#000000" stroke="#000000" points="675.0679,-64.4413 674.9177,-53.8475 668.4287,-62.2227 675.0679,-64.4413"/>
<text text-anchor="middle" x="673.9325" y="-75.5401" font-family="Times,serif" font-size="14.00" fill="#000000">n</text>
</g>
<!-- republican.
id(6) -->
<g id="node10" class="node">
<title>republican.
id(6)</title>
<ellipse fill="none" stroke="#000000" cx="840.9325" cy="-26.8701" rx="69.0935" ry="26.7407"/>
<text text-anchor="middle" x="840.9325" y="-30.6701" font-family="Times,serif" font-size="14.00" fill="#000000">republican.</text>
<text text-anchor="middle" x="840.9325" y="-15.6701" font-family="Times,serif" font-size="14.00" fill="#000000">id(6)</text>
</g>
<!-- x_14=?
id(7)&#45;&gt;republican.
id(6) -->
<g id="edge12" class="edge">
<title>x_14=?
id(7)&#45;&gt;republican.
id(6)</title>
<path fill="none" stroke="#000000" d="M679.5556,-112.5657C684.016,-109.8921 688.5735,-107.2145 692.9325,-104.7401 724.6019,-86.763 760.7656,-67.7091 789.4175,-52.9489"/>
<polygon fill="#000000" stroke="#000000" points="791.1447,-55.9965 798.4409,-48.3143 787.9465,-49.7697 791.1447,-55.9965"/>
<text text-anchor="middle" x="754.9325" y="-75.5401" font-family="Times,serif" font-size="14.00" fill="#000000">u</text>
</g>
<!-- democrat.
id(10) -->
<g id="node13" class="node">
<title>democrat.
id(10)</title>
<ellipse fill="none" stroke="#000000" cx="920.9325" cy="-131.6102" rx="62.8651" ry="26.7407"/>
<text text-anchor="middle" x="920.9325" y="-135.4102" font-family="Times,serif" font-size="14.00" fill="#000000">democrat.</text>
<text text-anchor="middle" x="920.9325" y="-120.4102" font-family="Times,serif" font-size="14.00" fill="#000000">id(10)</text>
</g>
<!-- x_11=?
id(16)&#45;&gt;democrat.
id(10) -->
<g id="edge13" class="edge">
<title>x_11=?
id(16)&#45;&gt;democrat.
id(10)</title>
<path fill="none" stroke="#000000" d="M1036.4827,-209.3418C1015.6048,-195.297 986.9011,-175.9878 963.3257,-160.1285"/>
<polygon fill="#000000" stroke="#000000" points="965.147,-157.1354 954.8961,-154.4578 961.2398,-162.9435 965.147,-157.1354"/>
<text text-anchor="middle" x="1010.4325" y="-180.2802" font-family="Times,serif" font-size="14.00" fill="#000000">y</text>
</g>
<!-- democrat.
id(11) -->
<g id="node14" class="node">
<title>democrat.
id(11)</title>
<ellipse fill="none" stroke="#000000" cx="1064.9325" cy="-131.6102" rx="62.8651" ry="26.7407"/>
<text text-anchor="middle" x="1064.9325" y="-135.4102" font-family="Times,serif" font-size="14.00" fill="#000000">democrat.</text>
<text text-anchor="middle" x="1064.9325" y="-120.4102" font-family="Times,serif" font-size="14.00" fill="#000000">id(11)</text>
</g>
<!-- x_11=?
id(16)&#45;&gt;democrat.
id(11) -->
<g id="edge14" class="edge">
<title>x_11=?
id(16)&#45;&gt;democrat.
id(11)</title>
<path fill="none" stroke="#000000" d="M1064.9325,-209.3418C1064.9325,-197.8299 1064.9325,-182.7813 1064.9325,-168.9945"/>
<polygon fill="#000000" stroke="#000000" points="1068.4326,-168.7771 1064.9325,-158.7771 1061.4326,-168.7771 1068.4326,-168.7771"/>
<text text-anchor="middle" x="1069.9325" y="-180.2802" font-family="Times,serif" font-size="14.00" fill="#000000">n</text>
</g>
<!-- x_2=?
id(15) -->
<g id="node15" class="node">
<title>x_2=?
id(15)</title>
<polygon fill="none" stroke="#000000" points="1206.4325,-150.6102 1145.4325,-150.6102 1145.4325,-112.6102 1206.4325,-112.6102 1206.4325,-150.6102"/>
<text text-anchor="middle" x="1175.9325" y="-135.4102" font-family="Times,serif" font-size="14.00" fill="#000000">x_2=?</text>
<text text-anchor="middle" x="1175.9325" y="-120.4102" font-family="Times,serif" font-size="14.00" fill="#000000">id(15)</text>
</g>
<!-- x_11=?
id(16)&#45;&gt;x_2=?
id(15) -->
<g id="edge15" class="edge">
<title>x_11=?
id(16)&#45;&gt;x_2=?
id(15)</title>
<path fill="none" stroke="#000000" d="M1086.8625,-209.3418C1103.8899,-194.482 1127.6699,-173.7291 1146.3762,-157.4041"/>
<polygon fill="#000000" stroke="#000000" points="1148.815,-159.9211 1154.048,-150.7088 1144.2123,-154.6471 1148.815,-159.9211"/>
<text text-anchor="middle" x="1128.9325" y="-180.2802" font-family="Times,serif" font-size="14.00" fill="#000000">u</text>
</g>
<!-- democrat.
id(12) -->
<g id="node16" class="node">
<title>democrat.
id(12)</title>
<ellipse fill="none" stroke="#000000" cx="1007.9325" cy="-26.8701" rx="62.8651" ry="26.7407"/>
<text text-anchor="middle" x="1007.9325" y="-30.6701" font-family="Times,serif" font-size="14.00" fill="#000000">democrat.</text>
<text text-anchor="middle" x="1007.9325" y="-15.6701" font-family="Times,serif" font-size="14.00" fill="#000000">id(12)</text>
</g>
<!-- x_2=?
id(15)&#45;&gt;democrat.
id(12) -->
<g id="edge16" class="edge">
<title>x_2=?
id(15)&#45;&gt;democrat.
id(12)</title>
<path fill="none" stroke="#000000" d="M1148.7982,-112.6072C1144.8433,-109.9276 1140.8011,-107.2372 1136.9325,-104.7401 1109.8212,-87.2403 1078.8865,-68.5256 1054.1074,-53.8297"/>
<polygon fill="#000000" stroke="#000000" points="1055.6644,-50.6843 1045.2752,-48.6069 1052.1014,-56.7096 1055.6644,-50.6843"/>
<text text-anchor="middle" x="1110.4325" y="-75.5401" font-family="Times,serif" font-size="14.00" fill="#000000">y</text>
</g>
<!-- republican.
id(13) -->
<g id="node17" class="node">
<title>republican.
id(13)</title>
<ellipse fill="none" stroke="#000000" cx="1157.9325" cy="-26.8701" rx="69.0935" ry="26.7407"/>
<text text-anchor="middle" x="1157.9325" y="-30.6701" font-family="Times,serif" font-size="14.00" fill="#000000">republican.</text>
<text text-anchor="middle" x="1157.9325" y="-15.6701" font-family="Times,serif" font-size="14.00" fill="#000000">id(13)</text>
</g>
<!-- x_2=?
id(15)&#45;&gt;republican.
id(13) -->
<g id="edge17" class="edge">
<title>x_2=?
id(15)&#45;&gt;republican.
id(13)</title>
<path fill="none" stroke="#000000" d="M1172.631,-112.3992C1170.2945,-98.803 1167.0874,-80.1413 1164.265,-63.7185"/>
<polygon fill="#000000" stroke="#000000" points="1167.7119,-63.1102 1162.5687,-53.8475 1160.813,-64.2958 1167.7119,-63.1102"/>
<text text-anchor="middle" x="1173.9325" y="-75.5401" font-family="Times,serif" font-size="14.00" fill="#000000">n</text>
</g>
<!-- republican.
id(14) -->
<g id="node18" class="node">
<title>republican.
id(14)</title>
<ellipse fill="none" stroke="#000000" cx="1314.9325" cy="-26.8701" rx="69.0935" ry="26.7407"/>
<text text-anchor="middle" x="1314.9325" y="-30.6701" font-family="Times,serif" font-size="14.00" fill="#000000">republican.</text>
<text text-anchor="middle" x="1314.9325" y="-15.6701" font-family="Times,serif" font-size="14.00" fill="#000000">id(14)</text>
</g>
<!-- x_2=?
id(15)&#45;&gt;republican.
id(14) -->
<g id="edge18" class="edge">
<title>x_2=?
id(15)&#45;&gt;republican.
id(14)</title>
<path fill="none" stroke="#000000" d="M1201.4272,-112.3992C1221.9692,-96.9203 1251.2241,-74.876 1274.8885,-57.0443"/>
<polygon fill="#000000" stroke="#000000" points="1277.1221,-59.7437 1283.0022,-50.9304 1272.9094,-54.1531 1277.1221,-59.7437"/>
<text text-anchor="middle" x="1258.9325" y="-75.5401" font-family="Times,serif" font-size="14.00" fill="#000000">u</text>
</g>
<!-- x_6=?
id(20) -->
<g id="node20" class="node">
<title>x_6=?
id(20)</title>
<polygon fill="none" stroke="#000000" points="1570.4325,-150.6102 1509.4325,-150.6102 1509.4325,-112.6102 1570.4325,-112.6102 1570.4325,-150.6102"/>
<text text-anchor="middle" x="1539.9325" y="-135.4102" font-family="Times,serif" font-size="14.00" fill="#000000">x_6=?</text>
<text text-anchor="middle" x="1539.9325" y="-120.4102" font-family="Times,serif" font-size="14.00" fill="#000000">id(20)</text>
</g>
<!-- x_8=?
id(23)&#45;&gt;x_6=?
id(20) -->
<g id="edge19" class="edge">
<title>x_8=?
id(23)&#45;&gt;x_6=?
id(20)</title>
<path fill="none" stroke="#000000" d="M1606.5344,-209.3418C1594.1433,-194.88 1576.9697,-174.8366 1563.1652,-158.7252"/>
<polygon fill="#000000" stroke="#000000" points="1565.4609,-156.0253 1556.2966,-150.7088 1560.1453,-160.5799 1565.4609,-156.0253"/>
<text text-anchor="middle" x="1593.4325" y="-180.2802" font-family="Times,serif" font-size="14.00" fill="#000000">y</text>
</g>
<!-- democrat.
id(21) -->
<g id="node24" class="node">
<title>democrat.
id(21)</title>
<ellipse fill="none" stroke="#000000" cx="1650.9325" cy="-131.6102" rx="62.8651" ry="26.7407"/>
<text text-anchor="middle" x="1650.9325" y="-135.4102" font-family="Times,serif" font-size="14.00" fill="#000000">democrat.</text>
<text text-anchor="middle" x="1650.9325" y="-120.4102" font-family="Times,serif" font-size="14.00" fill="#000000">id(21)</text>
</g>
<!-- x_8=?
id(23)&#45;&gt;democrat.
id(21) -->
<g id="edge20" class="edge">
<title>x_8=?
id(23)&#45;&gt;democrat.
id(21)</title>
<path fill="none" stroke="#000000" d="M1628.4644,-209.3418C1631.8501,-197.6283 1636.2943,-182.2531 1640.3357,-168.2714"/>
<polygon fill="#000000" stroke="#000000" points="1643.7719,-168.9877 1643.1864,-158.409 1637.0472,-167.0439 1643.7719,-168.9877"/>
<text text-anchor="middle" x="1642.9325" y="-180.2802" font-family="Times,serif" font-size="14.00" fill="#000000">n</text>
</g>
<!-- republican.
id(22) -->
<g id="node25" class="node">
<title>republican.
id(22)</title>
<ellipse fill="none" stroke="#000000" cx="1800.9325" cy="-131.6102" rx="69.0935" ry="26.7407"/>
<text text-anchor="middle" x="1800.9325" y="-135.4102" font-family="Times,serif" font-size="14.00" fill="#000000">republican.</text>
<text text-anchor="middle" x="1800.9325" y="-120.4102" font-family="Times,serif" font-size="14.00" fill="#000000">id(22)</text>
</g>
<!-- x_8=?
id(23)&#45;&gt;republican.
id(22) -->
<g id="edge21" class="edge">
<title>x_8=?
id(23)&#45;&gt;republican.
id(22)</title>
<path fill="none" stroke="#000000" d="M1653.5318,-211.8277C1680.4013,-197.2049 1719.9856,-175.6626 1751.3692,-158.5832"/>
<polygon fill="#000000" stroke="#000000" points="1753.2928,-161.5212 1760.4033,-153.6667 1749.9467,-155.3727 1753.2928,-161.5212"/>
<text text-anchor="middle" x="1722.9325" y="-180.2802" font-family="Times,serif" font-size="14.00" fill="#000000">u</text>
</g>
<!-- democrat.
id(17) -->
<g id="node21" class="node">
<title>democrat.
id(17)</title>
<ellipse fill="none" stroke="#000000" cx="1464.9325" cy="-26.8701" rx="62.8651" ry="26.7407"/>
<text text-anchor="middle" x="1464.9325" y="-30.6701" font-family="Times,serif" font-size="14.00" fill="#000000">democrat.</text>
<text text-anchor="middle" x="1464.9325" y="-15.6701" font-family="Times,serif" font-size="14.00" fill="#000000">id(17)</text>
</g>
<!-- x_6=?
id(20)&#45;&gt;democrat.
id(17) -->
<g id="edge22" class="edge">
<title>x_6=?
id(20)&#45;&gt;democrat.
id(17)</title>
<path fill="none" stroke="#000000" d="M1526.1763,-112.3992C1515.9491,-98.1165 1501.7191,-78.2438 1489.5496,-61.2487"/>
<polygon fill="#000000" stroke="#000000" points="1492.0733,-58.7613 1483.4057,-52.6685 1486.3819,-62.8367 1492.0733,-58.7613"/>
<text text-anchor="middle" x="1511.4325" y="-75.5401" font-family="Times,serif" font-size="14.00" fill="#000000">y</text>
</g>
<!-- republican.
id(18) -->
<g id="node22" class="node">
<title>republican.
id(18)</title>
<ellipse fill="none" stroke="#000000" cx="1614.9325" cy="-26.8701" rx="69.0935" ry="26.7407"/>
<text text-anchor="middle" x="1614.9325" y="-30.6701" font-family="Times,serif" font-size="14.00" fill="#000000">republican.</text>
<text text-anchor="middle" x="1614.9325" y="-15.6701" font-family="Times,serif" font-size="14.00" fill="#000000">id(18)</text>
</g>
<!-- x_6=?
id(20)&#45;&gt;republican.
id(18) -->
<g id="edge23" class="edge">
<title>x_6=?
id(20)&#45;&gt;republican.
id(18)</title>
<path fill="none" stroke="#000000" d="M1553.6887,-112.3992C1563.8439,-98.217 1577.9457,-78.5234 1590.058,-61.6082"/>
<polygon fill="#000000" stroke="#000000" points="1593.2029,-63.228 1596.1792,-53.0597 1587.5115,-59.1526 1593.2029,-63.228"/>
<text text-anchor="middle" x="1586.9325" y="-75.5401" font-family="Times,serif" font-size="14.00" fill="#000000">n</text>
</g>
<!-- democrat.
id(19) -->
<g id="node23" class="node">
<title>democrat.
id(19)</title>
<ellipse fill="none" stroke="#000000" cx="1764.9325" cy="-26.8701" rx="62.8651" ry="26.7407"/>
<text text-anchor="middle" x="1764.9325" y="-30.6701" font-family="Times,serif" font-size="14.00" fill="#000000">democrat.</text>
<text text-anchor="middle" x="1764.9325" y="-15.6701" font-family="Times,serif" font-size="14.00" fill="#000000">id(19)</text>
</g>
<!-- x_6=?
id(20)&#45;&gt;democrat.
id(19) -->
<g id="edge24" class="edge">
<title>x_6=?
id(20)&#45;&gt;democrat.
id(19)</title>
<path fill="none" stroke="#000000" d="M1566.3228,-112.3552C1570.4564,-109.6553 1574.7471,-107.026 1578.9325,-104.7401 1602.1662,-92.0509 1662.8675,-67.1758 1708.6561,-48.9424"/>
<polygon fill="#000000" stroke="#000000" points="1710.1798,-52.1032 1718.1817,-45.1592 1707.5959,-45.5976 1710.1798,-52.1032"/>
<text text-anchor="middle" x="1656.9325" y="-75.5401" font-family="Times,serif" font-size="14.00" fill="#000000">u</text>
</g>
</g>
</svg>
