<?xml version="1.0" encoding="UTF-8" standalone="no"?>
<!DOCTYPE svg PUBLIC "-//W3C//DTD SVG 1.1//EN"
 "http://www.w3.org/Graphics/SVG/1.1/DTD/svg11.dtd">
<!-- Generated by graphviz version 2.40.1 (20161225.0304)
 -->
<!-- Title: tree Pages: 1 -->
<svg width="2177pt" height="464pt"
 viewBox="0.00 0.00 2176.59 464.22" xmlns="http://www.w3.org/2000/svg" xmlns:xlink="http://www.w3.org/1999/xlink">
<g id="graph0" class="graph" transform="scale(1 1) rotate(0) translate(4 460.2203)">
<title>tree</title>
<polygon fill="#ffffff" stroke="transparent" points="-4,4 -4,-460.2203 2172.5929,-460.2203 2172.5929,4 -4,4"/>
<!-- x_3=?
Height(4)
id(33) -->
<g id="node1" class="node">
<title>x_3=?
Height(4)
id(33)</title>
<polygon fill="none" stroke="#000000" points="1402.2965,-456.2203 1316.2965,-456.2203 1316.2965,-403.2203 1402.2965,-403.2203 1402.2965,-456.2203"/>
<text text-anchor="middle" x="1359.2965" y="-441.0203" font-family="Times,serif" font-size="14.00" fill="#000000">x_3=?</text>
<text text-anchor="middle" x="1359.2965" y="-426.0203" font-family="Times,serif" font-size="14.00" fill="#000000">Height(4)</text>
<text text-anchor="middle" x="1359.2965" y="-411.0203" font-family="Times,serif" font-size="14.00" fill="#000000">id(33)</text>
</g>
<!-- x_10=?
id(18) -->
<g id="node2" class="node">
<title>x_10=?
id(18)</title>
<polygon fill="none" stroke="#000000" points="1084.2965,-352.2203 1014.2965,-352.2203 1014.2965,-314.2203 1084.2965,-314.2203 1084.2965,-352.2203"/>
<text text-anchor="middle" x="1049.2965" y="-337.0203" font-family="Times,serif" font-size="14.00" fill="#000000">x_10=?</text>
<text text-anchor="middle" x="1049.2965" y="-322.0203" font-family="Times,serif" font-size="14.00" fill="#000000">id(18)</text>
</g>
<!-- x_3=?
Height(4)
id(33)&#45;&gt;x_10=?
id(18) -->
<g id="edge1" class="edge">
<title>x_3=?
Height(4)
id(33)&#45;&gt;x_10=?
id(18)</title>
<path fill="none" stroke="#000000" d="M1316.1923,-416.3024C1257.6886,-398.0908 1153.6452,-365.7031 1094.2162,-347.2034"/>
<polygon fill="#000000" stroke="#000000" points="1094.9559,-343.7681 1084.3675,-344.1376 1092.8753,-350.4517 1094.9559,-343.7681"/>
<text text-anchor="middle" x="1218.7965" y="-374.0203" font-family="Times,serif" font-size="14.00" fill="#000000">y</text>
</g>
<!-- x_11=?
id(25) -->
<g id="node21" class="node">
<title>x_11=?
id(25)</title>
<polygon fill="none" stroke="#000000" points="1394.2965,-352.2203 1324.2965,-352.2203 1324.2965,-314.2203 1394.2965,-314.2203 1394.2965,-352.2203"/>
<text text-anchor="middle" x="1359.2965" y="-337.0203" font-family="Times,serif" font-size="14.00" fill="#000000">x_11=?</text>
<text text-anchor="middle" x="1359.2965" y="-322.0203" font-family="Times,serif" font-size="14.00" fill="#000000">id(25)</text>
</g>
<!-- x_3=?
Height(4)
id(33)&#45;&gt;x_11=?
id(25) -->
<g id="edge2" class="edge">
<title>x_3=?
Height(4)
id(33)&#45;&gt;x_11=?
id(25)</title>
<path fill="none" stroke="#000000" d="M1359.2965,-403.0958C1359.2965,-390.5436 1359.2965,-375.5293 1359.2965,-362.6409"/>
<polygon fill="#000000" stroke="#000000" points="1362.7966,-362.4154 1359.2965,-352.4155 1355.7966,-362.4155 1362.7966,-362.4154"/>
<text text-anchor="middle" x="1364.2965" y="-374.0203" font-family="Times,serif" font-size="14.00" fill="#000000">n</text>
</g>
<!-- x_8=?
id(32) -->
<g id="node28" class="node">
<title>x_8=?
id(32)</title>
<polygon fill="none" stroke="#000000" points="1943.7965,-352.2203 1882.7965,-352.2203 1882.7965,-314.2203 1943.7965,-314.2203 1943.7965,-352.2203"/>
<text text-anchor="middle" x="1913.2965" y="-337.0203" font-family="Times,serif" font-size="14.00" fill="#000000">x_8=?</text>
<text text-anchor="middle" x="1913.2965" y="-322.0203" font-family="Times,serif" font-size="14.00" fill="#000000">id(32)</text>
</g>
<!-- x_3=?
Height(4)
id(33)&#45;&gt;x_8=?
id(32) -->
<g id="edge3" class="edge">
<title>x_3=?
Height(4)
id(33)&#45;&gt;x_8=?
id(32)</title>
<path fill="none" stroke="#000000" d="M1402.3069,-422.2285C1506.5205,-404.0757 1771.4088,-357.9354 1872.8887,-340.2589"/>
<polygon fill="#000000" stroke="#000000" points="1873.5019,-343.7049 1882.7529,-338.5407 1872.3006,-336.8087 1873.5019,-343.7049"/>
<text text-anchor="middle" x="1691.2965" y="-374.0203" font-family="Times,serif" font-size="14.00" fill="#000000">u</text>
</g>
<!-- x_14=?
id(6) -->
<g id="node3" class="node">
<title>x_14=?
id(6)</title>
<polygon fill="none" stroke="#000000" points="432.2965,-255.3503 362.2965,-255.3503 362.2965,-217.3503 432.2965,-217.3503 432.2965,-255.3503"/>
<text text-anchor="middle" x="397.2965" y="-240.1503" font-family="Times,serif" font-size="14.00" fill="#000000">x_14=?</text>
<text text-anchor="middle" x="397.2965" y="-225.1503" font-family="Times,serif" font-size="14.00" fill="#000000">id(6)</text>
</g>
<!-- x_10=?
id(18)&#45;&gt;x_14=?
id(6) -->
<g id="edge4" class="edge">
<title>x_10=?
id(18)&#45;&gt;x_14=?
id(6)</title>
<path fill="none" stroke="#000000" d="M1014.2421,-328.0122C904.2396,-311.6687 565.8957,-261.3997 442.7337,-243.1011"/>
<polygon fill="#000000" stroke="#000000" points="442.93,-239.5919 432.5241,-241.5842 441.9012,-246.5159 442.93,-239.5919"/>
<text text-anchor="middle" x="786.7965" y="-285.0203" font-family="Times,serif" font-size="14.00" fill="#000000">y</text>
</g>
<!-- x_14=?
id(16) -->
<g id="node10" class="node">
<title>x_14=?
id(16)</title>
<polygon fill="none" stroke="#000000" points="978.2965,-255.3503 908.2965,-255.3503 908.2965,-217.3503 978.2965,-217.3503 978.2965,-255.3503"/>
<text text-anchor="middle" x="943.2965" y="-240.1503" font-family="Times,serif" font-size="14.00" fill="#000000">x_14=?</text>
<text text-anchor="middle" x="943.2965" y="-225.1503" font-family="Times,serif" font-size="14.00" fill="#000000">id(16)</text>
</g>
<!-- x_10=?
id(18)&#45;&gt;x_14=?
id(16) -->
<g id="edge5" class="edge">
<title>x_10=?
id(18)&#45;&gt;x_14=?
id(16)</title>
<path fill="none" stroke="#000000" d="M1028.3543,-314.0819C1012.2391,-299.3548 989.7901,-278.8393 972.0011,-262.5825"/>
<polygon fill="#000000" stroke="#000000" points="973.9381,-259.6113 964.1951,-255.4489 969.2159,-264.7786 973.9381,-259.6113"/>
<text text-anchor="middle" x="1011.2965" y="-285.0203" font-family="Times,serif" font-size="14.00" fill="#000000">n</text>
</g>
<!-- republican.
id(17) -->
<g id="node20" class="node">
<title>republican.
id(17)</title>
<ellipse fill="none" stroke="#000000" cx="1065.2965" cy="-236.3503" rx="69.0935" ry="26.7407"/>
<text text-anchor="middle" x="1065.2965" y="-240.1503" font-family="Times,serif" font-size="14.00" fill="#000000">republican.</text>
<text text-anchor="middle" x="1065.2965" y="-225.1503" font-family="Times,serif" font-size="14.00" fill="#000000">id(17)</text>
</g>
<!-- x_10=?
id(18)&#45;&gt;republican.
id(17) -->
<g id="edge6" class="edge">
<title>x_10=?
id(18)&#45;&gt;republican.
id(17)</title>
<path fill="none" stroke="#000000" d="M1052.4575,-314.0819C1054.359,-302.5701 1056.8445,-287.5214 1059.1217,-273.7346"/>
<polygon fill="#000000" stroke="#000000" points="1062.6328,-273.9539 1060.8093,-263.5172 1055.7264,-272.8131 1062.6328,-273.9539"/>
<text text-anchor="middle" x="1063.2965" y="-285.0203" font-family="Times,serif" font-size="14.00" fill="#000000">u</text>
</g>
<!-- democrat.
id(0) -->
<g id="node4" class="node">
<title>democrat.
id(0)</title>
<ellipse fill="none" stroke="#000000" cx="175.2965" cy="-131.6102" rx="62.8651" ry="26.7407"/>
<text text-anchor="middle" x="175.2965" y="-135.4102" font-family="Times,serif" font-size="14.00" fill="#000000">democrat.</text>
<text text-anchor="middle" x="175.2965" y="-120.4102" font-family="Times,serif" font-size="14.00" fill="#000000">id(0)</text>
</g>
<!-- x_14=?
id(6)&#45;&gt;democrat.
id(0) -->
<g id="edge7" class="edge">
<title>x_14=?
id(6)&#45;&gt;democrat.
id(0)</title>
<path fill="none" stroke="#000000" d="M362.1199,-219.7539C325.7471,-202.5931 268.5673,-175.6155 227.0408,-156.0233"/>
<polygon fill="#000000" stroke="#000000" points="228.4407,-152.8138 217.9032,-151.7121 225.4537,-159.1446 228.4407,-152.8138"/>
<text text-anchor="middle" x="304.7965" y="-180.2802" font-family="Times,serif" font-size="14.00" fill="#000000">y</text>
</g>
<!-- x_11=?
id(4) -->
<g id="node5" class="node">
<title>x_11=?
id(4)</title>
<polygon fill="none" stroke="#000000" points="326.2965,-150.6102 256.2965,-150.6102 256.2965,-112.6102 326.2965,-112.6102 326.2965,-150.6102"/>
<text text-anchor="middle" x="291.2965" y="-135.4102" font-family="Times,serif" font-size="14.00" fill="#000000">x_11=?</text>
<text text-anchor="middle" x="291.2965" y="-120.4102" font-family="Times,serif" font-size="14.00" fill="#000000">id(4)</text>
</g>
<!-- x_14=?
id(6)&#45;&gt;x_11=?
id(4) -->
<g id="edge8" class="edge">
<title>x_14=?
id(6)&#45;&gt;x_11=?
id(4)</title>
<path fill="none" stroke="#000000" d="M377.8544,-217.1393C361.1193,-200.6032 336.8012,-176.574 318.1989,-158.1929"/>
<polygon fill="#000000" stroke="#000000" points="320.1885,-155.2384 310.6152,-150.6993 315.2684,-160.2177 320.1885,-155.2384"/>
<text text-anchor="middle" x="356.2965" y="-180.2802" font-family="Times,serif" font-size="14.00" fill="#000000">n</text>
</g>
<!-- republican.
id(5) -->
<g id="node9" class="node">
<title>republican.
id(5)</title>
<ellipse fill="none" stroke="#000000" cx="413.2965" cy="-131.6102" rx="69.0935" ry="26.7407"/>
<text text-anchor="middle" x="413.2965" y="-135.4102" font-family="Times,serif" font-size="14.00" fill="#000000">republican.</text>
<text text-anchor="middle" x="413.2965" y="-120.4102" font-family="Times,serif" font-size="14.00" fill="#000000">id(5)</text>
</g>
<!-- x_14=?
id(6)&#45;&gt;republican.
id(5) -->
<g id="edge9" class="edge">
<title>x_14=?
id(6)&#45;&gt;republican.
id(5)</title>
<path fill="none" stroke="#000000" d="M400.2311,-217.1393C402.2885,-203.6714 405.1051,-185.2331 407.5964,-168.924"/>
<polygon fill="#000000" stroke="#000000" points="411.1251,-169.0015 409.1754,-158.5876 404.2054,-167.9444 411.1251,-169.0015"/>
<text text-anchor="middle" x="411.2965" y="-180.2802" font-family="Times,serif" font-size="14.00" fill="#000000">u</text>
</g>
<!-- republican.
id(1) -->
<g id="node6" class="node">
<title>republican.
id(1)</title>
<ellipse fill="none" stroke="#000000" cx="69.2965" cy="-26.8701" rx="69.0935" ry="26.7407"/>
<text text-anchor="middle" x="69.2965" y="-30.6701" font-family="Times,serif" font-size="14.00" fill="#000000">republican.</text>
<text text-anchor="middle" x="69.2965" y="-15.6701" font-family="Times,serif" font-size="14.00" fill="#000000">id(1)</text>
</g>
<!-- x_11=?
id(4)&#45;&gt;republican.
id(1) -->
<g id="edge10" class="edge">
<title>x_11=?
id(4)&#45;&gt;republican.
id(1)</title>
<path fill="none" stroke="#000000" d="M261.3111,-112.5577C256.6768,-109.8299 251.9004,-107.1388 247.2965,-104.7401 208.3324,-84.4395 162.9375,-64.6378 127.743,-50.0828"/>
<polygon fill="#000000" stroke="#000000" points="128.6805,-46.6841 118.1006,-46.1207 126.0199,-53.1588 128.6805,-46.6841"/>
<text text-anchor="middle" x="213.7965" y="-75.5401" font-family="Times,serif" font-size="14.00" fill="#000000">y</text>
</g>
<!-- democrat.
id(2) -->
<g id="node7" class="node">
<title>democrat.
id(2)</title>
<ellipse fill="none" stroke="#000000" cx="219.2965" cy="-26.8701" rx="62.8651" ry="26.7407"/>
<text text-anchor="middle" x="219.2965" y="-30.6701" font-family="Times,serif" font-size="14.00" fill="#000000">democrat.</text>
<text text-anchor="middle" x="219.2965" y="-15.6701" font-family="Times,serif" font-size="14.00" fill="#000000">id(2)</text>
</g>
<!-- x_11=?
id(4)&#45;&gt;democrat.
id(2) -->
<g id="edge11" class="edge">
<title>x_11=?
id(4)&#45;&gt;democrat.
id(2)</title>
<path fill="none" stroke="#000000" d="M278.0906,-112.3992C268.2724,-98.1165 254.6116,-78.2438 242.9289,-61.2487"/>
<polygon fill="#000000" stroke="#000000" points="245.5798,-58.9265 237.0307,-52.6685 239.8113,-62.8919 245.5798,-58.9265"/>
<text text-anchor="middle" x="265.2965" y="-75.5401" font-family="Times,serif" font-size="14.00" fill="#000000">n</text>
</g>
<!-- democrat.
id(3) -->
<g id="node8" class="node">
<title>democrat.
id(3)</title>
<ellipse fill="none" stroke="#000000" cx="363.2965" cy="-26.8701" rx="62.8651" ry="26.7407"/>
<text text-anchor="middle" x="363.2965" y="-30.6701" font-family="Times,serif" font-size="14.00" fill="#000000">democrat.</text>
<text text-anchor="middle" x="363.2965" y="-15.6701" font-family="Times,serif" font-size="14.00" fill="#000000">id(3)</text>
</g>
<!-- x_11=?
id(4)&#45;&gt;democrat.
id(3) -->
<g id="edge12" class="edge">
<title>x_11=?
id(4)&#45;&gt;democrat.
id(3)</title>
<path fill="none" stroke="#000000" d="M304.5024,-112.3992C314.3206,-98.1165 327.9814,-78.2438 339.6641,-61.2487"/>
<polygon fill="#000000" stroke="#000000" points="342.7816,-62.8919 345.5622,-52.6685 337.0131,-58.9265 342.7816,-62.8919"/>
<text text-anchor="middle" x="337.2965" y="-75.5401" font-family="Times,serif" font-size="14.00" fill="#000000">u</text>
</g>
<!-- x_9=?
id(10) -->
<g id="node11" class="node">
<title>x_9=?
id(10)</title>
<polygon fill="none" stroke="#000000" points="779.7965,-150.6102 718.7965,-150.6102 718.7965,-112.6102 779.7965,-112.6102 779.7965,-150.6102"/>
<text text-anchor="middle" x="749.2965" y="-135.4102" font-family="Times,serif" font-size="14.00" fill="#000000">x_9=?</text>
<text text-anchor="middle" x="749.2965" y="-120.4102" font-family="Times,serif" font-size="14.00" fill="#000000">id(10)</text>
</g>
<!-- x_14=?
id(16)&#45;&gt;x_9=?
id(10) -->
<g id="edge13" class="edge">
<title>x_14=?
id(16)&#45;&gt;x_9=?
id(10)</title>
<path fill="none" stroke="#000000" d="M908.1645,-217.3826C874.5864,-199.2539 824.0324,-171.9599 789.008,-153.0503"/>
<polygon fill="#000000" stroke="#000000" points="790.476,-149.8654 780.0137,-148.1944 787.1504,-156.025 790.476,-149.8654"/>
<text text-anchor="middle" x="862.7965" y="-180.2802" font-family="Times,serif" font-size="14.00" fill="#000000">y</text>
</g>
<!-- x_2=?
id(14) -->
<g id="node15" class="node">
<title>x_2=?
id(14)</title>
<polygon fill="none" stroke="#000000" points="1014.7965,-150.6102 953.7965,-150.6102 953.7965,-112.6102 1014.7965,-112.6102 1014.7965,-150.6102"/>
<text text-anchor="middle" x="984.2965" y="-135.4102" font-family="Times,serif" font-size="14.00" fill="#000000">x_2=?</text>
<text text-anchor="middle" x="984.2965" y="-120.4102" font-family="Times,serif" font-size="14.00" fill="#000000">id(14)</text>
</g>
<!-- x_14=?
id(16)&#45;&gt;x_2=?
id(14) -->
<g id="edge14" class="edge">
<title>x_14=?
id(16)&#45;&gt;x_2=?
id(14)</title>
<path fill="none" stroke="#000000" d="M950.8165,-217.1393C957.0583,-201.1937 966.0275,-178.2808 973.1117,-160.1833"/>
<polygon fill="#000000" stroke="#000000" points="976.4381,-161.2871 976.8241,-150.6993 969.9197,-158.7355 976.4381,-161.2871"/>
<text text-anchor="middle" x="971.2965" y="-180.2802" font-family="Times,serif" font-size="14.00" fill="#000000">n</text>
</g>
<!-- republican.
id(15) -->
<g id="node19" class="node">
<title>republican.
id(15)</title>
<ellipse fill="none" stroke="#000000" cx="1102.2965" cy="-131.6102" rx="69.0935" ry="26.7407"/>
<text text-anchor="middle" x="1102.2965" y="-135.4102" font-family="Times,serif" font-size="14.00" fill="#000000">republican.</text>
<text text-anchor="middle" x="1102.2965" y="-120.4102" font-family="Times,serif" font-size="14.00" fill="#000000">id(15)</text>
</g>
<!-- x_14=?
id(16)&#45;&gt;republican.
id(15) -->
<g id="edge15" class="edge">
<title>x_14=?
id(16)&#45;&gt;republican.
id(15)</title>
<path fill="none" stroke="#000000" d="M972.4595,-217.1393C996.486,-201.3121 1030.9327,-178.6206 1058.3083,-160.587"/>
<polygon fill="#000000" stroke="#000000" points="1060.5004,-163.3342 1066.9259,-154.9103 1056.6496,-157.4886 1060.5004,-163.3342"/>
<text text-anchor="middle" x="1038.2965" y="-180.2802" font-family="Times,serif" font-size="14.00" fill="#000000">u</text>
</g>
<!-- republican.
id(7) -->
<g id="node12" class="node">
<title>republican.
id(7)</title>
<ellipse fill="none" stroke="#000000" cx="513.2965" cy="-26.8701" rx="69.0935" ry="26.7407"/>
<text text-anchor="middle" x="513.2965" y="-30.6701" font-family="Times,serif" font-size="14.00" fill="#000000">republican.</text>
<text text-anchor="middle" x="513.2965" y="-15.6701" font-family="Times,serif" font-size="14.00" fill="#000000">id(7)</text>
</g>
<!-- x_9=?
id(10)&#45;&gt;republican.
id(7) -->
<g id="edge16" class="edge">
<title>x_9=?
id(10)&#45;&gt;republican.
id(7)</title>
<path fill="none" stroke="#000000" d="M718.4436,-117.9172C680.4544,-101.0571 615.2378,-72.113 568.5292,-51.3831"/>
<polygon fill="#000000" stroke="#000000" points="569.714,-48.0798 559.1539,-47.2222 566.8743,-54.478 569.714,-48.0798"/>
<text text-anchor="middle" x="650.7965" y="-75.5401" font-family="Times,serif" font-size="14.00" fill="#000000">y</text>
</g>
<!-- republican.
id(8) -->
<g id="node13" class="node">
<title>republican.
id(8)</title>
<ellipse fill="none" stroke="#000000" cx="670.2965" cy="-26.8701" rx="69.0935" ry="26.7407"/>
<text text-anchor="middle" x="670.2965" y="-30.6701" font-family="Times,serif" font-size="14.00" fill="#000000">republican.</text>
<text text-anchor="middle" x="670.2965" y="-15.6701" font-family="Times,serif" font-size="14.00" fill="#000000">id(8)</text>
</g>
<!-- x_9=?
id(10)&#45;&gt;republican.
id(8) -->
<g id="edge17" class="edge">
<title>x_9=?
id(10)&#45;&gt;republican.
id(8)</title>
<path fill="none" stroke="#000000" d="M734.8066,-112.3992C723.9351,-97.9854 708.7696,-77.8787 695.8742,-60.7817"/>
<polygon fill="#000000" stroke="#000000" points="698.5709,-58.5446 689.7549,-52.6685 692.9823,-62.7598 698.5709,-58.5446"/>
<text text-anchor="middle" x="720.2965" y="-75.5401" font-family="Times,serif" font-size="14.00" fill="#000000">n</text>
</g>
<!-- republican.
id(9) -->
<g id="node14" class="node">
<title>republican.
id(9)</title>
<ellipse fill="none" stroke="#000000" cx="827.2965" cy="-26.8701" rx="69.0935" ry="26.7407"/>
<text text-anchor="middle" x="827.2965" y="-30.6701" font-family="Times,serif" font-size="14.00" fill="#000000">republican.</text>
<text text-anchor="middle" x="827.2965" y="-15.6701" font-family="Times,serif" font-size="14.00" fill="#000000">id(9)</text>
</g>
<!-- x_9=?
id(10)&#45;&gt;republican.
id(9) -->
<g id="edge18" class="edge">
<title>x_9=?
id(10)&#45;&gt;republican.
id(9)</title>
<path fill="none" stroke="#000000" d="M763.6029,-112.3992C774.2612,-98.0869 789.0997,-78.1616 801.7732,-61.1433"/>
<polygon fill="#000000" stroke="#000000" points="804.6273,-63.1706 807.793,-53.0597 799.0131,-58.9896 804.6273,-63.1706"/>
<text text-anchor="middle" x="798.2965" y="-75.5401" font-family="Times,serif" font-size="14.00" fill="#000000">u</text>
</g>
<!-- republican.
id(11) -->
<g id="node16" class="node">
<title>republican.
id(11)</title>
<ellipse fill="none" stroke="#000000" cx="984.2965" cy="-26.8701" rx="69.0935" ry="26.7407"/>
<text text-anchor="middle" x="984.2965" y="-30.6701" font-family="Times,serif" font-size="14.00" fill="#000000">republican.</text>
<text text-anchor="middle" x="984.2965" y="-15.6701" font-family="Times,serif" font-size="14.00" fill="#000000">id(11)</text>
</g>
<!-- x_2=?
id(14)&#45;&gt;republican.
id(11) -->
<g id="edge19" class="edge">
<title>x_2=?
id(14)&#45;&gt;republican.
id(11)</title>
<path fill="none" stroke="#000000" d="M984.2965,-112.3992C984.2965,-98.9313 984.2965,-80.493 984.2965,-64.1838"/>
<polygon fill="#000000" stroke="#000000" points="987.7966,-63.8475 984.2965,-53.8475 980.7966,-63.8475 987.7966,-63.8475"/>
<text text-anchor="middle" x="988.7965" y="-75.5401" font-family="Times,serif" font-size="14.00" fill="#000000">y</text>
</g>
<!-- republican.
id(12) -->
<g id="node17" class="node">
<title>republican.
id(12)</title>
<ellipse fill="none" stroke="#000000" cx="1141.2965" cy="-26.8701" rx="69.0935" ry="26.7407"/>
<text text-anchor="middle" x="1141.2965" y="-30.6701" font-family="Times,serif" font-size="14.00" fill="#000000">republican.</text>
<text text-anchor="middle" x="1141.2965" y="-15.6701" font-family="Times,serif" font-size="14.00" fill="#000000">id(12)</text>
</g>
<!-- x_2=?
id(14)&#45;&gt;republican.
id(12) -->
<g id="edge20" class="edge">
<title>x_2=?
id(14)&#45;&gt;republican.
id(12)</title>
<path fill="none" stroke="#000000" d="M1012.6934,-112.5127C1016.5902,-109.8984 1020.5411,-107.2512 1024.2965,-104.7401 1048.5598,-88.5164 1075.694,-70.4522 1097.7185,-55.8098"/>
<polygon fill="#000000" stroke="#000000" points="1099.8098,-58.6224 1106.2005,-50.1719 1095.9349,-52.7927 1099.8098,-58.6224"/>
<text text-anchor="middle" x="1078.2965" y="-75.5401" font-family="Times,serif" font-size="14.00" fill="#000000">n</text>
</g>
<!-- republican.
id(13) -->
<g id="node18" class="node">
<title>republican.
id(13)</title>
<ellipse fill="none" stroke="#000000" cx="1298.2965" cy="-26.8701" rx="69.0935" ry="26.7407"/>
<text text-anchor="middle" x="1298.2965" y="-30.6701" font-family="Times,serif" font-size="14.00" fill="#000000">republican.</text>
<text text-anchor="middle" x="1298.2965" y="-15.6701" font-family="Times,serif" font-size="14.00" fill="#000000">id(13)</text>
</g>
<!-- x_2=?
id(14)&#45;&gt;republican.
id(13) -->
<g id="edge21" class="edge">
<title>x_2=?
id(14)&#45;&gt;republican.
id(13)</title>
<path fill="none" stroke="#000000" d="M1010.2483,-112.3785C1014.784,-109.5479 1019.5682,-106.8724 1024.2965,-104.7401 1044.7119,-95.5333 1197.8479,-60.1834 1219.2965,-53.7401 1224.985,-52.0312 1230.8777,-50.1805 1236.7634,-48.2772"/>
<polygon fill="#000000" stroke="#000000" points="1238.2149,-51.4846 1246.6245,-45.0403 1236.0317,-44.8337 1238.2149,-51.4846"/>
<text text-anchor="middle" x="1152.2965" y="-75.5401" font-family="Times,serif" font-size="14.00" fill="#000000">u</text>
</g>
<!-- democrat.
id(19) -->
<g id="node22" class="node">
<title>democrat.
id(19)</title>
<ellipse fill="none" stroke="#000000" cx="1215.2965" cy="-236.3503" rx="62.8651" ry="26.7407"/>
<text text-anchor="middle" x="1215.2965" y="-240.1503" font-family="Times,serif" font-size="14.00" fill="#000000">democrat.</text>
<text text-anchor="middle" x="1215.2965" y="-225.1503" font-family="Times,serif" font-size="14.00" fill="#000000">id(19)</text>
</g>
<!-- x_11=?
id(25)&#45;&gt;democrat.
id(19) -->
<g id="edge22" class="edge">
<title>x_11=?
id(25)&#45;&gt;democrat.
id(19)</title>
<path fill="none" stroke="#000000" d="M1330.8467,-314.0819C1309.9687,-300.0371 1281.2651,-280.728 1257.6897,-264.8686"/>
<polygon fill="#000000" stroke="#000000" points="1259.5109,-261.8755 1249.26,-259.1979 1255.6038,-267.6836 1259.5109,-261.8755"/>
<text text-anchor="middle" x="1304.7965" y="-285.0203" font-family="Times,serif" font-size="14.00" fill="#000000">y</text>
</g>
<!-- democrat.
id(20) -->
<g id="node23" class="node">
<title>democrat.
id(20)</title>
<ellipse fill="none" stroke="#000000" cx="1359.2965" cy="-236.3503" rx="62.8651" ry="26.7407"/>
<text text-anchor="middle" x="1359.2965" y="-240.1503" font-family="Times,serif" font-size="14.00" fill="#000000">democrat.</text>
<text text-anchor="middle" x="1359.2965" y="-225.1503" font-family="Times,serif" font-size="14.00" fill="#000000">id(20)</text>
</g>
<!-- x_11=?
id(25)&#45;&gt;democrat.
id(20) -->
<g id="edge23" class="edge">
<title>x_11=?
id(25)&#45;&gt;democrat.
id(20)</title>
<path fill="none" stroke="#000000" d="M1359.2965,-314.0819C1359.2965,-302.5701 1359.2965,-287.5214 1359.2965,-273.7346"/>
<polygon fill="#000000" stroke="#000000" points="1362.7966,-273.5172 1359.2965,-263.5172 1355.7966,-273.5172 1362.7966,-273.5172"/>
<text text-anchor="middle" x="1364.2965" y="-285.0203" font-family="Times,serif" font-size="14.00" fill="#000000">n</text>
</g>
<!-- x_2=?
id(24) -->
<g id="node24" class="node">
<title>x_2=?
id(24)</title>
<polygon fill="none" stroke="#000000" points="1500.7965,-255.3503 1439.7965,-255.3503 1439.7965,-217.3503 1500.7965,-217.3503 1500.7965,-255.3503"/>
<text text-anchor="middle" x="1470.2965" y="-240.1503" font-family="Times,serif" font-size="14.00" fill="#000000">x_2=?</text>
<text text-anchor="middle" x="1470.2965" y="-225.1503" font-family="Times,serif" font-size="14.00" fill="#000000">id(24)</text>
</g>
<!-- x_11=?
id(25)&#45;&gt;x_2=?
id(24) -->
<g id="edge24" class="edge">
<title>x_11=?
id(25)&#45;&gt;x_2=?
id(24)</title>
<path fill="none" stroke="#000000" d="M1381.2265,-314.0819C1398.2538,-299.2221 1422.0339,-278.4692 1440.7401,-262.1442"/>
<polygon fill="#000000" stroke="#000000" points="1443.179,-264.6612 1448.412,-255.4489 1438.5763,-259.3872 1443.179,-264.6612"/>
<text text-anchor="middle" x="1423.2965" y="-285.0203" font-family="Times,serif" font-size="14.00" fill="#000000">u</text>
</g>
<!-- democrat.
id(21) -->
<g id="node25" class="node">
<title>democrat.
id(21)</title>
<ellipse fill="none" stroke="#000000" cx="1306.2965" cy="-131.6102" rx="62.8651" ry="26.7407"/>
<text text-anchor="middle" x="1306.2965" y="-135.4102" font-family="Times,serif" font-size="14.00" fill="#000000">democrat.</text>
<text text-anchor="middle" x="1306.2965" y="-120.4102" font-family="Times,serif" font-size="14.00" fill="#000000">id(21)</text>
</g>
<!-- x_2=?
id(24)&#45;&gt;democrat.
id(21) -->
<g id="edge25" class="edge">
<title>x_2=?
id(24)&#45;&gt;democrat.
id(21)</title>
<path fill="none" stroke="#000000" d="M1442.7064,-217.109C1438.892,-214.517 1435.0099,-211.9143 1431.2965,-209.4802 1405.0146,-192.2533 1375.1565,-173.6188 1351.2139,-158.8991"/>
<polygon fill="#000000" stroke="#000000" points="1353.0323,-155.9086 1342.6781,-153.6631 1349.372,-161.8754 1353.0323,-155.9086"/>
<text text-anchor="middle" x="1405.7965" y="-180.2802" font-family="Times,serif" font-size="14.00" fill="#000000">y</text>
</g>
<!-- republican.
id(22) -->
<g id="node26" class="node">
<title>republican.
id(22)</title>
<ellipse fill="none" stroke="#000000" cx="1456.2965" cy="-131.6102" rx="69.0935" ry="26.7407"/>
<text text-anchor="middle" x="1456.2965" y="-135.4102" font-family="Times,serif" font-size="14.00" fill="#000000">republican.</text>
<text text-anchor="middle" x="1456.2965" y="-120.4102" font-family="Times,serif" font-size="14.00" fill="#000000">id(22)</text>
</g>
<!-- x_2=?
id(24)&#45;&gt;republican.
id(22) -->
<g id="edge26" class="edge">
<title>x_2=?
id(24)&#45;&gt;republican.
id(22)</title>
<path fill="none" stroke="#000000" d="M1467.7286,-217.1393C1465.9285,-203.6714 1463.4639,-185.2331 1461.284,-168.924"/>
<polygon fill="#000000" stroke="#000000" points="1464.6965,-168.0357 1459.9024,-158.5876 1457.7582,-168.9632 1464.6965,-168.0357"/>
<text text-anchor="middle" x="1469.2965" y="-180.2802" font-family="Times,serif" font-size="14.00" fill="#000000">n</text>
</g>
<!-- republican.
id(23) -->
<g id="node27" class="node">
<title>republican.
id(23)</title>
<ellipse fill="none" stroke="#000000" cx="1613.2965" cy="-131.6102" rx="69.0935" ry="26.7407"/>
<text text-anchor="middle" x="1613.2965" y="-135.4102" font-family="Times,serif" font-size="14.00" fill="#000000">republican.</text>
<text text-anchor="middle" x="1613.2965" y="-120.4102" font-family="Times,serif" font-size="14.00" fill="#000000">id(23)</text>
</g>
<!-- x_2=?
id(24)&#45;&gt;republican.
id(23) -->
<g id="edge27" class="edge">
<title>x_2=?
id(24)&#45;&gt;republican.
id(23)</title>
<path fill="none" stroke="#000000" d="M1496.5249,-217.1393C1517.7301,-201.6076 1547.9603,-179.4655 1572.3491,-161.602"/>
<polygon fill="#000000" stroke="#000000" points="1574.7085,-164.2123 1580.7078,-155.4797 1570.5722,-158.5651 1574.7085,-164.2123"/>
<text text-anchor="middle" x="1556.2965" y="-180.2802" font-family="Times,serif" font-size="14.00" fill="#000000">u</text>
</g>
<!-- x_6=?
id(29) -->
<g id="node29" class="node">
<title>x_6=?
id(29)</title>
<polygon fill="none" stroke="#000000" points="1868.7965,-255.3503 1807.7965,-255.3503 1807.7965,-217.3503 1868.7965,-217.3503 1868.7965,-255.3503"/>
<text text-anchor="middle" x="1838.2965" y="-240.1503" font-family="Times,serif" font-size="14.00" fill="#000000">x_6=?</text>
<text text-anchor="middle" x="1838.2965" y="-225.1503" font-family="Times,serif" font-size="14.00" fill="#000000">id(29)</text>
</g>
<!-- x_8=?
id(32)&#45;&gt;x_6=?
id(29) -->
<g id="edge28" class="edge">
<title>x_8=?
id(32)&#45;&gt;x_6=?
id(29)</title>
<path fill="none" stroke="#000000" d="M1898.4789,-314.0819C1887.2821,-299.6202 1871.7638,-279.5768 1859.2898,-263.4654"/>
<polygon fill="#000000" stroke="#000000" points="1861.9727,-261.2134 1853.0833,-255.4489 1856.4377,-265.4987 1861.9727,-261.2134"/>
<text text-anchor="middle" x="1887.7965" y="-285.0203" font-family="Times,serif" font-size="14.00" fill="#000000">y</text>
</g>
<!-- democrat.
id(30) -->
<g id="node33" class="node">
<title>democrat.
id(30)</title>
<ellipse fill="none" stroke="#000000" cx="1949.2965" cy="-236.3503" rx="62.8651" ry="26.7407"/>
<text text-anchor="middle" x="1949.2965" y="-240.1503" font-family="Times,serif" font-size="14.00" fill="#000000">democrat.</text>
<text text-anchor="middle" x="1949.2965" y="-225.1503" font-family="Times,serif" font-size="14.00" fill="#000000">id(30)</text>
</g>
<!-- x_8=?
id(32)&#45;&gt;democrat.
id(30) -->
<g id="edge29" class="edge">
<title>x_8=?
id(32)&#45;&gt;democrat.
id(30)</title>
<path fill="none" stroke="#000000" d="M1920.4089,-314.0819C1924.8043,-302.2547 1930.587,-286.6944 1935.8232,-272.6046"/>
<polygon fill="#000000" stroke="#000000" points="1939.1343,-273.742 1939.3372,-263.1491 1932.5728,-271.3035 1939.1343,-273.742"/>
<text text-anchor="middle" x="1938.2965" y="-285.0203" font-family="Times,serif" font-size="14.00" fill="#000000">n</text>
</g>
<!-- republican.
id(31) -->
<g id="node34" class="node">
<title>republican.
id(31)</title>
<ellipse fill="none" stroke="#000000" cx="2099.2965" cy="-236.3503" rx="69.0935" ry="26.7407"/>
<text text-anchor="middle" x="2099.2965" y="-240.1503" font-family="Times,serif" font-size="14.00" fill="#000000">republican.</text>
<text text-anchor="middle" x="2099.2965" y="-225.1503" font-family="Times,serif" font-size="14.00" fill="#000000">id(31)</text>
</g>
<!-- x_8=?
id(32)&#45;&gt;republican.
id(31) -->
<g id="edge30" class="edge">
<title>x_8=?
id(32)&#45;&gt;republican.
id(31)</title>
<path fill="none" stroke="#000000" d="M1944.0106,-317.2242C1972.3994,-302.4392 2015.1188,-280.1906 2048.5695,-262.7692"/>
<polygon fill="#000000" stroke="#000000" points="2050.4864,-265.7172 2057.739,-257.9937 2047.253,-259.5087 2050.4864,-265.7172"/>
<text text-anchor="middle" x="2017.2965" y="-285.0203" font-family="Times,serif" font-size="14.00" fill="#000000">u</text>
</g>
<!-- democrat.
id(26) -->
<g id="node30" class="node">
<title>democrat.
id(26)</title>
<ellipse fill="none" stroke="#000000" cx="1763.2965" cy="-131.6102" rx="62.8651" ry="26.7407"/>
<text text-anchor="middle" x="1763.2965" y="-135.4102" font-family="Times,serif" font-size="14.00" fill="#000000">democrat.</text>
<text text-anchor="middle" x="1763.2965" y="-120.4102" font-family="Times,serif" font-size="14.00" fill="#000000">id(26)</text>
</g>
<!-- x_6=?
id(29)&#45;&gt;democrat.
id(26) -->
<g id="edge31" class="edge">
<title>x_6=?
id(29)&#45;&gt;democrat.
id(26)</title>
<path fill="none" stroke="#000000" d="M1824.5403,-217.1393C1814.313,-202.8566 1800.083,-182.9839 1787.9136,-165.9888"/>
<polygon fill="#000000" stroke="#000000" points="1790.4373,-163.5014 1781.7696,-157.4086 1784.7459,-167.5768 1790.4373,-163.5014"/>
<text text-anchor="middle" x="1809.7965" y="-180.2802" font-family="Times,serif" font-size="14.00" fill="#000000">y</text>
</g>
<!-- republican.
id(27) -->
<g id="node31" class="node">
<title>republican.
id(27)</title>
<ellipse fill="none" stroke="#000000" cx="1913.2965" cy="-131.6102" rx="69.0935" ry="26.7407"/>
<text text-anchor="middle" x="1913.2965" y="-135.4102" font-family="Times,serif" font-size="14.00" fill="#000000">republican.</text>
<text text-anchor="middle" x="1913.2965" y="-120.4102" font-family="Times,serif" font-size="14.00" fill="#000000">id(27)</text>
</g>
<!-- x_6=?
id(29)&#45;&gt;republican.
id(27) -->
<g id="edge32" class="edge">
<title>x_6=?
id(29)&#45;&gt;republican.
id(27)</title>
<path fill="none" stroke="#000000" d="M1852.0526,-217.1393C1862.2079,-202.9572 1876.3097,-183.2635 1888.422,-166.3483"/>
<polygon fill="#000000" stroke="#000000" points="1891.5669,-167.9681 1894.5431,-157.7999 1885.8755,-163.8927 1891.5669,-167.9681"/>
<text text-anchor="middle" x="1885.2965" y="-180.2802" font-family="Times,serif" font-size="14.00" fill="#000000">n</text>
</g>
<!-- democrat.
id(28) -->
<g id="node32" class="node">
<title>democrat.
id(28)</title>
<ellipse fill="none" stroke="#000000" cx="2063.2965" cy="-131.6102" rx="62.8651" ry="26.7407"/>
<text text-anchor="middle" x="2063.2965" y="-135.4102" font-family="Times,serif" font-size="14.00" fill="#000000">democrat.</text>
<text text-anchor="middle" x="2063.2965" y="-120.4102" font-family="Times,serif" font-size="14.00" fill="#000000">id(28)</text>
</g>
<!-- x_6=?
id(29)&#45;&gt;democrat.
id(28) -->
<g id="edge33" class="edge">
<title>x_6=?
id(29)&#45;&gt;democrat.
id(28)</title>
<path fill="none" stroke="#000000" d="M1864.6867,-217.0953C1868.8203,-214.3954 1873.1111,-211.7661 1877.2965,-209.4802 1900.5301,-196.791 1961.2314,-171.9159 2007.0201,-153.6825"/>
<polygon fill="#000000" stroke="#000000" points="2008.5438,-156.8434 2016.5457,-149.8993 2005.9599,-150.3377 2008.5438,-156.8434"/>
<text text-anchor="middle" x="1955.2965" y="-180.2802" font-family="Times,serif" font-size="14.00" fill="#000000">u</text>
</g>
</g>
</svg>
