<?xml version="1.0" encoding="UTF-8" standalone="no"?>
<!DOCTYPE svg PUBLIC "-//W3C//DTD SVG 1.1//EN"
 "http://www.w3.org/Graphics/SVG/1.1/DTD/svg11.dtd">
<!-- Generated by graphviz version 2.40.1 (20161225.0304)
 -->
<!-- Title: tree Pages: 1 -->
<svg width="2594pt" height="569pt"
 viewBox="0.00 0.00 2593.59 568.96" xmlns="http://www.w3.org/2000/svg" xmlns:xlink="http://www.w3.org/1999/xlink">
<g id="graph0" class="graph" transform="scale(1 1) rotate(0) translate(4 564.9605)">
<title>tree</title>
<polygon fill="#ffffff" stroke="transparent" points="-4,4 -4,-564.9605 2589.5929,-564.9605 2589.5929,4 -4,4"/>
<!-- x_3=?
Height(5)
id(45) -->
<g id="node1" class="node">
<title>x_3=?
Height(5)
id(45)</title>
<polygon fill="none" stroke="#000000" points="1819.2965,-560.9605 1733.2965,-560.9605 1733.2965,-507.9605 1819.2965,-507.9605 1819.2965,-560.9605"/>
<text text-anchor="middle" x="1776.2965" y="-545.7605" font-family="Times,serif" font-size="14.00" fill="#000000">x_3=?</text>
<text text-anchor="middle" x="1776.2965" y="-530.7605" font-family="Times,serif" font-size="14.00" fill="#000000">Height(5)</text>
<text text-anchor="middle" x="1776.2965" y="-515.7605" font-family="Times,serif" font-size="14.00" fill="#000000">id(45)</text>
</g>
<!-- x_10=?
id(30) -->
<g id="node2" class="node">
<title>x_10=?
id(30)</title>
<polygon fill="none" stroke="#000000" points="1501.2965,-456.9605 1431.2965,-456.9605 1431.2965,-418.9605 1501.2965,-418.9605 1501.2965,-456.9605"/>
<text text-anchor="middle" x="1466.2965" y="-441.7605" font-family="Times,serif" font-size="14.00" fill="#000000">x_10=?</text>
<text text-anchor="middle" x="1466.2965" y="-426.7605" font-family="Times,serif" font-size="14.00" fill="#000000">id(30)</text>
</g>
<!-- x_3=?
Height(5)
id(45)&#45;&gt;x_10=?
id(30) -->
<g id="edge1" class="edge">
<title>x_3=?
Height(5)
id(45)&#45;&gt;x_10=?
id(30)</title>
<path fill="none" stroke="#000000" d="M1733.1923,-521.0425C1674.6886,-502.8309 1570.6452,-470.4432 1511.2162,-451.9435"/>
<polygon fill="#000000" stroke="#000000" points="1511.9559,-448.5082 1501.3675,-448.8777 1509.8753,-455.1919 1511.9559,-448.5082"/>
<text text-anchor="middle" x="1635.7965" y="-478.7605" font-family="Times,serif" font-size="14.00" fill="#000000">y</text>
</g>
<!-- x_11=?
id(37) -->
<g id="node33" class="node">
<title>x_11=?
id(37)</title>
<polygon fill="none" stroke="#000000" points="1811.2965,-456.9605 1741.2965,-456.9605 1741.2965,-418.9605 1811.2965,-418.9605 1811.2965,-456.9605"/>
<text text-anchor="middle" x="1776.2965" y="-441.7605" font-family="Times,serif" font-size="14.00" fill="#000000">x_11=?</text>
<text text-anchor="middle" x="1776.2965" y="-426.7605" font-family="Times,serif" font-size="14.00" fill="#000000">id(37)</text>
</g>
<!-- x_3=?
Height(5)
id(45)&#45;&gt;x_11=?
id(37) -->
<g id="edge2" class="edge">
<title>x_3=?
Height(5)
id(45)&#45;&gt;x_11=?
id(37)</title>
<path fill="none" stroke="#000000" d="M1776.2965,-507.836C1776.2965,-495.2837 1776.2965,-480.2694 1776.2965,-467.381"/>
<polygon fill="#000000" stroke="#000000" points="1779.7966,-467.1555 1776.2965,-457.1556 1772.7966,-467.1556 1779.7966,-467.1555"/>
<text text-anchor="middle" x="1781.2965" y="-478.7605" font-family="Times,serif" font-size="14.00" fill="#000000">n</text>
</g>
<!-- x_8=?
id(44) -->
<g id="node40" class="node">
<title>x_8=?
id(44)</title>
<polygon fill="none" stroke="#000000" points="2360.7965,-456.9605 2299.7965,-456.9605 2299.7965,-418.9605 2360.7965,-418.9605 2360.7965,-456.9605"/>
<text text-anchor="middle" x="2330.2965" y="-441.7605" font-family="Times,serif" font-size="14.00" fill="#000000">x_8=?</text>
<text text-anchor="middle" x="2330.2965" y="-426.7605" font-family="Times,serif" font-size="14.00" fill="#000000">id(44)</text>
</g>
<!-- x_3=?
Height(5)
id(45)&#45;&gt;x_8=?
id(44) -->
<g id="edge3" class="edge">
<title>x_3=?
Height(5)
id(45)&#45;&gt;x_8=?
id(44)</title>
<path fill="none" stroke="#000000" d="M1819.3069,-526.9686C1923.5205,-508.8158 2188.4088,-462.6755 2289.8887,-444.999"/>
<polygon fill="#000000" stroke="#000000" points="2290.5019,-448.445 2299.7529,-443.2808 2289.3006,-441.5488 2290.5019,-448.445"/>
<text text-anchor="middle" x="2108.2965" y="-478.7605" font-family="Times,serif" font-size="14.00" fill="#000000">u</text>
</g>
<!-- x_14=?
id(12) -->
<g id="node3" class="node">
<title>x_14=?
id(12)</title>
<polygon fill="none" stroke="#000000" points="830.2965,-360.0904 760.2965,-360.0904 760.2965,-322.0904 830.2965,-322.0904 830.2965,-360.0904"/>
<text text-anchor="middle" x="795.2965" y="-344.8904" font-family="Times,serif" font-size="14.00" fill="#000000">x_14=?</text>
<text text-anchor="middle" x="795.2965" y="-329.8904" font-family="Times,serif" font-size="14.00" fill="#000000">id(12)</text>
</g>
<!-- x_10=?
id(30)&#45;&gt;x_14=?
id(12) -->
<g id="edge4" class="edge">
<title>x_10=?
id(30)&#45;&gt;x_14=?
id(12)</title>
<path fill="none" stroke="#000000" d="M1431.1653,-432.8887C1318.5155,-416.6258 966.3704,-365.7878 840.5481,-347.6232"/>
<polygon fill="#000000" stroke="#000000" points="840.8811,-344.1351 830.4836,-346.1702 839.8808,-351.0633 840.8811,-344.1351"/>
<text text-anchor="middle" x="1195.7965" y="-389.7605" font-family="Times,serif" font-size="14.00" fill="#000000">y</text>
</g>
<!-- x_14=?
id(28) -->
<g id="node16" class="node">
<title>x_14=?
id(28)</title>
<polygon fill="none" stroke="#000000" points="1395.2965,-360.0904 1325.2965,-360.0904 1325.2965,-322.0904 1395.2965,-322.0904 1395.2965,-360.0904"/>
<text text-anchor="middle" x="1360.2965" y="-344.8904" font-family="Times,serif" font-size="14.00" fill="#000000">x_14=?</text>
<text text-anchor="middle" x="1360.2965" y="-329.8904" font-family="Times,serif" font-size="14.00" fill="#000000">id(28)</text>
</g>
<!-- x_10=?
id(30)&#45;&gt;x_14=?
id(28) -->
<g id="edge5" class="edge">
<title>x_10=?
id(30)&#45;&gt;x_14=?
id(28)</title>
<path fill="none" stroke="#000000" d="M1445.3543,-418.8221C1429.2391,-404.0949 1406.7901,-383.5795 1389.0011,-367.3226"/>
<polygon fill="#000000" stroke="#000000" points="1390.9381,-364.3515 1381.1951,-360.1891 1386.2159,-369.5187 1390.9381,-364.3515"/>
<text text-anchor="middle" x="1428.2965" y="-389.7605" font-family="Times,serif" font-size="14.00" fill="#000000">n</text>
</g>
<!-- republican.
id(29) -->
<g id="node32" class="node">
<title>republican.
id(29)</title>
<ellipse fill="none" stroke="#000000" cx="1482.2965" cy="-341.0904" rx="69.0935" ry="26.7407"/>
<text text-anchor="middle" x="1482.2965" y="-344.8904" font-family="Times,serif" font-size="14.00" fill="#000000">republican.</text>
<text text-anchor="middle" x="1482.2965" y="-329.8904" font-family="Times,serif" font-size="14.00" fill="#000000">id(29)</text>
</g>
<!-- x_10=?
id(30)&#45;&gt;republican.
id(29) -->
<g id="edge6" class="edge">
<title>x_10=?
id(30)&#45;&gt;republican.
id(29)</title>
<path fill="none" stroke="#000000" d="M1469.4575,-418.8221C1471.359,-407.3102 1473.8445,-392.2615 1476.1217,-378.4747"/>
<polygon fill="#000000" stroke="#000000" points="1479.6328,-378.694 1477.8093,-368.2573 1472.7264,-377.5532 1479.6328,-378.694"/>
<text text-anchor="middle" x="1480.2965" y="-389.7605" font-family="Times,serif" font-size="14.00" fill="#000000">u</text>
</g>
<!-- democrat.
id(0) -->
<g id="node4" class="node">
<title>democrat.
id(0)</title>
<ellipse fill="none" stroke="#000000" cx="618.2965" cy="-236.3503" rx="62.8651" ry="26.7407"/>
<text text-anchor="middle" x="618.2965" y="-240.1503" font-family="Times,serif" font-size="14.00" fill="#000000">democrat.</text>
<text text-anchor="middle" x="618.2965" y="-225.1503" font-family="Times,serif" font-size="14.00" fill="#000000">id(0)</text>
</g>
<!-- x_14=?
id(12)&#45;&gt;democrat.
id(0) -->
<g id="edge7" class="edge">
<title>x_14=?
id(12)&#45;&gt;democrat.
id(0)</title>
<path fill="none" stroke="#000000" d="M762.8319,-321.8795C735.1273,-305.4852 694.9766,-281.7259 664.0201,-263.4073"/>
<polygon fill="#000000" stroke="#000000" points="665.5309,-260.2345 655.1423,-258.1539 661.9659,-266.2587 665.5309,-260.2345"/>
<text text-anchor="middle" x="722.7965" y="-285.0203" font-family="Times,serif" font-size="14.00" fill="#000000">y</text>
</g>
<!-- x_11=?
id(10) -->
<g id="node5" class="node">
<title>x_11=?
id(10)</title>
<polygon fill="none" stroke="#000000" points="769.2965,-255.3503 699.2965,-255.3503 699.2965,-217.3503 769.2965,-217.3503 769.2965,-255.3503"/>
<text text-anchor="middle" x="734.2965" y="-240.1503" font-family="Times,serif" font-size="14.00" fill="#000000">x_11=?</text>
<text text-anchor="middle" x="734.2965" y="-225.1503" font-family="Times,serif" font-size="14.00" fill="#000000">id(10)</text>
</g>
<!-- x_14=?
id(12)&#45;&gt;x_11=?
id(10) -->
<g id="edge8" class="edge">
<title>x_14=?
id(12)&#45;&gt;x_11=?
id(10)</title>
<path fill="none" stroke="#000000" d="M784.1081,-321.8795C774.7355,-305.7862 761.2297,-282.596 750.6452,-264.4219"/>
<polygon fill="#000000" stroke="#000000" points="753.471,-262.3193 745.4139,-255.4395 747.4221,-265.8422 753.471,-262.3193"/>
<text text-anchor="middle" x="774.2965" y="-285.0203" font-family="Times,serif" font-size="14.00" fill="#000000">n</text>
</g>
<!-- republican.
id(11) -->
<g id="node15" class="node">
<title>republican.
id(11)</title>
<ellipse fill="none" stroke="#000000" cx="856.2965" cy="-236.3503" rx="69.0935" ry="26.7407"/>
<text text-anchor="middle" x="856.2965" y="-240.1503" font-family="Times,serif" font-size="14.00" fill="#000000">republican.</text>
<text text-anchor="middle" x="856.2965" y="-225.1503" font-family="Times,serif" font-size="14.00" fill="#000000">id(11)</text>
</g>
<!-- x_14=?
id(12)&#45;&gt;republican.
id(11) -->
<g id="edge9" class="edge">
<title>x_14=?
id(12)&#45;&gt;republican.
id(11)</title>
<path fill="none" stroke="#000000" d="M806.4848,-321.8795C814.6106,-307.9271 825.8431,-288.6403 835.5851,-271.9127"/>
<polygon fill="#000000" stroke="#000000" points="838.8066,-273.3358 840.8149,-262.933 832.7577,-269.8129 838.8066,-273.3358"/>
<text text-anchor="middle" x="835.2965" y="-285.0203" font-family="Times,serif" font-size="14.00" fill="#000000">u</text>
</g>
<!-- x_12=?
id(4) -->
<g id="node6" class="node">
<title>x_12=?
id(4)</title>
<polygon fill="none" stroke="#000000" points="329.2965,-150.6102 259.2965,-150.6102 259.2965,-112.6102 329.2965,-112.6102 329.2965,-150.6102"/>
<text text-anchor="middle" x="294.2965" y="-135.4102" font-family="Times,serif" font-size="14.00" fill="#000000">x_12=?</text>
<text text-anchor="middle" x="294.2965" y="-120.4102" font-family="Times,serif" font-size="14.00" fill="#000000">id(4)</text>
</g>
<!-- x_11=?
id(10)&#45;&gt;x_12=?
id(4) -->
<g id="edge10" class="edge">
<title>x_11=?
id(10)&#45;&gt;x_12=?
id(4)</title>
<path fill="none" stroke="#000000" d="M706.1798,-217.1851C701.0539,-214.2765 695.6347,-211.5581 690.2965,-209.4802 568.6918,-162.1462 414.4361,-142.4699 339.3969,-135.2612"/>
<polygon fill="#000000" stroke="#000000" points="339.6275,-131.7677 329.346,-134.3252 338.9783,-138.7375 339.6275,-131.7677"/>
<text text-anchor="middle" x="632.7965" y="-180.2802" font-family="Times,serif" font-size="14.00" fill="#000000">y</text>
</g>
<!-- x_15=?
id(8) -->
<g id="node10" class="node">
<title>x_15=?
id(8)</title>
<polygon fill="none" stroke="#000000" points="711.2965,-150.6102 641.2965,-150.6102 641.2965,-112.6102 711.2965,-112.6102 711.2965,-150.6102"/>
<text text-anchor="middle" x="676.2965" y="-135.4102" font-family="Times,serif" font-size="14.00" fill="#000000">x_15=?</text>
<text text-anchor="middle" x="676.2965" y="-120.4102" font-family="Times,serif" font-size="14.00" fill="#000000">id(8)</text>
</g>
<!-- x_11=?
id(10)&#45;&gt;x_15=?
id(8) -->
<g id="edge11" class="edge">
<title>x_11=?
id(10)&#45;&gt;x_15=?
id(8)</title>
<path fill="none" stroke="#000000" d="M723.6584,-217.1393C714.7467,-201.0461 701.9051,-177.8559 691.8412,-159.6818"/>
<polygon fill="#000000" stroke="#000000" points="694.7734,-157.7521 686.8671,-150.6993 688.6496,-161.1432 694.7734,-157.7521"/>
<text text-anchor="middle" x="714.2965" y="-180.2802" font-family="Times,serif" font-size="14.00" fill="#000000">n</text>
</g>
<!-- democrat.
id(9) -->
<g id="node14" class="node">
<title>democrat.
id(9)</title>
<ellipse fill="none" stroke="#000000" cx="792.2965" cy="-131.6102" rx="62.8651" ry="26.7407"/>
<text text-anchor="middle" x="792.2965" y="-135.4102" font-family="Times,serif" font-size="14.00" fill="#000000">democrat.</text>
<text text-anchor="middle" x="792.2965" y="-120.4102" font-family="Times,serif" font-size="14.00" fill="#000000">id(9)</text>
</g>
<!-- x_11=?
id(10)&#45;&gt;democrat.
id(9) -->
<g id="edge12" class="edge">
<title>x_11=?
id(10)&#45;&gt;democrat.
id(9)</title>
<path fill="none" stroke="#000000" d="M744.9346,-217.1393C752.7159,-203.0873 763.4935,-183.6244 772.802,-166.8145"/>
<polygon fill="#000000" stroke="#000000" points="776.0114,-168.2437 777.7939,-157.7999 769.8876,-164.8526 776.0114,-168.2437"/>
<text text-anchor="middle" x="772.2965" y="-180.2802" font-family="Times,serif" font-size="14.00" fill="#000000">u</text>
</g>
<!-- republican.
id(1) -->
<g id="node7" class="node">
<title>republican.
id(1)</title>
<ellipse fill="none" stroke="#000000" cx="69.2965" cy="-26.8701" rx="69.0935" ry="26.7407"/>
<text text-anchor="middle" x="69.2965" y="-30.6701" font-family="Times,serif" font-size="14.00" fill="#000000">republican.</text>
<text text-anchor="middle" x="69.2965" y="-15.6701" font-family="Times,serif" font-size="14.00" fill="#000000">id(1)</text>
</g>
<!-- x_12=?
id(4)&#45;&gt;republican.
id(1) -->
<g id="edge13" class="edge">
<title>x_12=?
id(4)&#45;&gt;republican.
id(1)</title>
<path fill="none" stroke="#000000" d="M259.1402,-115.2445C222.7151,-98.2882 165.3233,-71.5717 123.1706,-51.9491"/>
<polygon fill="#000000" stroke="#000000" points="124.4266,-48.6732 113.8837,-47.6259 121.4724,-55.0193 124.4266,-48.6732"/>
<text text-anchor="middle" x="199.7965" y="-75.5401" font-family="Times,serif" font-size="14.00" fill="#000000">y</text>
</g>
<!-- democrat.
id(2) -->
<g id="node8" class="node">
<title>democrat.
id(2)</title>
<ellipse fill="none" stroke="#000000" cx="219.2965" cy="-26.8701" rx="62.8651" ry="26.7407"/>
<text text-anchor="middle" x="219.2965" y="-30.6701" font-family="Times,serif" font-size="14.00" fill="#000000">democrat.</text>
<text text-anchor="middle" x="219.2965" y="-15.6701" font-family="Times,serif" font-size="14.00" fill="#000000">id(2)</text>
</g>
<!-- x_12=?
id(4)&#45;&gt;democrat.
id(2) -->
<g id="edge14" class="edge">
<title>x_12=?
id(4)&#45;&gt;democrat.
id(2)</title>
<path fill="none" stroke="#000000" d="M280.5403,-112.3992C270.313,-98.1165 256.083,-78.2438 243.9136,-61.2487"/>
<polygon fill="#000000" stroke="#000000" points="246.4373,-58.7613 237.7696,-52.6685 240.7459,-62.8367 246.4373,-58.7613"/>
<text text-anchor="middle" x="266.2965" y="-75.5401" font-family="Times,serif" font-size="14.00" fill="#000000">n</text>
</g>
<!-- republican.
id(3) -->
<g id="node9" class="node">
<title>republican.
id(3)</title>
<ellipse fill="none" stroke="#000000" cx="369.2965" cy="-26.8701" rx="69.0935" ry="26.7407"/>
<text text-anchor="middle" x="369.2965" y="-30.6701" font-family="Times,serif" font-size="14.00" fill="#000000">republican.</text>
<text text-anchor="middle" x="369.2965" y="-15.6701" font-family="Times,serif" font-size="14.00" fill="#000000">id(3)</text>
</g>
<!-- x_12=?
id(4)&#45;&gt;republican.
id(3) -->
<g id="edge15" class="edge">
<title>x_12=?
id(4)&#45;&gt;republican.
id(3)</title>
<path fill="none" stroke="#000000" d="M308.0526,-112.3992C318.2079,-98.217 332.3097,-78.5234 344.422,-61.6082"/>
<polygon fill="#000000" stroke="#000000" points="347.5669,-63.228 350.5431,-53.0597 341.8755,-59.1526 347.5669,-63.228"/>
<text text-anchor="middle" x="341.2965" y="-75.5401" font-family="Times,serif" font-size="14.00" fill="#000000">u</text>
</g>
<!-- republican.
id(5) -->
<g id="node11" class="node">
<title>republican.
id(5)</title>
<ellipse fill="none" stroke="#000000" cx="526.2965" cy="-26.8701" rx="69.0935" ry="26.7407"/>
<text text-anchor="middle" x="526.2965" y="-30.6701" font-family="Times,serif" font-size="14.00" fill="#000000">republican.</text>
<text text-anchor="middle" x="526.2965" y="-15.6701" font-family="Times,serif" font-size="14.00" fill="#000000">id(5)</text>
</g>
<!-- x_15=?
id(8)&#45;&gt;republican.
id(5) -->
<g id="edge16" class="edge">
<title>x_15=?
id(8)&#45;&gt;republican.
id(5)</title>
<path fill="none" stroke="#000000" d="M648.7842,-112.3992C626.3678,-96.7466 594.3367,-74.3804 568.652,-56.4455"/>
<polygon fill="#000000" stroke="#000000" points="570.4107,-53.4048 560.2079,-50.5493 566.4031,-59.1441 570.4107,-53.4048"/>
<text text-anchor="middle" x="614.7965" y="-75.5401" font-family="Times,serif" font-size="14.00" fill="#000000">y</text>
</g>
<!-- democrat.
id(6) -->
<g id="node12" class="node">
<title>democrat.
id(6)</title>
<ellipse fill="none" stroke="#000000" cx="676.2965" cy="-26.8701" rx="62.8651" ry="26.7407"/>
<text text-anchor="middle" x="676.2965" y="-30.6701" font-family="Times,serif" font-size="14.00" fill="#000000">democrat.</text>
<text text-anchor="middle" x="676.2965" y="-15.6701" font-family="Times,serif" font-size="14.00" fill="#000000">id(6)</text>
</g>
<!-- x_15=?
id(8)&#45;&gt;democrat.
id(6) -->
<g id="edge17" class="edge">
<title>x_15=?
id(8)&#45;&gt;democrat.
id(6)</title>
<path fill="none" stroke="#000000" d="M676.2965,-112.3992C676.2965,-98.9313 676.2965,-80.493 676.2965,-64.1838"/>
<polygon fill="#000000" stroke="#000000" points="679.7966,-63.8475 676.2965,-53.8475 672.7966,-63.8475 679.7966,-63.8475"/>
<text text-anchor="middle" x="681.2965" y="-75.5401" font-family="Times,serif" font-size="14.00" fill="#000000">n</text>
</g>
<!-- democrat.
id(7) -->
<g id="node13" class="node">
<title>democrat.
id(7)</title>
<ellipse fill="none" stroke="#000000" cx="820.2965" cy="-26.8701" rx="62.8651" ry="26.7407"/>
<text text-anchor="middle" x="820.2965" y="-30.6701" font-family="Times,serif" font-size="14.00" fill="#000000">democrat.</text>
<text text-anchor="middle" x="820.2965" y="-15.6701" font-family="Times,serif" font-size="14.00" fill="#000000">id(7)</text>
</g>
<!-- x_15=?
id(8)&#45;&gt;democrat.
id(7) -->
<g id="edge18" class="edge">
<title>x_15=?
id(8)&#45;&gt;democrat.
id(7)</title>
<path fill="none" stroke="#000000" d="M702.7083,-112.3992C724.3739,-96.6405 755.3952,-74.0768 780.1358,-56.0814"/>
<polygon fill="#000000" stroke="#000000" points="782.2345,-58.8828 788.2628,-50.1702 778.1169,-53.2219 782.2345,-58.8828"/>
<text text-anchor="middle" x="762.2965" y="-75.5401" font-family="Times,serif" font-size="14.00" fill="#000000">u</text>
</g>
<!-- x_9=?
id(19) -->
<g id="node17" class="node">
<title>x_9=?
id(19)</title>
<polygon fill="none" stroke="#000000" points="1249.7965,-255.3503 1188.7965,-255.3503 1188.7965,-217.3503 1249.7965,-217.3503 1249.7965,-255.3503"/>
<text text-anchor="middle" x="1219.2965" y="-240.1503" font-family="Times,serif" font-size="14.00" fill="#000000">x_9=?</text>
<text text-anchor="middle" x="1219.2965" y="-225.1503" font-family="Times,serif" font-size="14.00" fill="#000000">id(19)</text>
</g>
<!-- x_14=?
id(28)&#45;&gt;x_9=?
id(19) -->
<g id="edge19" class="edge">
<title>x_14=?
id(28)&#45;&gt;x_9=?
id(19)</title>
<path fill="none" stroke="#000000" d="M1334.4349,-321.8795C1311.5778,-304.9003 1278.0862,-280.0215 1253.1101,-261.4683"/>
<polygon fill="#000000" stroke="#000000" points="1255.1087,-258.593 1244.9941,-255.4395 1250.9345,-264.2123 1255.1087,-258.593"/>
<text text-anchor="middle" x="1302.7965" y="-285.0203" font-family="Times,serif" font-size="14.00" fill="#000000">y</text>
</g>
<!-- x_2=?
id(26) -->
<g id="node24" class="node">
<title>x_2=?
id(26)</title>
<polygon fill="none" stroke="#000000" points="1458.7965,-255.3503 1397.7965,-255.3503 1397.7965,-217.3503 1458.7965,-217.3503 1458.7965,-255.3503"/>
<text text-anchor="middle" x="1428.2965" y="-240.1503" font-family="Times,serif" font-size="14.00" fill="#000000">x_2=?</text>
<text text-anchor="middle" x="1428.2965" y="-225.1503" font-family="Times,serif" font-size="14.00" fill="#000000">id(26)</text>
</g>
<!-- x_14=?
id(28)&#45;&gt;x_2=?
id(26) -->
<g id="edge20" class="edge">
<title>x_14=?
id(28)&#45;&gt;x_2=?
id(26)</title>
<path fill="none" stroke="#000000" d="M1372.7687,-321.8795C1383.3127,-305.6386 1398.5492,-282.1699 1410.3955,-263.923"/>
<polygon fill="#000000" stroke="#000000" points="1413.3935,-265.7327 1415.9033,-255.4395 1407.5223,-261.921 1413.3935,-265.7327"/>
<text text-anchor="middle" x="1404.2965" y="-285.0203" font-family="Times,serif" font-size="14.00" fill="#000000">n</text>
</g>
<!-- republican.
id(27) -->
<g id="node31" class="node">
<title>republican.
id(27)</title>
<ellipse fill="none" stroke="#000000" cx="1546.2965" cy="-236.3503" rx="69.0935" ry="26.7407"/>
<text text-anchor="middle" x="1546.2965" y="-240.1503" font-family="Times,serif" font-size="14.00" fill="#000000">republican.</text>
<text text-anchor="middle" x="1546.2965" y="-225.1503" font-family="Times,serif" font-size="14.00" fill="#000000">id(27)</text>
</g>
<!-- x_14=?
id(28)&#45;&gt;republican.
id(27) -->
<g id="edge21" class="edge">
<title>x_14=?
id(28)&#45;&gt;republican.
id(27)</title>
<path fill="none" stroke="#000000" d="M1391.4366,-321.827C1395.738,-319.2385 1400.1138,-316.6425 1404.2965,-314.2203 1434.5722,-296.6873 1468.9651,-277.801 1496.3196,-263.0194"/>
<polygon fill="#000000" stroke="#000000" points="1498.1695,-265.9984 1505.3105,-258.1717 1494.8473,-259.8369 1498.1695,-265.9984"/>
<text text-anchor="middle" x="1468.2965" y="-285.0203" font-family="Times,serif" font-size="14.00" fill="#000000">u</text>
</g>
<!-- republican.
id(13) -->
<g id="node18" class="node">
<title>republican.
id(13)</title>
<ellipse fill="none" stroke="#000000" cx="1027.2965" cy="-131.6102" rx="69.0935" ry="26.7407"/>
<text text-anchor="middle" x="1027.2965" y="-135.4102" font-family="Times,serif" font-size="14.00" fill="#000000">republican.</text>
<text text-anchor="middle" x="1027.2965" y="-120.4102" font-family="Times,serif" font-size="14.00" fill="#000000">id(13)</text>
</g>
<!-- x_9=?
id(19)&#45;&gt;republican.
id(13) -->
<g id="edge22" class="edge">
<title>x_9=?
id(19)&#45;&gt;republican.
id(13)</title>
<path fill="none" stroke="#000000" d="M1188.4483,-219.522C1158.3801,-203.1191 1112.1664,-177.9085 1076.9254,-158.6838"/>
<polygon fill="#000000" stroke="#000000" points="1078.2149,-155.4004 1067.76,-153.6839 1074.8625,-161.5455 1078.2149,-155.4004"/>
<text text-anchor="middle" x="1139.7965" y="-180.2802" font-family="Times,serif" font-size="14.00" fill="#000000">y</text>
</g>
<!-- x_15=?
id(17) -->
<g id="node19" class="node">
<title>x_15=?
id(17)</title>
<polygon fill="none" stroke="#000000" points="1184.2965,-150.6102 1114.2965,-150.6102 1114.2965,-112.6102 1184.2965,-112.6102 1184.2965,-150.6102"/>
<text text-anchor="middle" x="1149.2965" y="-135.4102" font-family="Times,serif" font-size="14.00" fill="#000000">x_15=?</text>
<text text-anchor="middle" x="1149.2965" y="-120.4102" font-family="Times,serif" font-size="14.00" fill="#000000">id(17)</text>
</g>
<!-- x_9=?
id(19)&#45;&gt;x_15=?
id(17) -->
<g id="edge23" class="edge">
<title>x_9=?
id(19)&#45;&gt;x_15=?
id(17)</title>
<path fill="none" stroke="#000000" d="M1206.4574,-217.1393C1195.6033,-200.8984 1179.9187,-177.4298 1167.7239,-159.1829"/>
<polygon fill="#000000" stroke="#000000" points="1170.5207,-157.0687 1162.0541,-150.6993 1164.7008,-160.9583 1170.5207,-157.0687"/>
<text text-anchor="middle" x="1194.2965" y="-180.2802" font-family="Times,serif" font-size="14.00" fill="#000000">n</text>
</g>
<!-- republican.
id(18) -->
<g id="node23" class="node">
<title>republican.
id(18)</title>
<ellipse fill="none" stroke="#000000" cx="1271.2965" cy="-131.6102" rx="69.0935" ry="26.7407"/>
<text text-anchor="middle" x="1271.2965" y="-135.4102" font-family="Times,serif" font-size="14.00" fill="#000000">republican.</text>
<text text-anchor="middle" x="1271.2965" y="-120.4102" font-family="Times,serif" font-size="14.00" fill="#000000">id(18)</text>
</g>
<!-- x_9=?
id(19)&#45;&gt;republican.
id(18) -->
<g id="edge24" class="edge">
<title>x_9=?
id(19)&#45;&gt;republican.
id(18)</title>
<path fill="none" stroke="#000000" d="M1228.8341,-217.1393C1235.761,-203.1869 1245.3362,-183.9002 1253.6409,-167.1726"/>
<polygon fill="#000000" stroke="#000000" points="1256.7871,-168.7062 1258.099,-158.1929 1250.5173,-165.5934 1256.7871,-168.7062"/>
<text text-anchor="middle" x="1254.2965" y="-180.2802" font-family="Times,serif" font-size="14.00" fill="#000000">u</text>
</g>
<!-- democrat.
id(14) -->
<g id="node20" class="node">
<title>democrat.
id(14)</title>
<ellipse fill="none" stroke="#000000" cx="964.2965" cy="-26.8701" rx="62.8651" ry="26.7407"/>
<text text-anchor="middle" x="964.2965" y="-30.6701" font-family="Times,serif" font-size="14.00" fill="#000000">democrat.</text>
<text text-anchor="middle" x="964.2965" y="-15.6701" font-family="Times,serif" font-size="14.00" fill="#000000">id(14)</text>
</g>
<!-- x_15=?
id(17)&#45;&gt;democrat.
id(14) -->
<g id="edge25" class="edge">
<title>x_15=?
id(17)&#45;&gt;democrat.
id(14)</title>
<path fill="none" stroke="#000000" d="M1118.1496,-112.3584C1113.8492,-109.7681 1109.4755,-107.1686 1105.2965,-104.7401 1074.7761,-87.0046 1040.0721,-67.8264 1012.7308,-52.9404"/>
<polygon fill="#000000" stroke="#000000" points="1014.2152,-49.7638 1003.7575,-48.065 1010.8733,-55.9145 1014.2152,-49.7638"/>
<text text-anchor="middle" x="1075.7965" y="-75.5401" font-family="Times,serif" font-size="14.00" fill="#000000">y</text>
</g>
<!-- republican.
id(15) -->
<g id="node21" class="node">
<title>republican.
id(15)</title>
<ellipse fill="none" stroke="#000000" cx="1114.2965" cy="-26.8701" rx="69.0935" ry="26.7407"/>
<text text-anchor="middle" x="1114.2965" y="-30.6701" font-family="Times,serif" font-size="14.00" fill="#000000">republican.</text>
<text text-anchor="middle" x="1114.2965" y="-15.6701" font-family="Times,serif" font-size="14.00" fill="#000000">id(15)</text>
</g>
<!-- x_15=?
id(17)&#45;&gt;republican.
id(15) -->
<g id="edge26" class="edge">
<title>x_15=?
id(17)&#45;&gt;republican.
id(15)</title>
<path fill="none" stroke="#000000" d="M1142.8769,-112.3992C1138.3336,-98.803 1132.0976,-80.1413 1126.6097,-63.7185"/>
<polygon fill="#000000" stroke="#000000" points="1129.8002,-62.2227 1123.3113,-53.8475 1123.1611,-64.4413 1129.8002,-62.2227"/>
<text text-anchor="middle" x="1139.2965" y="-75.5401" font-family="Times,serif" font-size="14.00" fill="#000000">n</text>
</g>
<!-- republican.
id(16) -->
<g id="node22" class="node">
<title>republican.
id(16)</title>
<ellipse fill="none" stroke="#000000" cx="1271.2965" cy="-26.8701" rx="69.0935" ry="26.7407"/>
<text text-anchor="middle" x="1271.2965" y="-30.6701" font-family="Times,serif" font-size="14.00" fill="#000000">republican.</text>
<text text-anchor="middle" x="1271.2965" y="-15.6701" font-family="Times,serif" font-size="14.00" fill="#000000">id(16)</text>
</g>
<!-- x_15=?
id(17)&#45;&gt;republican.
id(16) -->
<g id="edge27" class="edge">
<title>x_15=?
id(17)&#45;&gt;republican.
id(16)</title>
<path fill="none" stroke="#000000" d="M1171.6731,-112.3992C1189.3623,-97.2126 1214.4128,-75.7062 1234.9681,-58.0589"/>
<polygon fill="#000000" stroke="#000000" points="1237.2938,-60.6751 1242.6013,-51.5056 1232.734,-55.364 1237.2938,-60.6751"/>
<text text-anchor="middle" x="1223.2965" y="-75.5401" font-family="Times,serif" font-size="14.00" fill="#000000">u</text>
</g>
<!-- x_15=?
id(23) -->
<g id="node25" class="node">
<title>x_15=?
id(23)</title>
<polygon fill="none" stroke="#000000" points="1463.2965,-150.6102 1393.2965,-150.6102 1393.2965,-112.6102 1463.2965,-112.6102 1463.2965,-150.6102"/>
<text text-anchor="middle" x="1428.2965" y="-135.4102" font-family="Times,serif" font-size="14.00" fill="#000000">x_15=?</text>
<text text-anchor="middle" x="1428.2965" y="-120.4102" font-family="Times,serif" font-size="14.00" fill="#000000">id(23)</text>
</g>
<!-- x_2=?
id(26)&#45;&gt;x_15=?
id(23) -->
<g id="edge28" class="edge">
<title>x_2=?
id(26)&#45;&gt;x_15=?
id(23)</title>
<path fill="none" stroke="#000000" d="M1428.2965,-217.1393C1428.2965,-201.4152 1428.2965,-178.916 1428.2965,-160.9401"/>
<polygon fill="#000000" stroke="#000000" points="1431.7966,-160.6993 1428.2965,-150.6993 1424.7966,-160.6994 1431.7966,-160.6993"/>
<text text-anchor="middle" x="1432.7965" y="-180.2802" font-family="Times,serif" font-size="14.00" fill="#000000">y</text>
</g>
<!-- republican.
id(24) -->
<g id="node29" class="node">
<title>republican.
id(24)</title>
<ellipse fill="none" stroke="#000000" cx="1550.2965" cy="-131.6102" rx="69.0935" ry="26.7407"/>
<text text-anchor="middle" x="1550.2965" y="-135.4102" font-family="Times,serif" font-size="14.00" fill="#000000">republican.</text>
<text text-anchor="middle" x="1550.2965" y="-120.4102" font-family="Times,serif" font-size="14.00" fill="#000000">id(24)</text>
</g>
<!-- x_2=?
id(26)&#45;&gt;republican.
id(24) -->
<g id="edge29" class="edge">
<title>x_2=?
id(26)&#45;&gt;republican.
id(24)</title>
<path fill="none" stroke="#000000" d="M1450.6731,-217.1393C1468.3623,-201.9527 1493.4128,-180.4463 1513.9681,-162.799"/>
<polygon fill="#000000" stroke="#000000" points="1516.2938,-165.4153 1521.6013,-156.2457 1511.734,-160.1041 1516.2938,-165.4153"/>
<text text-anchor="middle" x="1502.2965" y="-180.2802" font-family="Times,serif" font-size="14.00" fill="#000000">n</text>
</g>
<!-- republican.
id(25) -->
<g id="node30" class="node">
<title>republican.
id(25)</title>
<ellipse fill="none" stroke="#000000" cx="1707.2965" cy="-131.6102" rx="69.0935" ry="26.7407"/>
<text text-anchor="middle" x="1707.2965" y="-135.4102" font-family="Times,serif" font-size="14.00" fill="#000000">republican.</text>
<text text-anchor="middle" x="1707.2965" y="-120.4102" font-family="Times,serif" font-size="14.00" fill="#000000">id(25)</text>
</g>
<!-- x_2=?
id(26)&#45;&gt;republican.
id(25) -->
<g id="edge30" class="edge">
<title>x_2=?
id(26)&#45;&gt;republican.
id(25)</title>
<path fill="none" stroke="#000000" d="M1454.3481,-217.3322C1458.8718,-214.476 1463.6261,-211.7365 1468.2965,-209.4802 1501.8988,-193.2467 1592.8518,-170.1559 1628.2965,-158.4802 1633.8498,-156.6509 1639.6156,-154.7306 1645.3889,-152.7934"/>
<polygon fill="#000000" stroke="#000000" points="1646.7164,-156.0395 1655.0758,-149.5303 1644.4817,-149.4058 1646.7164,-156.0395"/>
<text text-anchor="middle" x="1572.2965" y="-180.2802" font-family="Times,serif" font-size="14.00" fill="#000000">u</text>
</g>
<!-- republican.
id(20) -->
<g id="node26" class="node">
<title>republican.
id(20)</title>
<ellipse fill="none" stroke="#000000" cx="1428.2965" cy="-26.8701" rx="69.0935" ry="26.7407"/>
<text text-anchor="middle" x="1428.2965" y="-30.6701" font-family="Times,serif" font-size="14.00" fill="#000000">republican.</text>
<text text-anchor="middle" x="1428.2965" y="-15.6701" font-family="Times,serif" font-size="14.00" fill="#000000">id(20)</text>
</g>
<!-- x_15=?
id(23)&#45;&gt;republican.
id(20) -->
<g id="edge31" class="edge">
<title>x_15=?
id(23)&#45;&gt;republican.
id(20)</title>
<path fill="none" stroke="#000000" d="M1428.2965,-112.3992C1428.2965,-98.9313 1428.2965,-80.493 1428.2965,-64.1838"/>
<polygon fill="#000000" stroke="#000000" points="1431.7966,-63.8475 1428.2965,-53.8475 1424.7966,-63.8475 1431.7966,-63.8475"/>
<text text-anchor="middle" x="1432.7965" y="-75.5401" font-family="Times,serif" font-size="14.00" fill="#000000">y</text>
</g>
<!-- republican.
id(21) -->
<g id="node27" class="node">
<title>republican.
id(21)</title>
<ellipse fill="none" stroke="#000000" cx="1585.2965" cy="-26.8701" rx="69.0935" ry="26.7407"/>
<text text-anchor="middle" x="1585.2965" y="-30.6701" font-family="Times,serif" font-size="14.00" fill="#000000">republican.</text>
<text text-anchor="middle" x="1585.2965" y="-15.6701" font-family="Times,serif" font-size="14.00" fill="#000000">id(21)</text>
</g>
<!-- x_15=?
id(23)&#45;&gt;republican.
id(21) -->
<g id="edge32" class="edge">
<title>x_15=?
id(23)&#45;&gt;republican.
id(21)</title>
<path fill="none" stroke="#000000" d="M1457.0927,-112.3992C1480.8169,-96.572 1514.8303,-73.8804 1541.8617,-55.8469"/>
<polygon fill="#000000" stroke="#000000" points="1543.9945,-58.6314 1550.3708,-50.1702 1540.1097,-52.8083 1543.9945,-58.6314"/>
<text text-anchor="middle" x="1521.2965" y="-75.5401" font-family="Times,serif" font-size="14.00" fill="#000000">n</text>
</g>
<!-- republican.
id(22) -->
<g id="node28" class="node">
<title>republican.
id(22)</title>
<ellipse fill="none" stroke="#000000" cx="1742.2965" cy="-26.8701" rx="69.0935" ry="26.7407"/>
<text text-anchor="middle" x="1742.2965" y="-30.6701" font-family="Times,serif" font-size="14.00" fill="#000000">republican.</text>
<text text-anchor="middle" x="1742.2965" y="-15.6701" font-family="Times,serif" font-size="14.00" fill="#000000">id(22)</text>
</g>
<!-- x_15=?
id(23)&#45;&gt;republican.
id(22) -->
<g id="edge33" class="edge">
<title>x_15=?
id(23)&#45;&gt;republican.
id(22)</title>
<path fill="none" stroke="#000000" d="M1457.0152,-112.4683C1461.9839,-109.627 1467.1951,-106.9246 1472.2965,-104.7401 1492.4888,-96.0936 1642.2757,-60.1136 1663.2965,-53.7401 1668.9806,-52.0167 1674.8703,-50.1561 1680.7541,-48.2464"/>
<polygon fill="#000000" stroke="#000000" points="1682.2083,-51.4526 1690.613,-45.0019 1680.02,-44.8034 1682.2083,-51.4526"/>
<text text-anchor="middle" x="1598.2965" y="-75.5401" font-family="Times,serif" font-size="14.00" fill="#000000">u</text>
</g>
<!-- democrat.
id(31) -->
<g id="node34" class="node">
<title>democrat.
id(31)</title>
<ellipse fill="none" stroke="#000000" cx="1632.2965" cy="-341.0904" rx="62.8651" ry="26.7407"/>
<text text-anchor="middle" x="1632.2965" y="-344.8904" font-family="Times,serif" font-size="14.00" fill="#000000">democrat.</text>
<text text-anchor="middle" x="1632.2965" y="-329.8904" font-family="Times,serif" font-size="14.00" fill="#000000">id(31)</text>
</g>
<!-- x_11=?
id(37)&#45;&gt;democrat.
id(31) -->
<g id="edge34" class="edge">
<title>x_11=?
id(37)&#45;&gt;democrat.
id(31)</title>
<path fill="none" stroke="#000000" d="M1747.8467,-418.8221C1726.9687,-404.7773 1698.2651,-385.4681 1674.6897,-369.6087"/>
<polygon fill="#000000" stroke="#000000" points="1676.5109,-366.6156 1666.26,-363.938 1672.6038,-372.4238 1676.5109,-366.6156"/>
<text text-anchor="middle" x="1721.7965" y="-389.7605" font-family="Times,serif" font-size="14.00" fill="#000000">y</text>
</g>
<!-- democrat.
id(32) -->
<g id="node35" class="node">
<title>democrat.
id(32)</title>
<ellipse fill="none" stroke="#000000" cx="1776.2965" cy="-341.0904" rx="62.8651" ry="26.7407"/>
<text text-anchor="middle" x="1776.2965" y="-344.8904" font-family="Times,serif" font-size="14.00" fill="#000000">democrat.</text>
<text text-anchor="middle" x="1776.2965" y="-329.8904" font-family="Times,serif" font-size="14.00" fill="#000000">id(32)</text>
</g>
<!-- x_11=?
id(37)&#45;&gt;democrat.
id(32) -->
<g id="edge35" class="edge">
<title>x_11=?
id(37)&#45;&gt;democrat.
id(32)</title>
<path fill="none" stroke="#000000" d="M1776.2965,-418.8221C1776.2965,-407.3102 1776.2965,-392.2615 1776.2965,-378.4747"/>
<polygon fill="#000000" stroke="#000000" points="1779.7966,-378.2573 1776.2965,-368.2573 1772.7966,-378.2574 1779.7966,-378.2573"/>
<text text-anchor="middle" x="1781.2965" y="-389.7605" font-family="Times,serif" font-size="14.00" fill="#000000">n</text>
</g>
<!-- x_2=?
id(36) -->
<g id="node36" class="node">
<title>x_2=?
id(36)</title>
<polygon fill="none" stroke="#000000" points="1917.7965,-360.0904 1856.7965,-360.0904 1856.7965,-322.0904 1917.7965,-322.0904 1917.7965,-360.0904"/>
<text text-anchor="middle" x="1887.2965" y="-344.8904" font-family="Times,serif" font-size="14.00" fill="#000000">x_2=?</text>
<text text-anchor="middle" x="1887.2965" y="-329.8904" font-family="Times,serif" font-size="14.00" fill="#000000">id(36)</text>
</g>
<!-- x_11=?
id(37)&#45;&gt;x_2=?
id(36) -->
<g id="edge36" class="edge">
<title>x_11=?
id(37)&#45;&gt;x_2=?
id(36)</title>
<path fill="none" stroke="#000000" d="M1798.2265,-418.8221C1815.2538,-403.9622 1839.0339,-383.2093 1857.7401,-366.8843"/>
<polygon fill="#000000" stroke="#000000" points="1860.179,-369.4014 1865.412,-360.1891 1855.5763,-364.1273 1860.179,-369.4014"/>
<text text-anchor="middle" x="1840.2965" y="-389.7605" font-family="Times,serif" font-size="14.00" fill="#000000">u</text>
</g>
<!-- democrat.
id(33) -->
<g id="node37" class="node">
<title>democrat.
id(33)</title>
<ellipse fill="none" stroke="#000000" cx="1723.2965" cy="-236.3503" rx="62.8651" ry="26.7407"/>
<text text-anchor="middle" x="1723.2965" y="-240.1503" font-family="Times,serif" font-size="14.00" fill="#000000">democrat.</text>
<text text-anchor="middle" x="1723.2965" y="-225.1503" font-family="Times,serif" font-size="14.00" fill="#000000">id(33)</text>
</g>
<!-- x_2=?
id(36)&#45;&gt;democrat.
id(33) -->
<g id="edge37" class="edge">
<title>x_2=?
id(36)&#45;&gt;democrat.
id(33)</title>
<path fill="none" stroke="#000000" d="M1859.7064,-321.8491C1855.892,-319.2571 1852.0099,-316.6544 1848.2965,-314.2203 1822.0146,-296.9934 1792.1565,-278.359 1768.2139,-263.6393"/>
<polygon fill="#000000" stroke="#000000" points="1770.0323,-260.6487 1759.6781,-258.4032 1766.372,-266.6155 1770.0323,-260.6487"/>
<text text-anchor="middle" x="1822.7965" y="-285.0203" font-family="Times,serif" font-size="14.00" fill="#000000">y</text>
</g>
<!-- republican.
id(34) -->
<g id="node38" class="node">
<title>republican.
id(34)</title>
<ellipse fill="none" stroke="#000000" cx="1873.2965" cy="-236.3503" rx="69.0935" ry="26.7407"/>
<text text-anchor="middle" x="1873.2965" y="-240.1503" font-family="Times,serif" font-size="14.00" fill="#000000">republican.</text>
<text text-anchor="middle" x="1873.2965" y="-225.1503" font-family="Times,serif" font-size="14.00" fill="#000000">id(34)</text>
</g>
<!-- x_2=?
id(36)&#45;&gt;republican.
id(34) -->
<g id="edge38" class="edge">
<title>x_2=?
id(36)&#45;&gt;republican.
id(34)</title>
<path fill="none" stroke="#000000" d="M1884.7286,-321.8795C1882.9285,-308.4115 1880.4639,-289.9732 1878.284,-273.6641"/>
<polygon fill="#000000" stroke="#000000" points="1881.6965,-272.7758 1876.9024,-263.3277 1874.7582,-273.7033 1881.6965,-272.7758"/>
<text text-anchor="middle" x="1886.2965" y="-285.0203" font-family="Times,serif" font-size="14.00" fill="#000000">n</text>
</g>
<!-- republican.
id(35) -->
<g id="node39" class="node">
<title>republican.
id(35)</title>
<ellipse fill="none" stroke="#000000" cx="2030.2965" cy="-236.3503" rx="69.0935" ry="26.7407"/>
<text text-anchor="middle" x="2030.2965" y="-240.1503" font-family="Times,serif" font-size="14.00" fill="#000000">republican.</text>
<text text-anchor="middle" x="2030.2965" y="-225.1503" font-family="Times,serif" font-size="14.00" fill="#000000">id(35)</text>
</g>
<!-- x_2=?
id(36)&#45;&gt;republican.
id(35) -->
<g id="edge39" class="edge">
<title>x_2=?
id(36)&#45;&gt;republican.
id(35)</title>
<path fill="none" stroke="#000000" d="M1913.5249,-321.8795C1934.7301,-306.3477 1964.9603,-284.2057 1989.3491,-266.3421"/>
<polygon fill="#000000" stroke="#000000" points="1991.7085,-268.9525 1997.7078,-260.2198 1987.5722,-263.3052 1991.7085,-268.9525"/>
<text text-anchor="middle" x="1973.2965" y="-285.0203" font-family="Times,serif" font-size="14.00" fill="#000000">u</text>
</g>
<!-- x_6=?
id(41) -->
<g id="node41" class="node">
<title>x_6=?
id(41)</title>
<polygon fill="none" stroke="#000000" points="2285.7965,-360.0904 2224.7965,-360.0904 2224.7965,-322.0904 2285.7965,-322.0904 2285.7965,-360.0904"/>
<text text-anchor="middle" x="2255.2965" y="-344.8904" font-family="Times,serif" font-size="14.00" fill="#000000">x_6=?</text>
<text text-anchor="middle" x="2255.2965" y="-329.8904" font-family="Times,serif" font-size="14.00" fill="#000000">id(41)</text>
</g>
<!-- x_8=?
id(44)&#45;&gt;x_6=?
id(41) -->
<g id="edge40" class="edge">
<title>x_8=?
id(44)&#45;&gt;x_6=?
id(41)</title>
<path fill="none" stroke="#000000" d="M2315.4789,-418.8221C2304.2821,-404.3603 2288.7638,-384.3169 2276.2898,-368.2055"/>
<polygon fill="#000000" stroke="#000000" points="2278.9727,-365.9535 2270.0833,-360.1891 2273.4377,-370.2388 2278.9727,-365.9535"/>
<text text-anchor="middle" x="2304.7965" y="-389.7605" font-family="Times,serif" font-size="14.00" fill="#000000">y</text>
</g>
<!-- democrat.
id(42) -->
<g id="node45" class="node">
<title>democrat.
id(42)</title>
<ellipse fill="none" stroke="#000000" cx="2366.2965" cy="-341.0904" rx="62.8651" ry="26.7407"/>
<text text-anchor="middle" x="2366.2965" y="-344.8904" font-family="Times,serif" font-size="14.00" fill="#000000">democrat.</text>
<text text-anchor="middle" x="2366.2965" y="-329.8904" font-family="Times,serif" font-size="14.00" fill="#000000">id(42)</text>
</g>
<!-- x_8=?
id(44)&#45;&gt;democrat.
id(42) -->
<g id="edge41" class="edge">
<title>x_8=?
id(44)&#45;&gt;democrat.
id(42)</title>
<path fill="none" stroke="#000000" d="M2337.4089,-418.8221C2341.8043,-406.9949 2347.587,-391.4345 2352.8232,-377.3448"/>
<polygon fill="#000000" stroke="#000000" points="2356.1343,-378.4821 2356.3372,-367.8892 2349.5728,-376.0436 2356.1343,-378.4821"/>
<text text-anchor="middle" x="2355.2965" y="-389.7605" font-family="Times,serif" font-size="14.00" fill="#000000">n</text>
</g>
<!-- republican.
id(43) -->
<g id="node46" class="node">
<title>republican.
id(43)</title>
<ellipse fill="none" stroke="#000000" cx="2516.2965" cy="-341.0904" rx="69.0935" ry="26.7407"/>
<text text-anchor="middle" x="2516.2965" y="-344.8904" font-family="Times,serif" font-size="14.00" fill="#000000">republican.</text>
<text text-anchor="middle" x="2516.2965" y="-329.8904" font-family="Times,serif" font-size="14.00" fill="#000000">id(43)</text>
</g>
<!-- x_8=?
id(44)&#45;&gt;republican.
id(43) -->
<g id="edge42" class="edge">
<title>x_8=?
id(44)&#45;&gt;republican.
id(43)</title>
<path fill="none" stroke="#000000" d="M2361.0106,-421.9643C2389.3994,-407.1793 2432.1188,-384.9307 2465.5695,-367.5093"/>
<polygon fill="#000000" stroke="#000000" points="2467.4864,-370.4573 2474.739,-362.7338 2464.253,-364.2488 2467.4864,-370.4573"/>
<text text-anchor="middle" x="2434.2965" y="-389.7605" font-family="Times,serif" font-size="14.00" fill="#000000">u</text>
</g>
<!-- democrat.
id(38) -->
<g id="node42" class="node">
<title>democrat.
id(38)</title>
<ellipse fill="none" stroke="#000000" cx="2180.2965" cy="-236.3503" rx="62.8651" ry="26.7407"/>
<text text-anchor="middle" x="2180.2965" y="-240.1503" font-family="Times,serif" font-size="14.00" fill="#000000">democrat.</text>
<text text-anchor="middle" x="2180.2965" y="-225.1503" font-family="Times,serif" font-size="14.00" fill="#000000">id(38)</text>
</g>
<!-- x_6=?
id(41)&#45;&gt;democrat.
id(38) -->
<g id="edge43" class="edge">
<title>x_6=?
id(41)&#45;&gt;democrat.
id(38)</title>
<path fill="none" stroke="#000000" d="M2241.5403,-321.8795C2231.313,-307.5967 2217.083,-287.724 2204.9136,-270.7289"/>
<polygon fill="#000000" stroke="#000000" points="2207.4373,-268.2416 2198.7696,-262.1487 2201.7459,-272.3169 2207.4373,-268.2416"/>
<text text-anchor="middle" x="2226.7965" y="-285.0203" font-family="Times,serif" font-size="14.00" fill="#000000">y</text>
</g>
<!-- republican.
id(39) -->
<g id="node43" class="node">
<title>republican.
id(39)</title>
<ellipse fill="none" stroke="#000000" cx="2330.2965" cy="-236.3503" rx="69.0935" ry="26.7407"/>
<text text-anchor="middle" x="2330.2965" y="-240.1503" font-family="Times,serif" font-size="14.00" fill="#000000">republican.</text>
<text text-anchor="middle" x="2330.2965" y="-225.1503" font-family="Times,serif" font-size="14.00" fill="#000000">id(39)</text>
</g>
<!-- x_6=?
id(41)&#45;&gt;republican.
id(39) -->
<g id="edge44" class="edge">
<title>x_6=?
id(41)&#45;&gt;republican.
id(39)</title>
<path fill="none" stroke="#000000" d="M2269.0526,-321.8795C2279.2079,-307.6973 2293.3097,-288.0036 2305.422,-271.0884"/>
<polygon fill="#000000" stroke="#000000" points="2308.5669,-272.7082 2311.5431,-262.54 2302.8755,-268.6328 2308.5669,-272.7082"/>
<text text-anchor="middle" x="2302.2965" y="-285.0203" font-family="Times,serif" font-size="14.00" fill="#000000">n</text>
</g>
<!-- democrat.
id(40) -->
<g id="node44" class="node">
<title>democrat.
id(40)</title>
<ellipse fill="none" stroke="#000000" cx="2480.2965" cy="-236.3503" rx="62.8651" ry="26.7407"/>
<text text-anchor="middle" x="2480.2965" y="-240.1503" font-family="Times,serif" font-size="14.00" fill="#000000">democrat.</text>
<text text-anchor="middle" x="2480.2965" y="-225.1503" font-family="Times,serif" font-size="14.00" fill="#000000">id(40)</text>
</g>
<!-- x_6=?
id(41)&#45;&gt;democrat.
id(40) -->
<g id="edge45" class="edge">
<title>x_6=?
id(41)&#45;&gt;democrat.
id(40)</title>
<path fill="none" stroke="#000000" d="M2281.6867,-321.8354C2285.8203,-319.1356 2290.1111,-316.5062 2294.2965,-314.2203 2317.5301,-301.5311 2378.2314,-276.6561 2424.0201,-258.4226"/>
<polygon fill="#000000" stroke="#000000" points="2425.5438,-261.5835 2433.5457,-254.6394 2422.9599,-255.0778 2425.5438,-261.5835"/>
<text text-anchor="middle" x="2372.2965" y="-285.0203" font-family="Times,serif" font-size="14.00" fill="#000000">u</text>
</g>
</g>
</svg>
