<?xml version="1.0" encoding="UTF-8" standalone="no"?>
<!DOCTYPE svg PUBLIC "-//W3C//DTD SVG 1.1//EN"
 "http://www.w3.org/Graphics/SVG/1.1/DTD/svg11.dtd">
<!-- Generated by graphviz version 2.40.1 (20161225.0304)
 -->
<!-- Title: tree Pages: 1 -->
<svg width="679pt" height="375pt"
 viewBox="0.00 0.00 679.23 375.22" xmlns="http://www.w3.org/2000/svg" xmlns:xlink="http://www.w3.org/1999/xlink">
<g id="graph0" class="graph" transform="scale(1 1) rotate(0) translate(4 371.2203)">
<title>tree</title>
<polygon fill="#ffffff" stroke="transparent" points="-4,4 -4,-371.2203 675.229,-371.2203 675.229,4 -4,4"/>
<!-- x_3=?
Height(3)
id(66) -->
<g id="node1" class="node">
<title>x_3=?
Height(3)
id(66)</title>
<polygon fill="none" stroke="#000000" points="507.2965,-367.2203 421.2965,-367.2203 421.2965,-314.2203 507.2965,-314.2203 507.2965,-367.2203"/>
<text text-anchor="middle" x="464.2965" y="-352.0203" font-family="Times,serif" font-size="14.00" fill="#000000">x_3=?</text>
<text text-anchor="middle" x="464.2965" y="-337.0203" font-family="Times,serif" font-size="14.00" fill="#000000">Height(3)</text>
<text text-anchor="middle" x="464.2965" y="-322.0203" font-family="Times,serif" font-size="14.00" fill="#000000">id(66)</text>
</g>
<!-- x_10=?
id(51) -->
<g id="node2" class="node">
<title>x_10=?
id(51)</title>
<polygon fill="none" stroke="#000000" points="383.2965,-255.3503 313.2965,-255.3503 313.2965,-217.3503 383.2965,-217.3503 383.2965,-255.3503"/>
<text text-anchor="middle" x="348.2965" y="-240.1503" font-family="Times,serif" font-size="14.00" fill="#000000">x_10=?</text>
<text text-anchor="middle" x="348.2965" y="-225.1503" font-family="Times,serif" font-size="14.00" fill="#000000">id(51)</text>
</g>
<!-- x_3=?
Height(3)
id(66)&#45;&gt;x_10=?
id(51) -->
<g id="edge1" class="edge">
<title>x_3=?
Height(3)
id(66)&#45;&gt;x_10=?
id(51)</title>
<path fill="none" stroke="#000000" d="M434.7246,-314.1133C417.1453,-298.2964 394.9369,-278.3147 377.4345,-262.567"/>
<polygon fill="#000000" stroke="#000000" points="379.5325,-259.7465 369.7575,-255.6597 374.8505,-264.9502 379.5325,-259.7465"/>
<text text-anchor="middle" x="417.7965" y="-285.0203" font-family="Times,serif" font-size="14.00" fill="#000000">y</text>
</g>
<!-- democrat.
id(184) -->
<g id="node9" class="node">
<title>democrat.
id(184)</title>
<ellipse fill="none" stroke="#000000" cx="464.2965" cy="-236.3503" rx="62.8651" ry="26.7407"/>
<text text-anchor="middle" x="464.2965" y="-240.1503" font-family="Times,serif" font-size="14.00" fill="#000000">democrat.</text>
<text text-anchor="middle" x="464.2965" y="-225.1503" font-family="Times,serif" font-size="14.00" fill="#000000">id(184)</text>
</g>
<!-- x_3=?
Height(3)
id(66)&#45;&gt;democrat.
id(184) -->
<g id="edge2" class="edge">
<title>x_3=?
Height(3)
id(66)&#45;&gt;democrat.
id(184)</title>
<path fill="none" stroke="#000000" d="M464.2965,-314.1133C464.2965,-301.8182 464.2965,-287.0065 464.2965,-273.6232"/>
<polygon fill="#000000" stroke="#000000" points="467.7966,-273.2716 464.2965,-263.2716 460.7966,-273.2717 467.7966,-273.2716"/>
<text text-anchor="middle" x="469.2965" y="-285.0203" font-family="Times,serif" font-size="14.00" fill="#000000">n</text>
</g>
<!-- democrat.
id(198) -->
<g id="node10" class="node">
<title>democrat.
id(198)</title>
<ellipse fill="none" stroke="#000000" cx="608.2965" cy="-236.3503" rx="62.8651" ry="26.7407"/>
<text text-anchor="middle" x="608.2965" y="-240.1503" font-family="Times,serif" font-size="14.00" fill="#000000">democrat.</text>
<text text-anchor="middle" x="608.2965" y="-225.1503" font-family="Times,serif" font-size="14.00" fill="#000000">id(198)</text>
</g>
<!-- x_3=?
Height(3)
id(66)&#45;&gt;democrat.
id(198) -->
<g id="edge3" class="edge">
<title>x_3=?
Height(3)
id(66)&#45;&gt;democrat.
id(198)</title>
<path fill="none" stroke="#000000" d="M501.0063,-314.1133C521.4567,-299.2911 546.9534,-280.8113 567.9598,-265.586"/>
<polygon fill="#000000" stroke="#000000" points="570.0226,-268.4136 576.0655,-259.711 565.9146,-262.7457 570.0226,-268.4136"/>
<text text-anchor="middle" x="550.2965" y="-285.0203" font-family="Times,serif" font-size="14.00" fill="#000000">u</text>
</g>
<!-- x_12=?
id(13) -->
<g id="node3" class="node">
<title>x_12=?
id(13)</title>
<polygon fill="none" stroke="#000000" points="261.2965,-150.6102 191.2965,-150.6102 191.2965,-112.6102 261.2965,-112.6102 261.2965,-150.6102"/>
<text text-anchor="middle" x="226.2965" y="-135.4102" font-family="Times,serif" font-size="14.00" fill="#000000">x_12=?</text>
<text text-anchor="middle" x="226.2965" y="-120.4102" font-family="Times,serif" font-size="14.00" fill="#000000">id(13)</text>
</g>
<!-- x_10=?
id(51)&#45;&gt;x_12=?
id(13) -->
<g id="edge4" class="edge">
<title>x_10=?
id(51)&#45;&gt;x_12=?
id(13)</title>
<path fill="none" stroke="#000000" d="M325.9198,-217.1393C306.3147,-200.3079 277.6674,-175.7135 256.1191,-157.2136"/>
<polygon fill="#000000" stroke="#000000" points="258.3986,-154.5577 248.5313,-150.6993 253.8388,-159.8689 258.3986,-154.5577"/>
<text text-anchor="middle" x="299.7965" y="-180.2802" font-family="Times,serif" font-size="14.00" fill="#000000">y</text>
</g>
<!-- republican.
id(165) -->
<g id="node7" class="node">
<title>republican.
id(165)</title>
<ellipse fill="none" stroke="#000000" cx="348.2965" cy="-131.6102" rx="69.0935" ry="26.7407"/>
<text text-anchor="middle" x="348.2965" y="-135.4102" font-family="Times,serif" font-size="14.00" fill="#000000">republican.</text>
<text text-anchor="middle" x="348.2965" y="-120.4102" font-family="Times,serif" font-size="14.00" fill="#000000">id(165)</text>
</g>
<!-- x_10=?
id(51)&#45;&gt;republican.
id(165) -->
<g id="edge5" class="edge">
<title>x_10=?
id(51)&#45;&gt;republican.
id(165)</title>
<path fill="none" stroke="#000000" d="M348.2965,-217.1393C348.2965,-203.6714 348.2965,-185.2331 348.2965,-168.924"/>
<polygon fill="#000000" stroke="#000000" points="351.7966,-168.5876 348.2965,-158.5876 344.7966,-168.5876 351.7966,-168.5876"/>
<text text-anchor="middle" x="353.2965" y="-180.2802" font-family="Times,serif" font-size="14.00" fill="#000000">n</text>
</g>
<!-- republican.
id(167) -->
<g id="node8" class="node">
<title>republican.
id(167)</title>
<ellipse fill="none" stroke="#000000" cx="505.2965" cy="-131.6102" rx="69.0935" ry="26.7407"/>
<text text-anchor="middle" x="505.2965" y="-135.4102" font-family="Times,serif" font-size="14.00" fill="#000000">republican.</text>
<text text-anchor="middle" x="505.2965" y="-120.4102" font-family="Times,serif" font-size="14.00" fill="#000000">id(167)</text>
</g>
<!-- x_10=?
id(51)&#45;&gt;republican.
id(167) -->
<g id="edge6" class="edge">
<title>x_10=?
id(51)&#45;&gt;republican.
id(167)</title>
<path fill="none" stroke="#000000" d="M377.0927,-217.1393C400.8169,-201.3121 434.8303,-178.6206 461.8617,-160.587"/>
<polygon fill="#000000" stroke="#000000" points="463.9945,-163.3716 470.3708,-154.9103 460.1097,-157.5485 463.9945,-163.3716"/>
<text text-anchor="middle" x="441.2965" y="-180.2802" font-family="Times,serif" font-size="14.00" fill="#000000">u</text>
</g>
<!-- republican.
id(87) -->
<g id="node4" class="node">
<title>republican.
id(87)</title>
<ellipse fill="none" stroke="#000000" cx="69.2965" cy="-26.8701" rx="69.0935" ry="26.7407"/>
<text text-anchor="middle" x="69.2965" y="-30.6701" font-family="Times,serif" font-size="14.00" fill="#000000">republican.</text>
<text text-anchor="middle" x="69.2965" y="-15.6701" font-family="Times,serif" font-size="14.00" fill="#000000">id(87)</text>
</g>
<!-- x_12=?
id(13)&#45;&gt;republican.
id(87) -->
<g id="edge7" class="edge">
<title>x_12=?
id(13)&#45;&gt;republican.
id(87)</title>
<path fill="none" stroke="#000000" d="M197.5002,-112.3992C173.776,-96.572 139.7626,-73.8804 112.7313,-55.8469"/>
<polygon fill="#000000" stroke="#000000" points="114.4832,-52.8083 104.2221,-50.1702 110.5984,-58.6314 114.4832,-52.8083"/>
<text text-anchor="middle" x="161.7965" y="-75.5401" font-family="Times,serif" font-size="14.00" fill="#000000">y</text>
</g>
<!-- republican.
id(89) -->
<g id="node5" class="node">
<title>republican.
id(89)</title>
<ellipse fill="none" stroke="#000000" cx="226.2965" cy="-26.8701" rx="69.0935" ry="26.7407"/>
<text text-anchor="middle" x="226.2965" y="-30.6701" font-family="Times,serif" font-size="14.00" fill="#000000">republican.</text>
<text text-anchor="middle" x="226.2965" y="-15.6701" font-family="Times,serif" font-size="14.00" fill="#000000">id(89)</text>
</g>
<!-- x_12=?
id(13)&#45;&gt;republican.
id(89) -->
<g id="edge8" class="edge">
<title>x_12=?
id(13)&#45;&gt;republican.
id(89)</title>
<path fill="none" stroke="#000000" d="M226.2965,-112.3992C226.2965,-98.9313 226.2965,-80.493 226.2965,-64.1838"/>
<polygon fill="#000000" stroke="#000000" points="229.7966,-63.8475 226.2965,-53.8475 222.7966,-63.8475 229.7966,-63.8475"/>
<text text-anchor="middle" x="231.2965" y="-75.5401" font-family="Times,serif" font-size="14.00" fill="#000000">n</text>
</g>
<!-- democrat.
id(92) -->
<g id="node6" class="node">
<title>democrat.
id(92)</title>
<ellipse fill="none" stroke="#000000" cx="376.2965" cy="-26.8701" rx="62.8651" ry="26.7407"/>
<text text-anchor="middle" x="376.2965" y="-30.6701" font-family="Times,serif" font-size="14.00" fill="#000000">democrat.</text>
<text text-anchor="middle" x="376.2965" y="-15.6701" font-family="Times,serif" font-size="14.00" fill="#000000">id(92)</text>
</g>
<!-- x_12=?
id(13)&#45;&gt;democrat.
id(92) -->
<g id="edge9" class="edge">
<title>x_12=?
id(13)&#45;&gt;democrat.
id(92)</title>
<path fill="none" stroke="#000000" d="M253.8088,-112.3992C276.4531,-96.5874 308.9087,-73.9248 334.7226,-55.8998"/>
<polygon fill="#000000" stroke="#000000" points="337.0032,-58.5761 343.1984,-49.9813 332.9956,-52.8368 337.0032,-58.5761"/>
<text text-anchor="middle" x="315.2965" y="-75.5401" font-family="Times,serif" font-size="14.00" fill="#000000">u</text>
</g>
</g>
</svg>
