<?xml version="1.0" encoding="utf-8" standalone="no"?>
<!DOCTYPE svg PUBLIC "-//W3C//DTD SVG 1.1//EN"
  "http://www.w3.org/Graphics/SVG/1.1/DTD/svg11.dtd">
<!-- Created with matplotlib (http://matplotlib.org/) -->
<svg height="706pt" version="1.1" viewBox="0 0 1382 706" width="1382pt" xmlns="http://www.w3.org/2000/svg" xmlns:xlink="http://www.w3.org/1999/xlink">
 <defs>
  <style type="text/css">
*{stroke-linecap:butt;stroke-linejoin:round;}
  </style>
 </defs>
 <g id="figure_1">
  <g id="patch_1">
   <path d="M 0 706.32 
L 1382.4 706.32 
L 1382.4 0 
L 0 0 
z
" style="fill:#ffffff;"/>
  </g>
  <g id="axes_1">
   <g id="patch_2">
    <path d="M 172.8 628.6248 
L 1244.16 628.6248 
L 1244.16 84.7584 
L 172.8 84.7584 
z
" style="fill:#ffffff;"/>
   </g>
   <g id="PathCollection_1">
    <defs>
     <path d="M 0 0.353553 
C 0.093763 0.353553 0.183699 0.316301 0.25 0.25 
C 0.316301 0.183699 0.353553 0.093763 0.353553 0 
C 0.353553 -0.093763 0.316301 -0.183699 0.25 -0.25 
C 0.183699 -0.316301 0.093763 -0.353553 0 -0.353553 
C -0.093763 -0.353553 -0.183699 -0.316301 -0.25 -0.25 
C -0.316301 -0.183699 -0.353553 -0.093763 -0.353553 0 
C -0.353553 0.093763 -0.316301 0.183699 -0.25 0.25 
C -0.183699 0.316301 -0.093763 0.353553 0 0.353553 
z
" id="m652236003f" style="stroke:#000080;"/>
    </defs>
    <g clip-path="url(#pf351a04bc0)">
     <use style="fill:#000080;stroke:#000080;" x="329.521757" xlink:href="#m652236003f" y="576.308012"/>
     <use style="fill:#000080;stroke:#000080;" x="1015.123432" xlink:href="#m652236003f" y="275.204544"/>
     <use style="fill:#000080;stroke:#000080;" x="222.202266" xlink:href="#m652236003f" y="594.229"/>
     <use style="fill:#000080;stroke:#000080;" x="239.30424" xlink:href="#m652236003f" y="586.445408"/>
     <use style="fill:#000080;stroke:#000080;" x="373.893637" xlink:href="#m652236003f" y="589.329352"/>
     <use style="fill:#000080;stroke:#000080;" x="589.405926" xlink:href="#m652236003f" y="518.792557"/>
     <use style="fill:#000080;stroke:#000080;" x="1070.727572" xlink:href="#m652236003f" y="236.958903"/>
     <use style="fill:#000080;stroke:#000080;" x="248.039481" xlink:href="#m652236003f" y="595.714424"/>
     <use style="fill:#000080;stroke:#000080;" x="788.009555" xlink:href="#m652236003f" y="419.7551"/>
     <use style="fill:#000080;stroke:#000080;" x="533.339804" xlink:href="#m652236003f" y="547.994145"/>
     <use style="fill:#000080;stroke:#000080;" x="979.472073" xlink:href="#m652236003f" y="300.137681"/>
     <use style="fill:#000080;stroke:#000080;" x="493.142563" xlink:href="#m652236003f" y="560.751826"/>
     <use style="fill:#000080;stroke:#000080;" x="1167.352011" xlink:href="#m652236003f" y="152.446874"/>
     <use style="fill:#000080;stroke:#000080;" x="1117.499422" xlink:href="#m652236003f" y="195.104115"/>
     <use style="fill:#000080;stroke:#000080;" x="763.205995" xlink:href="#m652236003f" y="441.280167"/>
     <use style="fill:#000080;stroke:#000080;" x="672.202232" xlink:href="#m652236003f" y="479.374066"/>
     <use style="fill:#000080;stroke:#000080;" x="317.201581" xlink:href="#m652236003f" y="593.571999"/>
     <use style="fill:#000080;stroke:#000080;" x="390.62357" xlink:href="#m652236003f" y="585.799853"/>
     <use style="fill:#000080;stroke:#000080;" x="435.074339" xlink:href="#m652236003f" y="580.437255"/>
     <use style="fill:#000080;stroke:#000080;" x="424.957628" xlink:href="#m652236003f" y="578.279993"/>
     <use style="fill:#000080;stroke:#000080;" x="1086.481825" xlink:href="#m652236003f" y="215.606085"/>
     <use style="fill:#000080;stroke:#000080;" x="615.327737" xlink:href="#m652236003f" y="516.379493"/>
     <use style="fill:#000080;stroke:#000080;" x="268.235843" xlink:href="#m652236003f" y="579.877905"/>
     <use style="fill:#000080;stroke:#000080;" x="540.80302" xlink:href="#m652236003f" y="541.561756"/>
     <use style="fill:#000080;stroke:#000080;" x="786.011063" xlink:href="#m652236003f" y="427.725808"/>
     <use style="fill:#000080;stroke:#000080;" x="973.799139" xlink:href="#m652236003f" y="309.537707"/>
     <use style="fill:#000080;stroke:#000080;" x="336.713207" xlink:href="#m652236003f" y="598.319382"/>
     <use style="fill:#000080;stroke:#000080;" x="909.844382" xlink:href="#m652236003f" y="343.779859"/>
     <use style="fill:#000080;stroke:#000080;" x="392.267993" xlink:href="#m652236003f" y="576.334168"/>
     <use style="fill:#000080;stroke:#000080;" x="671.098927" xlink:href="#m652236003f" y="483.737916"/>
     <use style="fill:#000080;stroke:#000080;" x="534.331533" xlink:href="#m652236003f" y="544.121682"/>
     <use style="fill:#000080;stroke:#000080;" x="817.768749" xlink:href="#m652236003f" y="414.242112"/>
     <use style="fill:#000080;stroke:#000080;" x="428.060896" xlink:href="#m652236003f" y="576.949029"/>
     <use style="fill:#000080;stroke:#000080;" x="1068.37613" xlink:href="#m652236003f" y="239.338464"/>
     <use style="fill:#000080;stroke:#000080;" x="887.585163" xlink:href="#m652236003f" y="365.457524"/>
     <use style="fill:#000080;stroke:#000080;" x="908.409577" xlink:href="#m652236003f" y="337.102407"/>
     <use style="fill:#000080;stroke:#000080;" x="994.928983" xlink:href="#m652236003f" y="292.436372"/>
     <use style="fill:#000080;stroke:#000080;" x="570.736254" xlink:href="#m652236003f" y="529.837113"/>
     <use style="fill:#000080;stroke:#000080;" x="413.29486" xlink:href="#m652236003f" y="578.291698"/>
     <use style="fill:#000080;stroke:#000080;" x="410.307286" xlink:href="#m652236003f" y="578.415336"/>
     <use style="fill:#000080;stroke:#000080;" x="431.982509" xlink:href="#m652236003f" y="556.499618"/>
     <use style="fill:#000080;stroke:#000080;" x="847.811714" xlink:href="#m652236003f" y="390.18458"/>
     <use style="fill:#000080;stroke:#000080;" x="517.512259" xlink:href="#m652236003f" y="545.164418"/>
     <use style="fill:#000080;stroke:#000080;" x="667.497043" xlink:href="#m652236003f" y="476.513542"/>
     <use style="fill:#000080;stroke:#000080;" x="1107.044817" xlink:href="#m652236003f" y="205.822787"/>
     <use style="fill:#000080;stroke:#000080;" x="823.325916" xlink:href="#m652236003f" y="415.272959"/>
     <use style="fill:#000080;stroke:#000080;" x="880.446323" xlink:href="#m652236003f" y="363.15739"/>
     <use style="fill:#000080;stroke:#000080;" x="299.951978" xlink:href="#m652236003f" y="579.22129"/>
     <use style="fill:#000080;stroke:#000080;" x="442.190824" xlink:href="#m652236003f" y="560.861865"/>
     <use style="fill:#000080;stroke:#000080;" x="413.276168" xlink:href="#m652236003f" y="577.244673"/>
     <use style="fill:#000080;stroke:#000080;" x="747.220769" xlink:href="#m652236003f" y="451.363922"/>
     <use style="fill:#000080;stroke:#000080;" x="956.011911" xlink:href="#m652236003f" y="319.298682"/>
     <use style="fill:#000080;stroke:#000080;" x="288.326386" xlink:href="#m652236003f" y="590.024279"/>
     <use style="fill:#000080;stroke:#000080;" x="617.328259" xlink:href="#m652236003f" y="507.996671"/>
     <use style="fill:#000080;stroke:#000080;" x="990.098398" xlink:href="#m652236003f" y="287.246453"/>
     <use style="fill:#000080;stroke:#000080;" x="1020.364695" xlink:href="#m652236003f" y="262.201032"/>
     <use style="fill:#000080;stroke:#000080;" x="802.801302" xlink:href="#m652236003f" y="424.977323"/>
     <use style="fill:#000080;stroke:#000080;" x="373.632578" xlink:href="#m652236003f" y="576.318577"/>
     <use style="fill:#000080;stroke:#000080;" x="341.347671" xlink:href="#m652236003f" y="584.242781"/>
     <use style="fill:#000080;stroke:#000080;" x="951.143171" xlink:href="#m652236003f" y="315.057788"/>
     <use style="fill:#000080;stroke:#000080;" x="932.461275" xlink:href="#m652236003f" y="326.693084"/>
     <use style="fill:#000080;stroke:#000080;" x="1139.588503" xlink:href="#m652236003f" y="167.797212"/>
     <use style="fill:#000080;stroke:#000080;" x="584.062049" xlink:href="#m652236003f" y="524.375269"/>
     <use style="fill:#000080;stroke:#000080;" x="748.411921" xlink:href="#m652236003f" y="442.554166"/>
     <use style="fill:#000080;stroke:#000080;" x="903.891675" xlink:href="#m652236003f" y="357.677711"/>
     <use style="fill:#000080;stroke:#000080;" x="506.769896" xlink:href="#m652236003f" y="531.382395"/>
     <use style="fill:#000080;stroke:#000080;" x="831.343167" xlink:href="#m652236003f" y="391.243411"/>
     <use style="fill:#000080;stroke:#000080;" x="632.310537" xlink:href="#m652236003f" y="507.540934"/>
     <use style="fill:#000080;stroke:#000080;" x="421.638012" xlink:href="#m652236003f" y="585.455348"/>
     <use style="fill:#000080;stroke:#000080;" x="592.14503" xlink:href="#m652236003f" y="510.147475"/>
     <use style="fill:#000080;stroke:#000080;" x="662.84457" xlink:href="#m652236003f" y="486.671778"/>
     <use style="fill:#000080;stroke:#000080;" x="225.566923" xlink:href="#m652236003f" y="592.841005"/>
     <use style="fill:#000080;stroke:#000080;" x="1010.349482" xlink:href="#m652236003f" y="277.968605"/>
     <use style="fill:#000080;stroke:#000080;" x="844.90936" xlink:href="#m652236003f" y="406.328499"/>
     <use style="fill:#000080;stroke:#000080;" x="1046.218236" xlink:href="#m652236003f" y="247.581224"/>
     <use style="fill:#000080;stroke:#000080;" x="909.480549" xlink:href="#m652236003f" y="346.211295"/>
     <use style="fill:#000080;stroke:#000080;" x="868.316543" xlink:href="#m652236003f" y="375.937387"/>
     <use style="fill:#000080;stroke:#000080;" x="496.818166" xlink:href="#m652236003f" y="552.516878"/>
     <use style="fill:#000080;stroke:#000080;" x="369.457578" xlink:href="#m652236003f" y="593.924848"/>
     <use style="fill:#000080;stroke:#000080;" x="626.615073" xlink:href="#m652236003f" y="516.802256"/>
     <use style="fill:#000080;stroke:#000080;" x="1175.251839" xlink:href="#m652236003f" y="139.801014"/>
     <use style="fill:#000080;stroke:#000080;" x="349.211914" xlink:href="#m652236003f" y="583.732565"/>
     <use style="fill:#000080;stroke:#000080;" x="938.767906" xlink:href="#m652236003f" y="323.846906"/>
     <use style="fill:#000080;stroke:#000080;" x="661.679793" xlink:href="#m652236003f" y="482.111542"/>
     <use style="fill:#000080;stroke:#000080;" x="545.009869" xlink:href="#m652236003f" y="531.808119"/>
     <use style="fill:#000080;stroke:#000080;" x="774.687127" xlink:href="#m652236003f" y="442.534468"/>
     <use style="fill:#000080;stroke:#000080;" x="1161.666107" xlink:href="#m652236003f" y="157.049474"/>
     <use style="fill:#000080;stroke:#000080;" x="626.015548" xlink:href="#m652236003f" y="513.437612"/>
     <use style="fill:#000080;stroke:#000080;" x="1039.345156" xlink:href="#m652236003f" y="264.265589"/>
     <use style="fill:#000080;stroke:#000080;" x="444.909936" xlink:href="#m652236003f" y="566.130287"/>
     <use style="fill:#000080;stroke:#000080;" x="1067.526778" xlink:href="#m652236003f" y="215.116207"/>
     <use style="fill:#000080;stroke:#000080;" x="1038.170481" xlink:href="#m652236003f" y="252.098733"/>
     <use style="fill:#000080;stroke:#000080;" x="351.675839" xlink:href="#m652236003f" y="570.399756"/>
     <use style="fill:#000080;stroke:#000080;" x="837.105602" xlink:href="#m652236003f" y="400.889469"/>
     <use style="fill:#000080;stroke:#000080;" x="610.860937" xlink:href="#m652236003f" y="513.235342"/>
     <use style="fill:#000080;stroke:#000080;" x="507.066787" xlink:href="#m652236003f" y="546.585017"/>
     <use style="fill:#000080;stroke:#000080;" x="414.025722" xlink:href="#m652236003f" y="568.86602"/>
     <use style="fill:#000080;stroke:#000080;" x="591.75921" xlink:href="#m652236003f" y="509.918458"/>
     <use style="fill:#000080;stroke:#000080;" x="1015.446419" xlink:href="#m652236003f" y="275.344519"/>
     <use style="fill:#000080;stroke:#000080;" x="1029.023684" xlink:href="#m652236003f" y="250.181726"/>
     <use style="fill:#000080;stroke:#000080;" x="641.686608" xlink:href="#m652236003f" y="500.534282"/>
     <use style="fill:#000080;stroke:#000080;" x="1167.285765" xlink:href="#m652236003f" y="145.176148"/>
     <use style="fill:#000080;stroke:#000080;" x="376.830821" xlink:href="#m652236003f" y="580.810047"/>
     <use style="fill:#000080;stroke:#000080;" x="1194.757734" xlink:href="#m652236003f" y="114.972597"/>
     <use style="fill:#000080;stroke:#000080;" x="306.049073" xlink:href="#m652236003f" y="599.022993"/>
     <use style="fill:#000080;stroke:#000080;" x="1106.550082" xlink:href="#m652236003f" y="195.030823"/>
     <use style="fill:#000080;stroke:#000080;" x="336.009639" xlink:href="#m652236003f" y="584.825199"/>
     <use style="fill:#000080;stroke:#000080;" x="458.457633" xlink:href="#m652236003f" y="563.65307"/>
     <use style="fill:#000080;stroke:#000080;" x="604.31731" xlink:href="#m652236003f" y="521.812549"/>
     <use style="fill:#000080;stroke:#000080;" x="997.815906" xlink:href="#m652236003f" y="290.819001"/>
     <use style="fill:#000080;stroke:#000080;" x="902.088977" xlink:href="#m652236003f" y="356.510825"/>
     <use style="fill:#000080;stroke:#000080;" x="818.682953" xlink:href="#m652236003f" y="406.046219"/>
     <use style="fill:#000080;stroke:#000080;" x="650.081303" xlink:href="#m652236003f" y="492.081307"/>
     <use style="fill:#000080;stroke:#000080;" x="513.871778" xlink:href="#m652236003f" y="543.358748"/>
     <use style="fill:#000080;stroke:#000080;" x="568.479353" xlink:href="#m652236003f" y="527.429581"/>
     <use style="fill:#000080;stroke:#000080;" x="947.736267" xlink:href="#m652236003f" y="321.117241"/>
     <use style="fill:#000080;stroke:#000080;" x="453.500209" xlink:href="#m652236003f" y="571.480094"/>
     <use style="fill:#000080;stroke:#000080;" x="309.989021" xlink:href="#m652236003f" y="591.043639"/>
     <use style="fill:#000080;stroke:#000080;" x="959.586356" xlink:href="#m652236003f" y="312.284663"/>
     <use style="fill:#000080;stroke:#000080;" x="572.297624" xlink:href="#m652236003f" y="539.539296"/>
     <use style="fill:#000080;stroke:#000080;" x="446.889611" xlink:href="#m652236003f" y="557.423142"/>
     <use style="fill:#000080;stroke:#000080;" x="275.1017" xlink:href="#m652236003f" y="590.746119"/>
     <use style="fill:#000080;stroke:#000080;" x="1191.796523" xlink:href="#m652236003f" y="109.629399"/>
     <use style="fill:#000080;stroke:#000080;" x="1117.882809" xlink:href="#m652236003f" y="189.715844"/>
     <use style="fill:#000080;stroke:#000080;" x="1143.552867" xlink:href="#m652236003f" y="165.510593"/>
     <use style="fill:#000080;stroke:#000080;" x="431.208421" xlink:href="#m652236003f" y="556.31485"/>
     <use style="fill:#000080;stroke:#000080;" x="1113.560605" xlink:href="#m652236003f" y="184.768229"/>
     <use style="fill:#000080;stroke:#000080;" x="982.528684" xlink:href="#m652236003f" y="293.847838"/>
     <use style="fill:#000080;stroke:#000080;" x="292.578192" xlink:href="#m652236003f" y="592.947969"/>
     <use style="fill:#000080;stroke:#000080;" x="633.469016" xlink:href="#m652236003f" y="508.685826"/>
     <use style="fill:#000080;stroke:#000080;" x="1002.150926" xlink:href="#m652236003f" y="281.943925"/>
     <use style="fill:#000080;stroke:#000080;" x="558.28586" xlink:href="#m652236003f" y="548.221941"/>
     <use style="fill:#000080;stroke:#000080;" x="465.93025" xlink:href="#m652236003f" y="563.665866"/>
     <use style="fill:#000080;stroke:#000080;" x="396.800672" xlink:href="#m652236003f" y="586.073989"/>
     <use style="fill:#000080;stroke:#000080;" x="361.357148" xlink:href="#m652236003f" y="570.125025"/>
     <use style="fill:#000080;stroke:#000080;" x="1174.44537" xlink:href="#m652236003f" y="126.42407"/>
     <use style="fill:#000080;stroke:#000080;" x="495.927975" xlink:href="#m652236003f" y="542.3335"/>
     <use style="fill:#000080;stroke:#000080;" x="958.060659" xlink:href="#m652236003f" y="327.703668"/>
     <use style="fill:#000080;stroke:#000080;" x="532.103816" xlink:href="#m652236003f" y="527.259993"/>
     <use style="fill:#000080;stroke:#000080;" x="1188.553524" xlink:href="#m652236003f" y="122.436124"/>
     <use style="fill:#000080;stroke:#000080;" x="640.977045" xlink:href="#m652236003f" y="507.196724"/>
     <use style="fill:#000080;stroke:#000080;" x="700.605509" xlink:href="#m652236003f" y="471.080412"/>
     <use style="fill:#000080;stroke:#000080;" x="887.435539" xlink:href="#m652236003f" y="365.098867"/>
     <use style="fill:#000080;stroke:#000080;" x="1139.897312" xlink:href="#m652236003f" y="170.566018"/>
     <use style="fill:#000080;stroke:#000080;" x="1138.857543" xlink:href="#m652236003f" y="164.078125"/>
     <use style="fill:#000080;stroke:#000080;" x="738.543637" xlink:href="#m652236003f" y="454.2882"/>
     <use style="fill:#000080;stroke:#000080;" x="906.174118" xlink:href="#m652236003f" y="350.469169"/>
     <use style="fill:#000080;stroke:#000080;" x="611.628708" xlink:href="#m652236003f" y="520.634782"/>
     <use style="fill:#000080;stroke:#000080;" x="933.245423" xlink:href="#m652236003f" y="336.784933"/>
     <use style="fill:#000080;stroke:#000080;" x="1139.867209" xlink:href="#m652236003f" y="165.621539"/>
     <use style="fill:#000080;stroke:#000080;" x="843.835857" xlink:href="#m652236003f" y="396.659387"/>
     <use style="fill:#000080;stroke:#000080;" x="265.856461" xlink:href="#m652236003f" y="594.83974"/>
     <use style="fill:#000080;stroke:#000080;" x="679.292417" xlink:href="#m652236003f" y="481.334462"/>
     <use style="fill:#000080;stroke:#000080;" x="655.568419" xlink:href="#m652236003f" y="496.069236"/>
     <use style="fill:#000080;stroke:#000080;" x="346.568537" xlink:href="#m652236003f" y="581.892296"/>
     <use style="fill:#000080;stroke:#000080;" x="1126.27488" xlink:href="#m652236003f" y="181.500339"/>
     <use style="fill:#000080;stroke:#000080;" x="520.713587" xlink:href="#m652236003f" y="536.047234"/>
     <use style="fill:#000080;stroke:#000080;" x="928.560003" xlink:href="#m652236003f" y="334.036372"/>
     <use style="fill:#000080;stroke:#000080;" x="1058.036944" xlink:href="#m652236003f" y="245.093074"/>
     <use style="fill:#000080;stroke:#000080;" x="674.515318" xlink:href="#m652236003f" y="503.954643"/>
     <use style="fill:#000080;stroke:#000080;" x="762.152622" xlink:href="#m652236003f" y="427.663013"/>
     <use style="fill:#000080;stroke:#000080;" x="1189.035982" xlink:href="#m652236003f" y="113.589028"/>
     <use style="fill:#000080;stroke:#000080;" x="991.714211" xlink:href="#m652236003f" y="287.845421"/>
     <use style="fill:#000080;stroke:#000080;" x="636.566556" xlink:href="#m652236003f" y="491.385215"/>
     <use style="fill:#000080;stroke:#000080;" x="860.191092" xlink:href="#m652236003f" y="383.672519"/>
     <use style="fill:#000080;stroke:#000080;" x="1141.529079" xlink:href="#m652236003f" y="164.086042"/>
     <use style="fill:#000080;stroke:#000080;" x="398.075927" xlink:href="#m652236003f" y="573.909015"/>
     <use style="fill:#000080;stroke:#000080;" x="686.437271" xlink:href="#m652236003f" y="462.060814"/>
     <use style="fill:#000080;stroke:#000080;" x="628.350836" xlink:href="#m652236003f" y="498.494844"/>
     <use style="fill:#000080;stroke:#000080;" x="821.644535" xlink:href="#m652236003f" y="406.10134"/>
     <use style="fill:#000080;stroke:#000080;" x="1025.914527" xlink:href="#m652236003f" y="262.5937"/>
     <use style="fill:#000080;stroke:#000080;" x="758.568356" xlink:href="#m652236003f" y="451.20746"/>
     <use style="fill:#000080;stroke:#000080;" x="761.379536" xlink:href="#m652236003f" y="451.362233"/>
     <use style="fill:#000080;stroke:#000080;" x="817.865896" xlink:href="#m652236003f" y="401.352226"/>
     <use style="fill:#000080;stroke:#000080;" x="578.131965" xlink:href="#m652236003f" y="534.514154"/>
     <use style="fill:#000080;stroke:#000080;" x="1120.860095" xlink:href="#m652236003f" y="188.2141"/>
     <use style="fill:#000080;stroke:#000080;" x="437.786558" xlink:href="#m652236003f" y="565.404982"/>
     <use style="fill:#000080;stroke:#000080;" x="965.216271" xlink:href="#m652236003f" y="293.970076"/>
     <use style="fill:#000080;stroke:#000080;" x="964.86362" xlink:href="#m652236003f" y="327.145614"/>
     <use style="fill:#000080;stroke:#000080;" x="527.888339" xlink:href="#m652236003f" y="536.730597"/>
     <use style="fill:#000080;stroke:#000080;" x="401.289667" xlink:href="#m652236003f" y="564.61075"/>
     <use style="fill:#000080;stroke:#000080;" x="595.317622" xlink:href="#m652236003f" y="513.866964"/>
     <use style="fill:#000080;stroke:#000080;" x="276.67475" xlink:href="#m652236003f" y="602.413837"/>
     <use style="fill:#000080;stroke:#000080;" x="377.375414" xlink:href="#m652236003f" y="583.024814"/>
     <use style="fill:#000080;stroke:#000080;" x="1061.621065" xlink:href="#m652236003f" y="246.886589"/>
     <use style="fill:#000080;stroke:#000080;" x="235.169059" xlink:href="#m652236003f" y="599.771588"/>
     <use style="fill:#000080;stroke:#000080;" x="314.470579" xlink:href="#m652236003f" y="590.755702"/>
     <use style="fill:#000080;stroke:#000080;" x="717.260742" xlink:href="#m652236003f" y="471.481324"/>
     <use style="fill:#000080;stroke:#000080;" x="624.435671" xlink:href="#m652236003f" y="509.56086"/>
     <use style="fill:#000080;stroke:#000080;" x="1033.001903" xlink:href="#m652236003f" y="260.827953"/>
     <use style="fill:#000080;stroke:#000080;" x="514.126477" xlink:href="#m652236003f" y="560.133334"/>
     <use style="fill:#000080;stroke:#000080;" x="783.310888" xlink:href="#m652236003f" y="436.822118"/>
     <use style="fill:#000080;stroke:#000080;" x="553.821329" xlink:href="#m652236003f" y="531.532911"/>
     <use style="fill:#000080;stroke:#000080;" x="891.906293" xlink:href="#m652236003f" y="374.351794"/>
     <use style="fill:#000080;stroke:#000080;" x="534.918846" xlink:href="#m652236003f" y="542.946049"/>
     <use style="fill:#000080;stroke:#000080;" x="1088.250185" xlink:href="#m652236003f" y="206.39147"/>
     <use style="fill:#000080;stroke:#000080;" x="904.418049" xlink:href="#m652236003f" y="354.935517"/>
     <use style="fill:#000080;stroke:#000080;" x="977.200355" xlink:href="#m652236003f" y="303.271902"/>
     <use style="fill:#000080;stroke:#000080;" x="421.926717" xlink:href="#m652236003f" y="578.923528"/>
     <use style="fill:#000080;stroke:#000080;" x="945.485674" xlink:href="#m652236003f" y="330.035938"/>
     <use style="fill:#000080;stroke:#000080;" x="616.981748" xlink:href="#m652236003f" y="511.706526"/>
     <use style="fill:#000080;stroke:#000080;" x="1001.550831" xlink:href="#m652236003f" y="287.350072"/>
     <use style="fill:#000080;stroke:#000080;" x="453.550513" xlink:href="#m652236003f" y="557.270331"/>
     <use style="fill:#000080;stroke:#000080;" x="816.920849" xlink:href="#m652236003f" y="414.437591"/>
     <use style="fill:#000080;stroke:#000080;" x="534.526174" xlink:href="#m652236003f" y="542.137182"/>
     <use style="fill:#000080;stroke:#000080;" x="305.845799" xlink:href="#m652236003f" y="589.52247"/>
     <use style="fill:#000080;stroke:#000080;" x="1160.563483" xlink:href="#m652236003f" y="150.756458"/>
     <use style="fill:#000080;stroke:#000080;" x="860.949328" xlink:href="#m652236003f" y="391.771466"/>
     <use style="fill:#000080;stroke:#000080;" x="465.996292" xlink:href="#m652236003f" y="555.544729"/>
     <use style="fill:#000080;stroke:#000080;" x="979.074879" xlink:href="#m652236003f" y="296.427293"/>
     <use style="fill:#000080;stroke:#000080;" x="674.15448" xlink:href="#m652236003f" y="476.73637"/>
     <use style="fill:#000080;stroke:#000080;" x="547.815266" xlink:href="#m652236003f" y="541.350032"/>
     <use style="fill:#000080;stroke:#000080;" x="314.691167" xlink:href="#m652236003f" y="588.150751"/>
     <use style="fill:#000080;stroke:#000080;" x="541.885485" xlink:href="#m652236003f" y="533.55851"/>
     <use style="fill:#000080;stroke:#000080;" x="316.593454" xlink:href="#m652236003f" y="587.150244"/>
     <use style="fill:#000080;stroke:#000080;" x="855.547908" xlink:href="#m652236003f" y="380.554539"/>
     <use style="fill:#000080;stroke:#000080;" x="479.311993" xlink:href="#m652236003f" y="563.527178"/>
     <use style="fill:#000080;stroke:#000080;" x="651.936186" xlink:href="#m652236003f" y="500.279678"/>
     <use style="fill:#000080;stroke:#000080;" x="785.128735" xlink:href="#m652236003f" y="428.120594"/>
     <use style="fill:#000080;stroke:#000080;" x="1145.72375" xlink:href="#m652236003f" y="159.036944"/>
     <use style="fill:#000080;stroke:#000080;" x="674.386968" xlink:href="#m652236003f" y="480.28892"/>
     <use style="fill:#000080;stroke:#000080;" x="1162.688164" xlink:href="#m652236003f" y="118.196563"/>
     <use style="fill:#000080;stroke:#000080;" x="629.140044" xlink:href="#m652236003f" y="502.035592"/>
     <use style="fill:#000080;stroke:#000080;" x="759.208876" xlink:href="#m652236003f" y="448.757229"/>
     <use style="fill:#000080;stroke:#000080;" x="1179.495987" xlink:href="#m652236003f" y="139.710376"/>
     <use style="fill:#000080;stroke:#000080;" x="1095.969911" xlink:href="#m652236003f" y="211.444782"/>
     <use style="fill:#000080;stroke:#000080;" x="1122.695918" xlink:href="#m652236003f" y="202.988406"/>
     <use style="fill:#000080;stroke:#000080;" x="782.642537" xlink:href="#m652236003f" y="430.841209"/>
     <use style="fill:#000080;stroke:#000080;" x="845.89743" xlink:href="#m652236003f" y="385.864582"/>
     <use style="fill:#000080;stroke:#000080;" x="583.390391" xlink:href="#m652236003f" y="516.722391"/>
     <use style="fill:#000080;stroke:#000080;" x="608.082184" xlink:href="#m652236003f" y="516.645775"/>
     <use style="fill:#000080;stroke:#000080;" x="729.565487" xlink:href="#m652236003f" y="459.771631"/>
     <use style="fill:#000080;stroke:#000080;" x="666.781776" xlink:href="#m652236003f" y="487.146713"/>
     <use style="fill:#000080;stroke:#000080;" x="1125.504756" xlink:href="#m652236003f" y="179.962175"/>
     <use style="fill:#000080;stroke:#000080;" x="227.062401" xlink:href="#m652236003f" y="603.753801"/>
     <use style="fill:#000080;stroke:#000080;" x="1025.925205" xlink:href="#m652236003f" y="270.631811"/>
     <use style="fill:#000080;stroke:#000080;" x="745.328182" xlink:href="#m652236003f" y="457.111319"/>
     <use style="fill:#000080;stroke:#000080;" x="950.198338" xlink:href="#m652236003f" y="324.111618"/>
     <use style="fill:#000080;stroke:#000080;" x="414.612654" xlink:href="#m652236003f" y="564.884786"/>
     <use style="fill:#000080;stroke:#000080;" x="1192.601626" xlink:href="#m652236003f" y="124.328893"/>
     <use style="fill:#000080;stroke:#000080;" x="506.16344" xlink:href="#m652236003f" y="557.815468"/>
     <use style="fill:#000080;stroke:#000080;" x="451.144967" xlink:href="#m652236003f" y="555.79186"/>
     <use style="fill:#000080;stroke:#000080;" x="1120.762683" xlink:href="#m652236003f" y="167.21521"/>
     <use style="fill:#000080;stroke:#000080;" x="607.928091" xlink:href="#m652236003f" y="517.263672"/>
     <use style="fill:#000080;stroke:#000080;" x="285.535346" xlink:href="#m652236003f" y="575.595434"/>
     <use style="fill:#000080;stroke:#000080;" x="483.189304" xlink:href="#m652236003f" y="559.876276"/>
     <use style="fill:#000080;stroke:#000080;" x="759.461523" xlink:href="#m652236003f" y="448.219992"/>
     <use style="fill:#000080;stroke:#000080;" x="1185.78074" xlink:href="#m652236003f" y="121.836835"/>
     <use style="fill:#000080;stroke:#000080;" x="879.480996" xlink:href="#m652236003f" y="356.260866"/>
     <use style="fill:#000080;stroke:#000080;" x="367.9698" xlink:href="#m652236003f" y="575.74551"/>
     <use style="fill:#000080;stroke:#000080;" x="561.628476" xlink:href="#m652236003f" y="526.19598"/>
     <use style="fill:#000080;stroke:#000080;" x="729.883515" xlink:href="#m652236003f" y="461.426589"/>
     <use style="fill:#000080;stroke:#000080;" x="1068.876208" xlink:href="#m652236003f" y="216.09997"/>
     <use style="fill:#000080;stroke:#000080;" x="1054.00538" xlink:href="#m652236003f" y="220.113323"/>
     <use style="fill:#000080;stroke:#000080;" x="472.694121" xlink:href="#m652236003f" y="558.665756"/>
     <use style="fill:#000080;stroke:#000080;" x="420.251826" xlink:href="#m652236003f" y="574.122503"/>
     <use style="fill:#000080;stroke:#000080;" x="710.662468" xlink:href="#m652236003f" y="459.806325"/>
     <use style="fill:#000080;stroke:#000080;" x="796.537749" xlink:href="#m652236003f" y="417.682165"/>
     <use style="fill:#000080;stroke:#000080;" x="383.923708" xlink:href="#m652236003f" y="575.799607"/>
     <use style="fill:#000080;stroke:#000080;" x="643.848723" xlink:href="#m652236003f" y="498.450328"/>
     <use style="fill:#000080;stroke:#000080;" x="495.95737" xlink:href="#m652236003f" y="559.552478"/>
     <use style="fill:#000080;stroke:#000080;" x="405.33692" xlink:href="#m652236003f" y="581.147934"/>
     <use style="fill:#000080;stroke:#000080;" x="273.59187" xlink:href="#m652236003f" y="588.208745"/>
     <use style="fill:#000080;stroke:#000080;" x="842.133764" xlink:href="#m652236003f" y="386.093733"/>
     <use style="fill:#000080;stroke:#000080;" x="562.092313" xlink:href="#m652236003f" y="536.874086"/>
     <use style="fill:#000080;stroke:#000080;" x="373.401747" xlink:href="#m652236003f" y="593.76498"/>
     <use style="fill:#000080;stroke:#000080;" x="652.369742" xlink:href="#m652236003f" y="494.298902"/>
     <use style="fill:#000080;stroke:#000080;" x="817.360877" xlink:href="#m652236003f" y="402.534474"/>
     <use style="fill:#000080;stroke:#000080;" x="367.915731" xlink:href="#m652236003f" y="583.033872"/>
     <use style="fill:#000080;stroke:#000080;" x="607.227113" xlink:href="#m652236003f" y="514.722883"/>
     <use style="fill:#000080;stroke:#000080;" x="824.903424" xlink:href="#m652236003f" y="404.353459"/>
     <use style="fill:#000080;stroke:#000080;" x="570.423183" xlink:href="#m652236003f" y="535.870963"/>
     <use style="fill:#000080;stroke:#000080;" x="831.714075" xlink:href="#m652236003f" y="415.108746"/>
     <use style="fill:#000080;stroke:#000080;" x="980.009619" xlink:href="#m652236003f" y="300.116836"/>
     <use style="fill:#000080;stroke:#000080;" x="485.522065" xlink:href="#m652236003f" y="550.63918"/>
     <use style="fill:#000080;stroke:#000080;" x="896.80781" xlink:href="#m652236003f" y="358.730359"/>
     <use style="fill:#000080;stroke:#000080;" x="312.418993" xlink:href="#m652236003f" y="567.814308"/>
     <use style="fill:#000080;stroke:#000080;" x="710.777383" xlink:href="#m652236003f" y="486.07028"/>
     <use style="fill:#000080;stroke:#000080;" x="665.036575" xlink:href="#m652236003f" y="496.624645"/>
     <use style="fill:#000080;stroke:#000080;" x="603.278309" xlink:href="#m652236003f" y="509.93293"/>
     <use style="fill:#000080;stroke:#000080;" x="234.049473" xlink:href="#m652236003f" y="591.990357"/>
     <use style="fill:#000080;stroke:#000080;" x="895.867968" xlink:href="#m652236003f" y="360.413209"/>
     <use style="fill:#000080;stroke:#000080;" x="521.152714" xlink:href="#m652236003f" y="540.138602"/>
     <use style="fill:#000080;stroke:#000080;" x="837.38137" xlink:href="#m652236003f" y="400.295221"/>
     <use style="fill:#000080;stroke:#000080;" x="1095.980387" xlink:href="#m652236003f" y="205.613164"/>
     <use style="fill:#000080;stroke:#000080;" x="227.165598" xlink:href="#m652236003f" y="595.544575"/>
     <use style="fill:#000080;stroke:#000080;" x="564.962715" xlink:href="#m652236003f" y="525.735669"/>
     <use style="fill:#000080;stroke:#000080;" x="1143.709415" xlink:href="#m652236003f" y="155.258068"/>
     <use style="fill:#000080;stroke:#000080;" x="1076.871075" xlink:href="#m652236003f" y="228.477235"/>
     <use style="fill:#000080;stroke:#000080;" x="535.104393" xlink:href="#m652236003f" y="539.956754"/>
     <use style="fill:#000080;stroke:#000080;" x="820.432981" xlink:href="#m652236003f" y="407.738742"/>
     <use style="fill:#000080;stroke:#000080;" x="497.741892" xlink:href="#m652236003f" y="555.393906"/>
     <use style="fill:#000080;stroke:#000080;" x="673.491193" xlink:href="#m652236003f" y="498.869298"/>
     <use style="fill:#000080;stroke:#000080;" x="808.26123" xlink:href="#m652236003f" y="406.624343"/>
     <use style="fill:#000080;stroke:#000080;" x="246.435727" xlink:href="#m652236003f" y="600.729119"/>
     <use style="fill:#000080;stroke:#000080;" x="869.004961" xlink:href="#m652236003f" y="381.140641"/>
     <use style="fill:#000080;stroke:#000080;" x="1046.953972" xlink:href="#m652236003f" y="229.290443"/>
     <use style="fill:#000080;stroke:#000080;" x="561.428417" xlink:href="#m652236003f" y="534.09161"/>
     <use style="fill:#000080;stroke:#000080;" x="660.663486" xlink:href="#m652236003f" y="490.249865"/>
     <use style="fill:#000080;stroke:#000080;" x="500.079342" xlink:href="#m652236003f" y="549.122072"/>
    </g>
   </g>
   <g id="matplotlib.axis_1">
    <g id="xtick_1">
     <g id="line2d_1">
      <defs>
       <path d="M 0 0 
L 0 3.5 
" id="mfa2be6f406" style="stroke:#000000;stroke-width:0.8;"/>
      </defs>
      <g>
       <use style="stroke:#000000;stroke-width:0.8;" x="211.571623" xlink:href="#mfa2be6f406" y="628.6248"/>
      </g>
     </g>
     <g id="text_1">
      <!-- 0.0 -->
      <defs>
       <path d="M 31.78125 66.40625 
Q 24.171875 66.40625 20.328125 58.90625 
Q 16.5 51.421875 16.5 36.375 
Q 16.5 21.390625 20.328125 13.890625 
Q 24.171875 6.390625 31.78125 6.390625 
Q 39.453125 6.390625 43.28125 13.890625 
Q 47.125 21.390625 47.125 36.375 
Q 47.125 51.421875 43.28125 58.90625 
Q 39.453125 66.40625 31.78125 66.40625 
z
M 31.78125 74.21875 
Q 44.046875 74.21875 50.515625 64.515625 
Q 56.984375 54.828125 56.984375 36.375 
Q 56.984375 17.96875 50.515625 8.265625 
Q 44.046875 -1.421875 31.78125 -1.421875 
Q 19.53125 -1.421875 13.0625 8.265625 
Q 6.59375 17.96875 6.59375 36.375 
Q 6.59375 54.828125 13.0625 64.515625 
Q 19.53125 74.21875 31.78125 74.21875 
z
" id="DejaVuSans-30"/>
       <path d="M 10.6875 12.40625 
L 21 12.40625 
L 21 0 
L 10.6875 0 
z
" id="DejaVuSans-2e"/>
      </defs>
      <g transform="translate(203.620061 643.223238)scale(0.1 -0.1)">
       <use xlink:href="#DejaVuSans-30"/>
       <use x="63.623047" xlink:href="#DejaVuSans-2e"/>
       <use x="95.410156" xlink:href="#DejaVuSans-30"/>
      </g>
     </g>
    </g>
    <g id="xtick_2">
     <g id="line2d_2">
      <g>
       <use style="stroke:#000000;stroke-width:0.8;" x="409.123625" xlink:href="#mfa2be6f406" y="628.6248"/>
      </g>
     </g>
     <g id="text_2">
      <!-- 0.2 -->
      <defs>
       <path d="M 19.1875 8.296875 
L 53.609375 8.296875 
L 53.609375 0 
L 7.328125 0 
L 7.328125 8.296875 
Q 12.9375 14.109375 22.625 23.890625 
Q 32.328125 33.6875 34.8125 36.53125 
Q 39.546875 41.84375 41.421875 45.53125 
Q 43.3125 49.21875 43.3125 52.78125 
Q 43.3125 58.59375 39.234375 62.25 
Q 35.15625 65.921875 28.609375 65.921875 
Q 23.96875 65.921875 18.8125 64.3125 
Q 13.671875 62.703125 7.8125 59.421875 
L 7.8125 69.390625 
Q 13.765625 71.78125 18.9375 73 
Q 24.125 74.21875 28.421875 74.21875 
Q 39.75 74.21875 46.484375 68.546875 
Q 53.21875 62.890625 53.21875 53.421875 
Q 53.21875 48.921875 51.53125 44.890625 
Q 49.859375 40.875 45.40625 35.40625 
Q 44.1875 33.984375 37.640625 27.21875 
Q 31.109375 20.453125 19.1875 8.296875 
z
" id="DejaVuSans-32"/>
      </defs>
      <g transform="translate(401.172063 643.223238)scale(0.1 -0.1)">
       <use xlink:href="#DejaVuSans-30"/>
       <use x="63.623047" xlink:href="#DejaVuSans-2e"/>
       <use x="95.410156" xlink:href="#DejaVuSans-32"/>
      </g>
     </g>
    </g>
    <g id="xtick_3">
     <g id="line2d_3">
      <g>
       <use style="stroke:#000000;stroke-width:0.8;" x="606.675628" xlink:href="#mfa2be6f406" y="628.6248"/>
      </g>
     </g>
     <g id="text_3">
      <!-- 0.4 -->
      <defs>
       <path d="M 37.796875 64.3125 
L 12.890625 25.390625 
L 37.796875 25.390625 
z
M 35.203125 72.90625 
L 47.609375 72.90625 
L 47.609375 25.390625 
L 58.015625 25.390625 
L 58.015625 17.1875 
L 47.609375 17.1875 
L 47.609375 0 
L 37.796875 0 
L 37.796875 17.1875 
L 4.890625 17.1875 
L 4.890625 26.703125 
z
" id="DejaVuSans-34"/>
      </defs>
      <g transform="translate(598.724065 643.223238)scale(0.1 -0.1)">
       <use xlink:href="#DejaVuSans-30"/>
       <use x="63.623047" xlink:href="#DejaVuSans-2e"/>
       <use x="95.410156" xlink:href="#DejaVuSans-34"/>
      </g>
     </g>
    </g>
    <g id="xtick_4">
     <g id="line2d_4">
      <g>
       <use style="stroke:#000000;stroke-width:0.8;" x="804.22763" xlink:href="#mfa2be6f406" y="628.6248"/>
      </g>
     </g>
     <g id="text_4">
      <!-- 0.6 -->
      <defs>
       <path d="M 33.015625 40.375 
Q 26.375 40.375 22.484375 35.828125 
Q 18.609375 31.296875 18.609375 23.390625 
Q 18.609375 15.53125 22.484375 10.953125 
Q 26.375 6.390625 33.015625 6.390625 
Q 39.65625 6.390625 43.53125 10.953125 
Q 47.40625 15.53125 47.40625 23.390625 
Q 47.40625 31.296875 43.53125 35.828125 
Q 39.65625 40.375 33.015625 40.375 
z
M 52.59375 71.296875 
L 52.59375 62.3125 
Q 48.875 64.0625 45.09375 64.984375 
Q 41.3125 65.921875 37.59375 65.921875 
Q 27.828125 65.921875 22.671875 59.328125 
Q 17.53125 52.734375 16.796875 39.40625 
Q 19.671875 43.65625 24.015625 45.921875 
Q 28.375 48.1875 33.59375 48.1875 
Q 44.578125 48.1875 50.953125 41.515625 
Q 57.328125 34.859375 57.328125 23.390625 
Q 57.328125 12.15625 50.6875 5.359375 
Q 44.046875 -1.421875 33.015625 -1.421875 
Q 20.359375 -1.421875 13.671875 8.265625 
Q 6.984375 17.96875 6.984375 36.375 
Q 6.984375 53.65625 15.1875 63.9375 
Q 23.390625 74.21875 37.203125 74.21875 
Q 40.921875 74.21875 44.703125 73.484375 
Q 48.484375 72.75 52.59375 71.296875 
z
" id="DejaVuSans-36"/>
      </defs>
      <g transform="translate(796.276068 643.223238)scale(0.1 -0.1)">
       <use xlink:href="#DejaVuSans-30"/>
       <use x="63.623047" xlink:href="#DejaVuSans-2e"/>
       <use x="95.410156" xlink:href="#DejaVuSans-36"/>
      </g>
     </g>
    </g>
    <g id="xtick_5">
     <g id="line2d_5">
      <g>
       <use style="stroke:#000000;stroke-width:0.8;" x="1001.779633" xlink:href="#mfa2be6f406" y="628.6248"/>
      </g>
     </g>
     <g id="text_5">
      <!-- 0.8 -->
      <defs>
       <path d="M 31.78125 34.625 
Q 24.75 34.625 20.71875 30.859375 
Q 16.703125 27.09375 16.703125 20.515625 
Q 16.703125 13.921875 20.71875 10.15625 
Q 24.75 6.390625 31.78125 6.390625 
Q 38.8125 6.390625 42.859375 10.171875 
Q 46.921875 13.96875 46.921875 20.515625 
Q 46.921875 27.09375 42.890625 30.859375 
Q 38.875 34.625 31.78125 34.625 
z
M 21.921875 38.8125 
Q 15.578125 40.375 12.03125 44.71875 
Q 8.5 49.078125 8.5 55.328125 
Q 8.5 64.0625 14.71875 69.140625 
Q 20.953125 74.21875 31.78125 74.21875 
Q 42.671875 74.21875 48.875 69.140625 
Q 55.078125 64.0625 55.078125 55.328125 
Q 55.078125 49.078125 51.53125 44.71875 
Q 48 40.375 41.703125 38.8125 
Q 48.828125 37.15625 52.796875 32.3125 
Q 56.78125 27.484375 56.78125 20.515625 
Q 56.78125 9.90625 50.3125 4.234375 
Q 43.84375 -1.421875 31.78125 -1.421875 
Q 19.734375 -1.421875 13.25 4.234375 
Q 6.78125 9.90625 6.78125 20.515625 
Q 6.78125 27.484375 10.78125 32.3125 
Q 14.796875 37.15625 21.921875 38.8125 
z
M 18.3125 54.390625 
Q 18.3125 48.734375 21.84375 45.5625 
Q 25.390625 42.390625 31.78125 42.390625 
Q 38.140625 42.390625 41.71875 45.5625 
Q 45.3125 48.734375 45.3125 54.390625 
Q 45.3125 60.0625 41.71875 63.234375 
Q 38.140625 66.40625 31.78125 66.40625 
Q 25.390625 66.40625 21.84375 63.234375 
Q 18.3125 60.0625 18.3125 54.390625 
z
" id="DejaVuSans-38"/>
      </defs>
      <g transform="translate(993.82807 643.223238)scale(0.1 -0.1)">
       <use xlink:href="#DejaVuSans-30"/>
       <use x="63.623047" xlink:href="#DejaVuSans-2e"/>
       <use x="95.410156" xlink:href="#DejaVuSans-38"/>
      </g>
     </g>
    </g>
    <g id="xtick_6">
     <g id="line2d_6">
      <g>
       <use style="stroke:#000000;stroke-width:0.8;" x="1199.331635" xlink:href="#mfa2be6f406" y="628.6248"/>
      </g>
     </g>
     <g id="text_6">
      <!-- 1.0 -->
      <defs>
       <path d="M 12.40625 8.296875 
L 28.515625 8.296875 
L 28.515625 63.921875 
L 10.984375 60.40625 
L 10.984375 69.390625 
L 28.421875 72.90625 
L 38.28125 72.90625 
L 38.28125 8.296875 
L 54.390625 8.296875 
L 54.390625 0 
L 12.40625 0 
z
" id="DejaVuSans-31"/>
      </defs>
      <g transform="translate(1191.380073 643.223238)scale(0.1 -0.1)">
       <use xlink:href="#DejaVuSans-31"/>
       <use x="63.623047" xlink:href="#DejaVuSans-2e"/>
       <use x="95.410156" xlink:href="#DejaVuSans-30"/>
      </g>
     </g>
    </g>
    <g id="text_7">
     <!-- X -->
     <defs>
      <path d="M 6.296875 72.90625 
L 16.890625 72.90625 
L 35.015625 45.796875 
L 53.21875 72.90625 
L 63.8125 72.90625 
L 40.375 37.890625 
L 65.375 0 
L 54.78125 0 
L 34.28125 31 
L 13.625 0 
L 2.984375 0 
L 29 38.921875 
z
" id="DejaVuSans-58"/>
     </defs>
     <g transform="translate(705.055 656.901363)scale(0.1 -0.1)">
      <use xlink:href="#DejaVuSans-58"/>
     </g>
    </g>
   </g>
   <g id="matplotlib.axis_2">
    <g id="ytick_1">
     <g id="line2d_7">
      <defs>
       <path d="M 0 0 
L -3.5 0 
" id="md46c26632e" style="stroke:#000000;stroke-width:0.8;"/>
      </defs>
      <g>
       <use style="stroke:#000000;stroke-width:0.8;" x="172.8" xlink:href="#md46c26632e" y="596.041459"/>
      </g>
     </g>
     <g id="text_8">
      <!-- 0.0 -->
      <g transform="translate(149.896875 599.840678)scale(0.1 -0.1)">
       <use xlink:href="#DejaVuSans-30"/>
       <use x="63.623047" xlink:href="#DejaVuSans-2e"/>
       <use x="95.410156" xlink:href="#DejaVuSans-30"/>
      </g>
     </g>
    </g>
    <g id="ytick_2">
     <g id="line2d_8">
      <g>
       <use style="stroke:#000000;stroke-width:0.8;" x="172.8" xlink:href="#md46c26632e" y="517.742525"/>
      </g>
     </g>
     <g id="text_9">
      <!-- 0.5 -->
      <defs>
       <path d="M 10.796875 72.90625 
L 49.515625 72.90625 
L 49.515625 64.59375 
L 19.828125 64.59375 
L 19.828125 46.734375 
Q 21.96875 47.46875 24.109375 47.828125 
Q 26.265625 48.1875 28.421875 48.1875 
Q 40.625 48.1875 47.75 41.5 
Q 54.890625 34.8125 54.890625 23.390625 
Q 54.890625 11.625 47.5625 5.09375 
Q 40.234375 -1.421875 26.90625 -1.421875 
Q 22.3125 -1.421875 17.546875 -0.640625 
Q 12.796875 0.140625 7.71875 1.703125 
L 7.71875 11.625 
Q 12.109375 9.234375 16.796875 8.0625 
Q 21.484375 6.890625 26.703125 6.890625 
Q 35.15625 6.890625 40.078125 11.328125 
Q 45.015625 15.765625 45.015625 23.390625 
Q 45.015625 31 40.078125 35.4375 
Q 35.15625 39.890625 26.703125 39.890625 
Q 22.75 39.890625 18.8125 39.015625 
Q 14.890625 38.140625 10.796875 36.28125 
z
" id="DejaVuSans-35"/>
      </defs>
      <g transform="translate(149.896875 521.541743)scale(0.1 -0.1)">
       <use xlink:href="#DejaVuSans-30"/>
       <use x="63.623047" xlink:href="#DejaVuSans-2e"/>
       <use x="95.410156" xlink:href="#DejaVuSans-35"/>
      </g>
     </g>
    </g>
    <g id="ytick_3">
     <g id="line2d_9">
      <g>
       <use style="stroke:#000000;stroke-width:0.8;" x="172.8" xlink:href="#md46c26632e" y="439.44359"/>
      </g>
     </g>
     <g id="text_10">
      <!-- 1.0 -->
      <g transform="translate(149.896875 443.242809)scale(0.1 -0.1)">
       <use xlink:href="#DejaVuSans-31"/>
       <use x="63.623047" xlink:href="#DejaVuSans-2e"/>
       <use x="95.410156" xlink:href="#DejaVuSans-30"/>
      </g>
     </g>
    </g>
    <g id="ytick_4">
     <g id="line2d_10">
      <g>
       <use style="stroke:#000000;stroke-width:0.8;" x="172.8" xlink:href="#md46c26632e" y="361.144655"/>
      </g>
     </g>
     <g id="text_11">
      <!-- 1.5 -->
      <g transform="translate(149.896875 364.943874)scale(0.1 -0.1)">
       <use xlink:href="#DejaVuSans-31"/>
       <use x="63.623047" xlink:href="#DejaVuSans-2e"/>
       <use x="95.410156" xlink:href="#DejaVuSans-35"/>
      </g>
     </g>
    </g>
    <g id="ytick_5">
     <g id="line2d_11">
      <g>
       <use style="stroke:#000000;stroke-width:0.8;" x="172.8" xlink:href="#md46c26632e" y="282.84572"/>
      </g>
     </g>
     <g id="text_12">
      <!-- 2.0 -->
      <g transform="translate(149.896875 286.644939)scale(0.1 -0.1)">
       <use xlink:href="#DejaVuSans-32"/>
       <use x="63.623047" xlink:href="#DejaVuSans-2e"/>
       <use x="95.410156" xlink:href="#DejaVuSans-30"/>
      </g>
     </g>
    </g>
    <g id="ytick_6">
     <g id="line2d_12">
      <g>
       <use style="stroke:#000000;stroke-width:0.8;" x="172.8" xlink:href="#md46c26632e" y="204.546785"/>
      </g>
     </g>
     <g id="text_13">
      <!-- 2.5 -->
      <g transform="translate(149.896875 208.346004)scale(0.1 -0.1)">
       <use xlink:href="#DejaVuSans-32"/>
       <use x="63.623047" xlink:href="#DejaVuSans-2e"/>
       <use x="95.410156" xlink:href="#DejaVuSans-35"/>
      </g>
     </g>
    </g>
    <g id="ytick_7">
     <g id="line2d_13">
      <g>
       <use style="stroke:#000000;stroke-width:0.8;" x="172.8" xlink:href="#md46c26632e" y="126.247851"/>
      </g>
     </g>
     <g id="text_14">
      <!-- 3.0 -->
      <defs>
       <path d="M 40.578125 39.3125 
Q 47.65625 37.796875 51.625 33 
Q 55.609375 28.21875 55.609375 21.1875 
Q 55.609375 10.40625 48.1875 4.484375 
Q 40.765625 -1.421875 27.09375 -1.421875 
Q 22.515625 -1.421875 17.65625 -0.515625 
Q 12.796875 0.390625 7.625 2.203125 
L 7.625 11.71875 
Q 11.71875 9.328125 16.59375 8.109375 
Q 21.484375 6.890625 26.8125 6.890625 
Q 36.078125 6.890625 40.9375 10.546875 
Q 45.796875 14.203125 45.796875 21.1875 
Q 45.796875 27.640625 41.28125 31.265625 
Q 36.765625 34.90625 28.71875 34.90625 
L 20.21875 34.90625 
L 20.21875 43.015625 
L 29.109375 43.015625 
Q 36.375 43.015625 40.234375 45.921875 
Q 44.09375 48.828125 44.09375 54.296875 
Q 44.09375 59.90625 40.109375 62.90625 
Q 36.140625 65.921875 28.71875 65.921875 
Q 24.65625 65.921875 20.015625 65.03125 
Q 15.375 64.15625 9.8125 62.3125 
L 9.8125 71.09375 
Q 15.4375 72.65625 20.34375 73.4375 
Q 25.25 74.21875 29.59375 74.21875 
Q 40.828125 74.21875 47.359375 69.109375 
Q 53.90625 64.015625 53.90625 55.328125 
Q 53.90625 49.265625 50.4375 45.09375 
Q 46.96875 40.921875 40.578125 39.3125 
z
" id="DejaVuSans-33"/>
      </defs>
      <g transform="translate(149.896875 130.047069)scale(0.1 -0.1)">
       <use xlink:href="#DejaVuSans-33"/>
       <use x="63.623047" xlink:href="#DejaVuSans-2e"/>
       <use x="95.410156" xlink:href="#DejaVuSans-30"/>
      </g>
     </g>
    </g>
    <g id="text_15">
     <!-- Y -->
     <defs>
      <path d="M -0.203125 72.90625 
L 10.40625 72.90625 
L 30.609375 42.921875 
L 50.6875 72.90625 
L 61.28125 72.90625 
L 35.5 34.71875 
L 35.5 0 
L 25.59375 0 
L 25.59375 34.71875 
z
" id="DejaVuSans-59"/>
     </defs>
     <g transform="translate(143.817187 359.745506)rotate(-90)scale(0.1 -0.1)">
      <use xlink:href="#DejaVuSans-59"/>
     </g>
    </g>
   </g>
   <g id="line2d_14">
    <path clip-path="url(#pf351a04bc0)" d="M 222.202266 594.355087 
L 235.169059 593.997678 
L 248.039481 593.482192 
L 273.59187 591.984213 
L 288.326386 590.833496 
L 299.951978 589.77745 
L 317.201581 587.969778 
L 336.713207 585.578361 
L 351.675839 583.495158 
L 369.457578 580.738025 
L 383.923708 578.269504 
L 401.289667 575.038957 
L 414.612654 572.362885 
L 431.982509 568.616263 
L 446.889611 565.168279 
L 458.457633 562.344584 
L 472.694121 558.691961 
L 485.522065 555.232914 
L 500.079342 551.114861 
L 517.512259 545.913771 
L 534.526174 540.554407 
L 547.815266 536.173711 
L 564.962715 530.268855 
L 578.131965 525.540944 
L 595.317622 519.118946 
L 615.327737 511.281737 
L 629.140044 505.646169 
L 643.848723 499.442101 
L 662.84457 491.120255 
L 679.292417 483.632874 
L 686.437271 480.298919 
L 710.777383 468.57084 
L 729.883515 458.963482 
L 748.411921 449.309581 
L 763.205995 441.363106 
L 786.011063 428.69916 
L 802.801302 419.053984 
L 821.644535 407.904914 
L 837.38137 398.330789 
L 855.547908 386.980757 
L 869.004961 378.367404 
L 887.585163 366.187197 
L 906.174118 353.667284 
L 909.844382 351.155822 
L 933.245423 334.836926 
L 951.143171 321.998518 
L 965.216271 311.68613 
L 982.528684 298.737426 
L 1002.150926 283.710794 
L 1020.364695 269.429666 
L 1039.345156 254.206156 
L 1058.036944 238.87382 
L 1076.871075 223.083104 
L 1095.980387 206.711205 
L 1117.882809 187.512134 
L 1126.27488 180.032986 
L 1145.72375 162.438117 
L 1167.352011 142.442186 
L 1188.553524 122.401881 
L 1194.757734 116.455291 
L 1194.757734 116.455291 
" style="fill:none;stroke:#1f77b4;stroke-linecap:square;stroke-width:1.5;"/>
   </g>
   <g id="line2d_15">
    <path clip-path="url(#pf351a04bc0)" d="M 222.202266 595.330935 
L 235.169059 594.92128 
L 248.039481 594.354633 
L 273.59187 592.757139 
L 288.326386 591.550282 
L 299.951978 590.450584 
L 317.201581 588.579186 
L 336.713207 586.117189 
L 351.675839 583.980943 
L 369.457578 581.161993 
L 383.923708 578.64416 
L 401.289667 575.355574 
L 414.612654 572.635833 
L 431.982509 568.833393 
L 446.889611 565.338515 
L 458.457633 562.479071 
L 472.694121 558.783223 
L 485.522065 555.285955 
L 500.079342 551.125364 
L 517.512259 545.874502 
L 534.526174 540.46779 
L 547.815266 536.050956 
L 564.962715 530.100565 
L 578.131965 525.338519 
L 595.317622 518.873069 
L 615.327737 510.986826 
L 629.140044 505.318391 
L 643.848723 499.080203 
L 662.84457 490.715633 
L 679.292417 483.19248 
L 686.437271 479.84334 
L 710.777383 468.065135 
L 729.883515 458.420169 
L 748.411921 448.73126 
L 763.205995 440.757866 
L 786.011063 428.05422 
L 802.801302 418.381209 
L 821.644535 407.202307 
L 837.38137 397.604409 
L 855.547908 386.228224 
L 869.004961 377.596391 
L 887.585163 365.391914 
L 906.174118 352.849168 
L 909.844382 350.33337 
L 933.245423 333.98815 
L 951.143171 321.131158 
L 965.216271 310.805102 
L 982.528684 297.84072 
L 1002.150926 282.797838 
L 1020.364695 268.503071 
L 1039.345156 253.266828 
L 1058.036944 237.923428 
L 1076.871075 222.123045 
L 1095.980387 205.742859 
L 1117.882809 186.53617 
L 1126.27488 179.054636 
L 1145.72375 161.455373 
L 1167.352011 141.456418 
L 1189.035982 120.953959 
L 1194.757734 115.468508 
L 1194.757734 115.468508 
" style="fill:none;stroke:#ff7f0e;stroke-linecap:square;stroke-width:1.5;"/>
   </g>
   <g id="patch_3">
    <path d="M 172.8 628.6248 
L 172.8 84.7584 
" style="fill:none;stroke:#000000;stroke-linecap:square;stroke-linejoin:miter;stroke-width:0.8;"/>
   </g>
   <g id="patch_4">
    <path d="M 1244.16 628.6248 
L 1244.16 84.7584 
" style="fill:none;stroke:#000000;stroke-linecap:square;stroke-linejoin:miter;stroke-width:0.8;"/>
   </g>
   <g id="patch_5">
    <path d="M 172.8 628.6248 
L 1244.16 628.6248 
" style="fill:none;stroke:#000000;stroke-linecap:square;stroke-linejoin:miter;stroke-width:0.8;"/>
   </g>
   <g id="patch_6">
    <path d="M 172.8 84.7584 
L 1244.16 84.7584 
" style="fill:none;stroke:#000000;stroke-linecap:square;stroke-linejoin:miter;stroke-width:0.8;"/>
   </g>
   <g id="text_16">
    <!-- h_star: -->
    <defs>
     <path d="M 54.890625 33.015625 
L 54.890625 0 
L 45.90625 0 
L 45.90625 32.71875 
Q 45.90625 40.484375 42.875 44.328125 
Q 39.84375 48.1875 33.796875 48.1875 
Q 26.515625 48.1875 22.3125 43.546875 
Q 18.109375 38.921875 18.109375 30.90625 
L 18.109375 0 
L 9.078125 0 
L 9.078125 75.984375 
L 18.109375 75.984375 
L 18.109375 46.1875 
Q 21.34375 51.125 25.703125 53.5625 
Q 30.078125 56 35.796875 56 
Q 45.21875 56 50.046875 50.171875 
Q 54.890625 44.34375 54.890625 33.015625 
z
" id="DejaVuSans-68"/>
     <path d="M 50.984375 -16.609375 
L 50.984375 -23.578125 
L -0.984375 -23.578125 
L -0.984375 -16.609375 
z
" id="DejaVuSans-5f"/>
     <path d="M 44.28125 53.078125 
L 44.28125 44.578125 
Q 40.484375 46.53125 36.375 47.5 
Q 32.28125 48.484375 27.875 48.484375 
Q 21.1875 48.484375 17.84375 46.4375 
Q 14.5 44.390625 14.5 40.28125 
Q 14.5 37.15625 16.890625 35.375 
Q 19.28125 33.59375 26.515625 31.984375 
L 29.59375 31.296875 
Q 39.15625 29.25 43.1875 25.515625 
Q 47.21875 21.78125 47.21875 15.09375 
Q 47.21875 7.46875 41.1875 3.015625 
Q 35.15625 -1.421875 24.609375 -1.421875 
Q 20.21875 -1.421875 15.453125 -0.5625 
Q 10.6875 0.296875 5.421875 2 
L 5.421875 11.28125 
Q 10.40625 8.6875 15.234375 7.390625 
Q 20.0625 6.109375 24.8125 6.109375 
Q 31.15625 6.109375 34.5625 8.28125 
Q 37.984375 10.453125 37.984375 14.40625 
Q 37.984375 18.0625 35.515625 20.015625 
Q 33.0625 21.96875 24.703125 23.78125 
L 21.578125 24.515625 
Q 13.234375 26.265625 9.515625 29.90625 
Q 5.8125 33.546875 5.8125 39.890625 
Q 5.8125 47.609375 11.28125 51.796875 
Q 16.75 56 26.8125 56 
Q 31.78125 56 36.171875 55.265625 
Q 40.578125 54.546875 44.28125 53.078125 
z
" id="DejaVuSans-73"/>
     <path d="M 18.3125 70.21875 
L 18.3125 54.6875 
L 36.8125 54.6875 
L 36.8125 47.703125 
L 18.3125 47.703125 
L 18.3125 18.015625 
Q 18.3125 11.328125 20.140625 9.421875 
Q 21.96875 7.515625 27.59375 7.515625 
L 36.8125 7.515625 
L 36.8125 0 
L 27.59375 0 
Q 17.1875 0 13.234375 3.875 
Q 9.28125 7.765625 9.28125 18.015625 
L 9.28125 47.703125 
L 2.6875 47.703125 
L 2.6875 54.6875 
L 9.28125 54.6875 
L 9.28125 70.21875 
z
" id="DejaVuSans-74"/>
     <path d="M 34.28125 27.484375 
Q 23.390625 27.484375 19.1875 25 
Q 14.984375 22.515625 14.984375 16.5 
Q 14.984375 11.71875 18.140625 8.90625 
Q 21.296875 6.109375 26.703125 6.109375 
Q 34.1875 6.109375 38.703125 11.40625 
Q 43.21875 16.703125 43.21875 25.484375 
L 43.21875 27.484375 
z
M 52.203125 31.203125 
L 52.203125 0 
L 43.21875 0 
L 43.21875 8.296875 
Q 40.140625 3.328125 35.546875 0.953125 
Q 30.953125 -1.421875 24.3125 -1.421875 
Q 15.921875 -1.421875 10.953125 3.296875 
Q 6 8.015625 6 15.921875 
Q 6 25.140625 12.171875 29.828125 
Q 18.359375 34.515625 30.609375 34.515625 
L 43.21875 34.515625 
L 43.21875 35.40625 
Q 43.21875 41.609375 39.140625 45 
Q 35.0625 48.390625 27.6875 48.390625 
Q 23 48.390625 18.546875 47.265625 
Q 14.109375 46.140625 10.015625 43.890625 
L 10.015625 52.203125 
Q 14.9375 54.109375 19.578125 55.046875 
Q 24.21875 56 28.609375 56 
Q 40.484375 56 46.34375 49.84375 
Q 52.203125 43.703125 52.203125 31.203125 
z
" id="DejaVuSans-61"/>
     <path d="M 41.109375 46.296875 
Q 39.59375 47.171875 37.8125 47.578125 
Q 36.03125 48 33.890625 48 
Q 26.265625 48 22.1875 43.046875 
Q 18.109375 38.09375 18.109375 28.8125 
L 18.109375 0 
L 9.078125 0 
L 9.078125 54.6875 
L 18.109375 54.6875 
L 18.109375 46.1875 
Q 20.953125 51.171875 25.484375 53.578125 
Q 30.03125 56 36.53125 56 
Q 37.453125 56 38.578125 55.875 
Q 39.703125 55.765625 41.0625 55.515625 
z
" id="DejaVuSans-72"/>
     <path d="M 11.71875 12.40625 
L 22.015625 12.40625 
L 22.015625 0 
L 11.71875 0 
z
M 11.71875 51.703125 
L 22.015625 51.703125 
L 22.015625 39.3125 
L 11.71875 39.3125 
z
" id="DejaVuSans-3a"/>
    </defs>
    <g transform="translate(1001.779633 511.006687)scale(0.1 -0.1)">
     <use xlink:href="#DejaVuSans-68"/>
     <use x="63.378906" xlink:href="#DejaVuSans-5f"/>
     <use x="113.378906" xlink:href="#DejaVuSans-73"/>
     <use x="165.478516" xlink:href="#DejaVuSans-74"/>
     <use x="204.6875" xlink:href="#DejaVuSans-61"/>
     <use x="265.966797" xlink:href="#DejaVuSans-72"/>
     <use x="307.064453" xlink:href="#DejaVuSans-3a"/>
    </g>
    <!--        2 -->
    <defs>
     <path id="DejaVuSans-20"/>
    </defs>
    <g transform="translate(1001.779633 522.482624)scale(0.1 -0.1)">
     <use xlink:href="#DejaVuSans-20"/>
     <use x="31.787109" xlink:href="#DejaVuSans-20"/>
     <use x="63.574219" xlink:href="#DejaVuSans-20"/>
     <use x="95.361328" xlink:href="#DejaVuSans-20"/>
     <use x="127.148438" xlink:href="#DejaVuSans-20"/>
     <use x="158.935547" xlink:href="#DejaVuSans-20"/>
     <use x="190.722656" xlink:href="#DejaVuSans-20"/>
     <use x="222.509766" xlink:href="#DejaVuSans-32"/>
    </g>
    <!-- 3.012 x + 0.0695 x + 0.009672 -->
    <defs>
     <path d="M 54.890625 54.6875 
L 35.109375 28.078125 
L 55.90625 0 
L 45.3125 0 
L 29.390625 21.484375 
L 13.484375 0 
L 2.875 0 
L 24.125 28.609375 
L 4.6875 54.6875 
L 15.28125 54.6875 
L 29.78125 35.203125 
L 44.28125 54.6875 
z
" id="DejaVuSans-78"/>
     <path d="M 46 62.703125 
L 46 35.5 
L 73.1875 35.5 
L 73.1875 27.203125 
L 46 27.203125 
L 46 0 
L 37.796875 0 
L 37.796875 27.203125 
L 10.59375 27.203125 
L 10.59375 35.5 
L 37.796875 35.5 
L 37.796875 62.703125 
z
" id="DejaVuSans-2b"/>
     <path d="M 10.984375 1.515625 
L 10.984375 10.5 
Q 14.703125 8.734375 18.5 7.8125 
Q 22.3125 6.890625 25.984375 6.890625 
Q 35.75 6.890625 40.890625 13.453125 
Q 46.046875 20.015625 46.78125 33.40625 
Q 43.953125 29.203125 39.59375 26.953125 
Q 35.25 24.703125 29.984375 24.703125 
Q 19.046875 24.703125 12.671875 31.3125 
Q 6.296875 37.9375 6.296875 49.421875 
Q 6.296875 60.640625 12.9375 67.421875 
Q 19.578125 74.21875 30.609375 74.21875 
Q 43.265625 74.21875 49.921875 64.515625 
Q 56.59375 54.828125 56.59375 36.375 
Q 56.59375 19.140625 48.40625 8.859375 
Q 40.234375 -1.421875 26.421875 -1.421875 
Q 22.703125 -1.421875 18.890625 -0.6875 
Q 15.09375 0.046875 10.984375 1.515625 
z
M 30.609375 32.421875 
Q 37.25 32.421875 41.125 36.953125 
Q 45.015625 41.5 45.015625 49.421875 
Q 45.015625 57.28125 41.125 61.84375 
Q 37.25 66.40625 30.609375 66.40625 
Q 23.96875 66.40625 20.09375 61.84375 
Q 16.21875 57.28125 16.21875 49.421875 
Q 16.21875 41.5 20.09375 36.953125 
Q 23.96875 32.421875 30.609375 32.421875 
z
" id="DejaVuSans-39"/>
     <path d="M 8.203125 72.90625 
L 55.078125 72.90625 
L 55.078125 68.703125 
L 28.609375 0 
L 18.3125 0 
L 43.21875 64.59375 
L 8.203125 64.59375 
z
" id="DejaVuSans-37"/>
    </defs>
    <g transform="translate(1001.779633 533.680437)scale(0.1 -0.1)">
     <use xlink:href="#DejaVuSans-33"/>
     <use x="63.623047" xlink:href="#DejaVuSans-2e"/>
     <use x="95.410156" xlink:href="#DejaVuSans-30"/>
     <use x="159.033203" xlink:href="#DejaVuSans-31"/>
     <use x="222.65625" xlink:href="#DejaVuSans-32"/>
     <use x="286.279297" xlink:href="#DejaVuSans-20"/>
     <use x="318.066406" xlink:href="#DejaVuSans-78"/>
     <use x="377.246094" xlink:href="#DejaVuSans-20"/>
     <use x="409.033203" xlink:href="#DejaVuSans-2b"/>
     <use x="492.822266" xlink:href="#DejaVuSans-20"/>
     <use x="524.609375" xlink:href="#DejaVuSans-30"/>
     <use x="588.232422" xlink:href="#DejaVuSans-2e"/>
     <use x="620.019531" xlink:href="#DejaVuSans-30"/>
     <use x="683.642578" xlink:href="#DejaVuSans-36"/>
     <use x="747.265625" xlink:href="#DejaVuSans-39"/>
     <use x="810.888672" xlink:href="#DejaVuSans-35"/>
     <use x="874.511719" xlink:href="#DejaVuSans-20"/>
     <use x="906.298828" xlink:href="#DejaVuSans-78"/>
     <use x="965.478516" xlink:href="#DejaVuSans-20"/>
     <use x="997.265625" xlink:href="#DejaVuSans-2b"/>
     <use x="1081.054688" xlink:href="#DejaVuSans-20"/>
     <use x="1112.841797" xlink:href="#DejaVuSans-30"/>
     <use x="1176.464844" xlink:href="#DejaVuSans-2e"/>
     <use x="1208.251953" xlink:href="#DejaVuSans-30"/>
     <use x="1271.875" xlink:href="#DejaVuSans-30"/>
     <use x="1335.498047" xlink:href="#DejaVuSans-39"/>
     <use x="1399.121094" xlink:href="#DejaVuSans-36"/>
     <use x="1462.744141" xlink:href="#DejaVuSans-37"/>
     <use x="1526.367188" xlink:href="#DejaVuSans-32"/>
    </g>
   </g>
   <g id="text_17">
    <!-- h_cv: -->
    <defs>
     <path d="M 48.78125 52.59375 
L 48.78125 44.1875 
Q 44.96875 46.296875 41.140625 47.34375 
Q 37.3125 48.390625 33.40625 48.390625 
Q 24.65625 48.390625 19.8125 42.84375 
Q 14.984375 37.3125 14.984375 27.296875 
Q 14.984375 17.28125 19.8125 11.734375 
Q 24.65625 6.203125 33.40625 6.203125 
Q 37.3125 6.203125 41.140625 7.25 
Q 44.96875 8.296875 48.78125 10.40625 
L 48.78125 2.09375 
Q 45.015625 0.34375 40.984375 -0.53125 
Q 36.96875 -1.421875 32.421875 -1.421875 
Q 20.0625 -1.421875 12.78125 6.34375 
Q 5.515625 14.109375 5.515625 27.296875 
Q 5.515625 40.671875 12.859375 48.328125 
Q 20.21875 56 33.015625 56 
Q 37.15625 56 41.109375 55.140625 
Q 45.0625 54.296875 48.78125 52.59375 
z
" id="DejaVuSans-63"/>
     <path d="M 2.984375 54.6875 
L 12.5 54.6875 
L 29.59375 8.796875 
L 46.6875 54.6875 
L 56.203125 54.6875 
L 35.6875 0 
L 23.484375 0 
z
" id="DejaVuSans-76"/>
    </defs>
    <g transform="translate(1001.779633 573.645834)scale(0.1 -0.1)">
     <use xlink:href="#DejaVuSans-68"/>
     <use x="63.378906" xlink:href="#DejaVuSans-5f"/>
     <use x="113.378906" xlink:href="#DejaVuSans-63"/>
     <use x="168.359375" xlink:href="#DejaVuSans-76"/>
     <use x="227.460938" xlink:href="#DejaVuSans-3a"/>
    </g>
    <!--        2 -->
    <g transform="translate(1001.779633 585.121772)scale(0.1 -0.1)">
     <use xlink:href="#DejaVuSans-20"/>
     <use x="31.787109" xlink:href="#DejaVuSans-20"/>
     <use x="63.574219" xlink:href="#DejaVuSans-20"/>
     <use x="95.361328" xlink:href="#DejaVuSans-20"/>
     <use x="127.148438" xlink:href="#DejaVuSans-20"/>
     <use x="158.935547" xlink:href="#DejaVuSans-20"/>
     <use x="190.722656" xlink:href="#DejaVuSans-20"/>
     <use x="222.509766" xlink:href="#DejaVuSans-32"/>
    </g>
    <!-- 2.998 x + 0.09537 x + 0.003164 -->
    <g transform="translate(1001.779633 596.319584)scale(0.1 -0.1)">
     <use xlink:href="#DejaVuSans-32"/>
     <use x="63.623047" xlink:href="#DejaVuSans-2e"/>
     <use x="95.410156" xlink:href="#DejaVuSans-39"/>
     <use x="159.033203" xlink:href="#DejaVuSans-39"/>
     <use x="222.65625" xlink:href="#DejaVuSans-38"/>
     <use x="286.279297" xlink:href="#DejaVuSans-20"/>
     <use x="318.066406" xlink:href="#DejaVuSans-78"/>
     <use x="377.246094" xlink:href="#DejaVuSans-20"/>
     <use x="409.033203" xlink:href="#DejaVuSans-2b"/>
     <use x="492.822266" xlink:href="#DejaVuSans-20"/>
     <use x="524.609375" xlink:href="#DejaVuSans-30"/>
     <use x="588.232422" xlink:href="#DejaVuSans-2e"/>
     <use x="620.019531" xlink:href="#DejaVuSans-30"/>
     <use x="683.642578" xlink:href="#DejaVuSans-39"/>
     <use x="747.265625" xlink:href="#DejaVuSans-35"/>
     <use x="810.888672" xlink:href="#DejaVuSans-33"/>
     <use x="874.511719" xlink:href="#DejaVuSans-37"/>
     <use x="938.134766" xlink:href="#DejaVuSans-20"/>
     <use x="969.921875" xlink:href="#DejaVuSans-78"/>
     <use x="1029.101562" xlink:href="#DejaVuSans-20"/>
     <use x="1060.888672" xlink:href="#DejaVuSans-2b"/>
     <use x="1144.677734" xlink:href="#DejaVuSans-20"/>
     <use x="1176.464844" xlink:href="#DejaVuSans-30"/>
     <use x="1240.087891" xlink:href="#DejaVuSans-2e"/>
     <use x="1271.875" xlink:href="#DejaVuSans-30"/>
     <use x="1335.498047" xlink:href="#DejaVuSans-30"/>
     <use x="1399.121094" xlink:href="#DejaVuSans-33"/>
     <use x="1462.744141" xlink:href="#DejaVuSans-31"/>
     <use x="1526.367188" xlink:href="#DejaVuSans-36"/>
     <use x="1589.990234" xlink:href="#DejaVuSans-34"/>
    </g>
   </g>
   <g id="text_18">
    <!-- All data -->
    <defs>
     <path d="M 34.1875 63.1875 
L 20.796875 26.90625 
L 47.609375 26.90625 
z
M 28.609375 72.90625 
L 39.796875 72.90625 
L 67.578125 0 
L 57.328125 0 
L 50.6875 18.703125 
L 17.828125 18.703125 
L 11.1875 0 
L 0.78125 0 
z
" id="DejaVuSans-41"/>
     <path d="M 9.421875 75.984375 
L 18.40625 75.984375 
L 18.40625 0 
L 9.421875 0 
z
" id="DejaVuSans-6c"/>
     <path d="M 45.40625 46.390625 
L 45.40625 75.984375 
L 54.390625 75.984375 
L 54.390625 0 
L 45.40625 0 
L 45.40625 8.203125 
Q 42.578125 3.328125 38.25 0.953125 
Q 33.9375 -1.421875 27.875 -1.421875 
Q 17.96875 -1.421875 11.734375 6.484375 
Q 5.515625 14.40625 5.515625 27.296875 
Q 5.515625 40.1875 11.734375 48.09375 
Q 17.96875 56 27.875 56 
Q 33.9375 56 38.25 53.625 
Q 42.578125 51.265625 45.40625 46.390625 
z
M 14.796875 27.296875 
Q 14.796875 17.390625 18.875 11.75 
Q 22.953125 6.109375 30.078125 6.109375 
Q 37.203125 6.109375 41.296875 11.75 
Q 45.40625 17.390625 45.40625 27.296875 
Q 45.40625 37.203125 41.296875 42.84375 
Q 37.203125 48.484375 30.078125 48.484375 
Q 22.953125 48.484375 18.875 42.84375 
Q 14.796875 37.203125 14.796875 27.296875 
z
" id="DejaVuSans-64"/>
    </defs>
    <g transform="translate(685.62 78.7584)scale(0.12 -0.12)">
     <use xlink:href="#DejaVuSans-41"/>
     <use x="68.408203" xlink:href="#DejaVuSans-6c"/>
     <use x="96.191406" xlink:href="#DejaVuSans-6c"/>
     <use x="123.974609" xlink:href="#DejaVuSans-20"/>
     <use x="155.761719" xlink:href="#DejaVuSans-64"/>
     <use x="219.238281" xlink:href="#DejaVuSans-61"/>
     <use x="280.517578" xlink:href="#DejaVuSans-74"/>
     <use x="319.726562" xlink:href="#DejaVuSans-61"/>
    </g>
   </g>
   <g id="legend_1">
    <g id="patch_7">
     <path d="M 179.8 136.792775 
L 344.99375 136.792775 
Q 346.99375 136.792775 346.99375 134.792775 
L 346.99375 91.7584 
Q 346.99375 89.7584 344.99375 89.7584 
L 179.8 89.7584 
Q 177.8 89.7584 177.8 91.7584 
L 177.8 134.792775 
Q 177.8 136.792775 179.8 136.792775 
z
" style="fill:#ffffff;opacity:0.8;stroke:#cccccc;stroke-linejoin:miter;"/>
    </g>
    <g id="line2d_16">
     <path d="M 181.8 97.856837 
L 201.8 97.856837 
" style="fill:none;stroke:#1f77b4;stroke-linecap:square;stroke-width:1.5;"/>
    </g>
    <g id="line2d_17"/>
    <g id="text_19">
     <!-- fitted with validation -->
     <defs>
      <path d="M 37.109375 75.984375 
L 37.109375 68.5 
L 28.515625 68.5 
Q 23.6875 68.5 21.796875 66.546875 
Q 19.921875 64.59375 19.921875 59.515625 
L 19.921875 54.6875 
L 34.71875 54.6875 
L 34.71875 47.703125 
L 19.921875 47.703125 
L 19.921875 0 
L 10.890625 0 
L 10.890625 47.703125 
L 2.296875 47.703125 
L 2.296875 54.6875 
L 10.890625 54.6875 
L 10.890625 58.5 
Q 10.890625 67.625 15.140625 71.796875 
Q 19.390625 75.984375 28.609375 75.984375 
z
" id="DejaVuSans-66"/>
      <path d="M 9.421875 54.6875 
L 18.40625 54.6875 
L 18.40625 0 
L 9.421875 0 
z
M 9.421875 75.984375 
L 18.40625 75.984375 
L 18.40625 64.59375 
L 9.421875 64.59375 
z
" id="DejaVuSans-69"/>
      <path d="M 56.203125 29.59375 
L 56.203125 25.203125 
L 14.890625 25.203125 
Q 15.484375 15.921875 20.484375 11.0625 
Q 25.484375 6.203125 34.421875 6.203125 
Q 39.59375 6.203125 44.453125 7.46875 
Q 49.3125 8.734375 54.109375 11.28125 
L 54.109375 2.78125 
Q 49.265625 0.734375 44.1875 -0.34375 
Q 39.109375 -1.421875 33.890625 -1.421875 
Q 20.796875 -1.421875 13.15625 6.1875 
Q 5.515625 13.8125 5.515625 26.8125 
Q 5.515625 40.234375 12.765625 48.109375 
Q 20.015625 56 32.328125 56 
Q 43.359375 56 49.78125 48.890625 
Q 56.203125 41.796875 56.203125 29.59375 
z
M 47.21875 32.234375 
Q 47.125 39.59375 43.09375 43.984375 
Q 39.0625 48.390625 32.421875 48.390625 
Q 24.90625 48.390625 20.390625 44.140625 
Q 15.875 39.890625 15.1875 32.171875 
z
" id="DejaVuSans-65"/>
      <path d="M 4.203125 54.6875 
L 13.1875 54.6875 
L 24.421875 12.015625 
L 35.59375 54.6875 
L 46.1875 54.6875 
L 57.421875 12.015625 
L 68.609375 54.6875 
L 77.59375 54.6875 
L 63.28125 0 
L 52.6875 0 
L 40.921875 44.828125 
L 29.109375 0 
L 18.5 0 
z
" id="DejaVuSans-77"/>
      <path d="M 30.609375 48.390625 
Q 23.390625 48.390625 19.1875 42.75 
Q 14.984375 37.109375 14.984375 27.296875 
Q 14.984375 17.484375 19.15625 11.84375 
Q 23.34375 6.203125 30.609375 6.203125 
Q 37.796875 6.203125 41.984375 11.859375 
Q 46.1875 17.53125 46.1875 27.296875 
Q 46.1875 37.015625 41.984375 42.703125 
Q 37.796875 48.390625 30.609375 48.390625 
z
M 30.609375 56 
Q 42.328125 56 49.015625 48.375 
Q 55.71875 40.765625 55.71875 27.296875 
Q 55.71875 13.875 49.015625 6.21875 
Q 42.328125 -1.421875 30.609375 -1.421875 
Q 18.84375 -1.421875 12.171875 6.21875 
Q 5.515625 13.875 5.515625 27.296875 
Q 5.515625 40.765625 12.171875 48.375 
Q 18.84375 56 30.609375 56 
z
" id="DejaVuSans-6f"/>
      <path d="M 54.890625 33.015625 
L 54.890625 0 
L 45.90625 0 
L 45.90625 32.71875 
Q 45.90625 40.484375 42.875 44.328125 
Q 39.84375 48.1875 33.796875 48.1875 
Q 26.515625 48.1875 22.3125 43.546875 
Q 18.109375 38.921875 18.109375 30.90625 
L 18.109375 0 
L 9.078125 0 
L 9.078125 54.6875 
L 18.109375 54.6875 
L 18.109375 46.1875 
Q 21.34375 51.125 25.703125 53.5625 
Q 30.078125 56 35.796875 56 
Q 45.21875 56 50.046875 50.171875 
Q 54.890625 44.34375 54.890625 33.015625 
z
" id="DejaVuSans-6e"/>
     </defs>
     <g transform="translate(209.8 101.356837)scale(0.1 -0.1)">
      <use xlink:href="#DejaVuSans-66"/>
      <use x="35.205078" xlink:href="#DejaVuSans-69"/>
      <use x="62.988281" xlink:href="#DejaVuSans-74"/>
      <use x="102.197266" xlink:href="#DejaVuSans-74"/>
      <use x="141.40625" xlink:href="#DejaVuSans-65"/>
      <use x="202.929688" xlink:href="#DejaVuSans-64"/>
      <use x="266.40625" xlink:href="#DejaVuSans-20"/>
      <use x="298.193359" xlink:href="#DejaVuSans-77"/>
      <use x="379.980469" xlink:href="#DejaVuSans-69"/>
      <use x="407.763672" xlink:href="#DejaVuSans-74"/>
      <use x="446.972656" xlink:href="#DejaVuSans-68"/>
      <use x="510.351562" xlink:href="#DejaVuSans-20"/>
      <use x="542.138672" xlink:href="#DejaVuSans-76"/>
      <use x="601.318359" xlink:href="#DejaVuSans-61"/>
      <use x="662.597656" xlink:href="#DejaVuSans-6c"/>
      <use x="690.380859" xlink:href="#DejaVuSans-69"/>
      <use x="718.164062" xlink:href="#DejaVuSans-64"/>
      <use x="781.640625" xlink:href="#DejaVuSans-61"/>
      <use x="842.919922" xlink:href="#DejaVuSans-74"/>
      <use x="882.128906" xlink:href="#DejaVuSans-69"/>
      <use x="909.912109" xlink:href="#DejaVuSans-6f"/>
      <use x="971.09375" xlink:href="#DejaVuSans-6e"/>
     </g>
    </g>
    <g id="line2d_18">
     <path d="M 181.8 112.534963 
L 201.8 112.534963 
" style="fill:none;stroke:#ff7f0e;stroke-linecap:square;stroke-width:1.5;"/>
    </g>
    <g id="line2d_19"/>
    <g id="text_20">
     <!-- fitted with cross-validation -->
     <defs>
      <path d="M 4.890625 31.390625 
L 31.203125 31.390625 
L 31.203125 23.390625 
L 4.890625 23.390625 
z
" id="DejaVuSans-2d"/>
     </defs>
     <g transform="translate(209.8 116.034963)scale(0.1 -0.1)">
      <use xlink:href="#DejaVuSans-66"/>
      <use x="35.205078" xlink:href="#DejaVuSans-69"/>
      <use x="62.988281" xlink:href="#DejaVuSans-74"/>
      <use x="102.197266" xlink:href="#DejaVuSans-74"/>
      <use x="141.40625" xlink:href="#DejaVuSans-65"/>
      <use x="202.929688" xlink:href="#DejaVuSans-64"/>
      <use x="266.40625" xlink:href="#DejaVuSans-20"/>
      <use x="298.193359" xlink:href="#DejaVuSans-77"/>
      <use x="379.980469" xlink:href="#DejaVuSans-69"/>
      <use x="407.763672" xlink:href="#DejaVuSans-74"/>
      <use x="446.972656" xlink:href="#DejaVuSans-68"/>
      <use x="510.351562" xlink:href="#DejaVuSans-20"/>
      <use x="542.138672" xlink:href="#DejaVuSans-63"/>
      <use x="597.119141" xlink:href="#DejaVuSans-72"/>
      <use x="638.201172" xlink:href="#DejaVuSans-6f"/>
      <use x="699.382812" xlink:href="#DejaVuSans-73"/>
      <use x="751.482422" xlink:href="#DejaVuSans-73"/>
      <use x="803.582031" xlink:href="#DejaVuSans-2d"/>
      <use x="839.634766" xlink:href="#DejaVuSans-76"/>
      <use x="898.814453" xlink:href="#DejaVuSans-61"/>
      <use x="960.09375" xlink:href="#DejaVuSans-6c"/>
      <use x="987.876953" xlink:href="#DejaVuSans-69"/>
      <use x="1015.660156" xlink:href="#DejaVuSans-64"/>
      <use x="1079.136719" xlink:href="#DejaVuSans-61"/>
      <use x="1140.416016" xlink:href="#DejaVuSans-74"/>
      <use x="1179.625" xlink:href="#DejaVuSans-69"/>
      <use x="1207.408203" xlink:href="#DejaVuSans-6f"/>
      <use x="1268.589844" xlink:href="#DejaVuSans-6e"/>
     </g>
    </g>
    <g id="PathCollection_2">
     <g>
      <use style="fill:#000080;stroke:#000080;" x="191.8" xlink:href="#m652236003f" y="128.088088"/>
     </g>
    </g>
    <g id="text_21">
     <!-- data points -->
     <defs>
      <path d="M 18.109375 8.203125 
L 18.109375 -20.796875 
L 9.078125 -20.796875 
L 9.078125 54.6875 
L 18.109375 54.6875 
L 18.109375 46.390625 
Q 20.953125 51.265625 25.265625 53.625 
Q 29.59375 56 35.59375 56 
Q 45.5625 56 51.78125 48.09375 
Q 58.015625 40.1875 58.015625 27.296875 
Q 58.015625 14.40625 51.78125 6.484375 
Q 45.5625 -1.421875 35.59375 -1.421875 
Q 29.59375 -1.421875 25.265625 0.953125 
Q 20.953125 3.328125 18.109375 8.203125 
z
M 48.6875 27.296875 
Q 48.6875 37.203125 44.609375 42.84375 
Q 40.53125 48.484375 33.40625 48.484375 
Q 26.265625 48.484375 22.1875 42.84375 
Q 18.109375 37.203125 18.109375 27.296875 
Q 18.109375 17.390625 22.1875 11.75 
Q 26.265625 6.109375 33.40625 6.109375 
Q 40.53125 6.109375 44.609375 11.75 
Q 48.6875 17.390625 48.6875 27.296875 
z
" id="DejaVuSans-70"/>
     </defs>
     <g transform="translate(209.8 130.713088)scale(0.1 -0.1)">
      <use xlink:href="#DejaVuSans-64"/>
      <use x="63.476562" xlink:href="#DejaVuSans-61"/>
      <use x="124.755859" xlink:href="#DejaVuSans-74"/>
      <use x="163.964844" xlink:href="#DejaVuSans-61"/>
      <use x="225.244141" xlink:href="#DejaVuSans-20"/>
      <use x="257.03125" xlink:href="#DejaVuSans-70"/>
      <use x="320.507812" xlink:href="#DejaVuSans-6f"/>
      <use x="381.689453" xlink:href="#DejaVuSans-69"/>
      <use x="409.472656" xlink:href="#DejaVuSans-6e"/>
      <use x="472.851562" xlink:href="#DejaVuSans-74"/>
      <use x="512.060547" xlink:href="#DejaVuSans-73"/>
     </g>
    </g>
   </g>
  </g>
 </g>
 <defs>
  <clipPath id="pf351a04bc0">
   <rect height="543.8664" width="1071.36" x="172.8" y="84.7584"/>
  </clipPath>
 </defs>
</svg>
